<svg xmlns="http://www.w3.org/2000/svg" width="91" height="91" viewBox="0 0 91 91" fill="none">
  <path d="M46.2483 87.7239C70.0441 87.7239 89.3344 76.6715 89.3344 63.0377C89.3344 49.4039 70.0441 38.3516 46.2483 38.3516C22.4524 38.3516 3.16211 49.4039 3.16211 63.0377C3.16211 76.6715 22.4524 87.7239 46.2483 87.7239Z" fill="#F5F5F5"/>
  <path d="M72.3011 65.0066L46.3854 79.8559L17.2021 63.0959L43.1178 48.25L72.3011 65.0066Z" fill="#52379D"/>
  <path opacity="0.5" d="M72.3011 65.0066L46.3854 79.8559L17.2021 63.0959L43.1178 48.25L72.3011 65.0066Z" fill="black" fill-opacity="0.5"/>
  <path d="M43.1178 28.1172V48.2453L17.2021 63.0912V42.9666L43.1178 28.1172Z" fill="#52379D"/>
  <path opacity="0.23" d="M43.1178 28.1172V48.2453L17.2021 63.0912V42.9666L43.1178 28.1172Z" fill="black" fill-opacity="0.5"/>
  <path d="M46.3854 59.7253V79.8534L17.2021 63.0933V42.9688L46.3854 59.7253Z" fill="#52379D"/>
  <path d="M72.3009 44.8737V65.0018L43.1177 48.2453V28.1172L72.3009 44.8737Z" fill="#52379D"/>
  <path opacity="0.4" d="M72.3009 44.8737V65.0018L43.1177 48.2453V28.1172L72.3009 44.8737Z" fill="black" fill-opacity="0.5"/>
  <path d="M72.3009 65.0031V44.875L46.3853 59.7244V79.8525L72.3009 65.0031Z" fill="#52379D"/>
  <path d="M43.1177 28.1197L43.1528 16.9766L72.2658 33.754L72.3009 44.8763L43.1177 28.1197Z" fill="#52379D"/>
  <path d="M46.3853 59.7275L48.8166 49.979L74.4998 35L72.3009 44.8781L46.3853 59.7275Z" fill="#52379D"/>
  <path d="M75 34.5L49 50L74.5 35L73.5 39.5L75 34.5Z" fill="white"/>
  <path d="M17.2022 42.9648L14.1104 32.8537L40.026 18.0078L43.1179 28.1154L17.2022 42.9648Z" fill="#52379D"/>
  <path d="M17.202 42.9667L11.1025 34.6094L40.2893 51.3659L46.3852 59.7233L17.202 42.9667Z" fill="#52379D"/>
  <path opacity="0.45" d="M17.202 42.9667L11.1025 34.6094L40.2893 51.3659L46.3852 59.7233L17.202 42.9667Z" fill="black" fill-opacity="0.5"/>
  <g opacity="0.7">
    <path d="M54.0166 73.8675C53.9743 73.8675 53.9338 73.8511 53.9035 73.8217C53.8733 73.7924 53.8559 73.7525 53.855 73.7106V70.1682C53.8559 70.1259 53.8732 70.0857 53.9033 70.0558C53.9334 70.0259 53.974 70.0087 54.0166 70.0078C54.0589 70.0087 54.0991 70.026 54.1286 70.056C54.1582 70.086 54.1747 70.1263 54.1747 70.1682V73.7106C54.1747 73.7522 54.1581 73.7921 54.1284 73.8215C54.0988 73.8509 54.0585 73.8675 54.0166 73.8675Z" fill="white"/>
    <path d="M53.5493 71.4003C53.5284 71.4036 53.507 71.4036 53.4861 71.4003C53.4477 71.3828 53.4176 71.3513 53.4019 71.3124C53.3863 71.2735 53.3862 71.2301 53.4018 71.1911L53.971 69.8906L54.6034 70.6158C54.626 70.6483 54.6358 70.6879 54.6308 70.7271C54.6259 70.7662 54.6065 70.8022 54.5765 70.8281C54.5465 70.854 54.5079 70.868 54.4681 70.8675C54.4284 70.8669 54.3902 70.8518 54.361 70.825L54.0623 70.4764L53.7109 71.3131C53.6958 71.3419 53.6723 71.3656 53.6435 71.3811C53.6147 71.3967 53.5819 71.4033 53.5493 71.4003Z" fill="white"/>
    <path d="M55.4887 73.0359C55.4464 73.0349 55.4062 73.0176 55.3767 72.9877C55.3471 72.9577 55.3306 72.9174 55.3306 72.8755V69.3366C55.3306 69.295 55.3472 69.2551 55.3769 69.2256C55.4065 69.1962 55.4467 69.1797 55.4887 69.1797C55.5306 69.1797 55.5708 69.1962 55.6005 69.2256C55.6301 69.2551 55.6468 69.295 55.6468 69.3366V72.872C55.6473 72.893 55.6435 72.914 55.6358 72.9336C55.6281 72.9533 55.6166 72.9712 55.6019 72.9864C55.5873 73.0016 55.5697 73.0138 55.5503 73.0223C55.5308 73.0308 55.5099 73.0354 55.4887 73.0359Z" fill="white"/>
    <path d="M55.0217 70.5662C55.0007 70.5695 54.9794 70.5695 54.9584 70.5662C54.9391 70.5579 54.9217 70.5458 54.9072 70.5308C54.8926 70.5157 54.8813 70.4979 54.8738 70.4784C54.8662 70.459 54.8627 70.4382 54.8634 70.4173C54.864 70.3965 54.8689 70.376 54.8776 70.357L55.4433 69.0391L56.0757 69.7608C56.1049 69.7907 56.1212 69.8307 56.1212 69.8724C56.1212 69.914 56.1049 69.954 56.0757 69.9839C56.061 69.9987 56.0435 70.0104 56.0242 70.0184C56.0049 70.0264 55.9842 70.0305 55.9633 70.0305C55.9424 70.0305 55.9217 70.0264 55.9024 70.0184C55.8831 70.0104 55.8656 69.9987 55.8509 69.9839L55.5522 69.6353L55.2009 70.472C55.1863 70.5057 55.1606 70.5334 55.128 70.5505C55.0954 70.5676 55.0579 70.5731 55.0217 70.5662Z" fill="white"/>
  </g>
  <g opacity="0.7">
    <path d="M49.7687 76.272C49.7086 76.2729 49.6494 76.2585 49.5965 76.2302C49.533 76.1898 49.4815 76.1332 49.4476 76.0664C49.4136 75.9995 49.3983 75.9249 49.4033 75.8502V75.4143C49.4042 75.3724 49.4216 75.3325 49.4518 75.3032C49.482 75.2739 49.5226 75.2574 49.5649 75.2574C49.6068 75.2574 49.647 75.274 49.6767 75.3034C49.7063 75.3328 49.723 75.3727 49.723 75.4143V75.8502C49.723 75.9129 49.723 75.9478 49.7546 75.9548C49.7862 75.9617 49.8038 75.9548 49.8565 75.9269C49.9554 75.8362 50.0333 75.7254 50.0849 75.602C50.1364 75.4786 50.1604 75.3456 50.1552 75.2121V73.3991C50.1552 73.3575 50.1718 73.3176 50.2015 73.2881C50.2311 73.2587 50.2713 73.2422 50.3133 73.2422C50.3552 73.2422 50.3954 73.2587 50.4251 73.2881C50.4547 73.3176 50.4714 73.3575 50.4714 73.3991V75.2121C50.4792 75.4003 50.4423 75.5878 50.3635 75.7592C50.2848 75.9306 50.1665 76.0812 50.0181 76.1988C49.943 76.2448 49.8569 76.2701 49.7687 76.272Z" fill="white"/>
    <path d="M48.0928 74.8102V74.5383C48.1345 73.84 48.3402 73.161 48.6934 72.5557C49.0467 71.9503 49.5376 71.4353 50.1271 71.0517C50.7033 70.7239 51.2514 70.6751 51.673 70.9192C51.8979 71.0722 52.0772 71.2824 52.1922 71.5277C52.3072 71.7731 52.3536 72.0446 52.3266 72.3138V72.4045L48.0928 74.8102ZM51.0828 71.0656C50.8014 71.0785 50.5281 71.1625 50.2887 71.3097C49.7836 71.6395 49.3558 72.0733 49.0345 72.5817C48.7132 73.09 48.5059 73.661 48.4266 74.2559L51.9998 72.2057C52.0151 72.0038 51.9775 71.8014 51.8907 71.6181C51.8039 71.4349 51.6708 71.277 51.5044 71.1598C51.3746 71.0923 51.2292 71.0598 51.0828 71.0656Z" fill="white"/>
  </g>
  <path opacity="0.7" d="M11.1025 34.6094L40.2893 51.3659L46.3852 59.7233L39.9661 51.6623L11.1025 34.6094Z" fill="white"/>
  <path opacity="0.7" d="M72.3009 44.875L46.3853 59.7244V79.8525L46.8701 60.1288L72.3009 44.875Z" fill="white"/>
  <path d="M34.2708 36.8275C36.9446 36.4439 39.3865 34.7355 40.9465 32.5878C41.674 31.5843 42.2099 30.4569 42.5276 29.2616C42.865 28.1438 42.9205 26.9609 42.6892 25.8168C42.2078 23.9027 40.423 22.7695 38.5362 22.5325C37.5788 22.4075 36.6053 22.5017 35.6903 22.8079C34.7415 23.131 33.9184 23.7406 33.3362 24.5512C32.9712 24.9831 32.7416 25.5115 32.6757 26.0713C32.6701 26.2906 32.748 26.5039 32.8939 26.6687C33.0397 26.8335 33.2429 26.9377 33.4627 26.9604C34.0285 27.0077 34.5939 26.8653 35.0684 26.556C35.647 26.234 36.1567 25.8029 36.5687 25.2869C37.4524 24.2045 38.1137 22.9608 38.5151 21.6259C38.7968 20.4805 38.7968 19.2847 38.5151 18.1394C38.3012 16.9412 37.7493 15.8278 36.9235 14.9282C35.9769 14.0739 34.7755 13.5488 33.5014 13.4325C32.2332 13.2596 30.942 13.3789 29.7278 13.7811C29.1945 13.9416 28.7005 14.2099 28.2768 14.5691C27.9746 14.848 27.6303 15.3082 27.7533 15.7615C27.8762 16.2148 28.5438 16.417 28.997 16.3577C29.6678 16.233 30.2823 15.9025 30.7538 15.4128C31.2793 14.8995 31.7256 14.3121 32.0784 13.6695C32.3405 13.2078 32.4773 12.6864 32.4754 12.1564C32.4297 9.94586 29.9668 8.51636 28.0378 8.11192C27.5171 8.00397 26.9838 7.96877 26.4533 8.00732C26.2741 8.00732 26.383 8.30019 26.527 8.28974C27.565 8.24293 28.5966 8.47415 29.5135 8.95916C30.4182 9.37177 31.178 10.0432 31.6954 10.8872C31.926 11.3034 32.0398 11.7733 32.025 12.248C32.0102 12.7227 31.8672 13.1847 31.6111 13.5859C31.2671 14.1805 30.8387 14.723 30.3392 15.1967C29.9211 15.5732 29.2851 16.009 28.6984 15.9672C28.6015 15.967 28.5067 15.9397 28.4246 15.8886C28.3426 15.8374 28.2768 15.7644 28.2346 15.6778C28.2169 15.5633 28.2264 15.4463 28.2624 15.3361C28.2984 15.226 28.3599 15.1257 28.4419 15.0433C28.7522 14.7117 29.1359 14.4563 29.5627 14.2971C30.6168 13.8623 31.7582 13.6761 32.897 13.7532C34.0707 13.7743 35.2121 14.1381 36.1787 14.7992C37.0206 15.4929 37.6186 16.4343 37.8862 17.4874C38.2252 18.5571 38.3306 19.6863 38.1954 20.7996C37.9868 21.9199 37.553 22.9871 36.92 23.9375C36.27 25.0044 35.4549 26.0295 34.2322 26.4479C33.93 26.556 33.2976 26.7129 33.1781 26.277C33.0587 25.8412 33.403 25.3043 33.6243 24.9661C34.1138 24.2016 34.8274 23.6042 35.6692 23.2542C36.4815 22.9311 37.3584 22.7998 38.2305 22.8707C39.8854 22.9927 41.5649 23.8504 42.1411 25.4821C42.4301 26.4573 42.4616 27.4898 42.2324 28.4806C42.0257 29.5665 41.6324 30.6091 41.0695 31.5627C39.8587 33.5889 38.025 35.1763 35.8378 36.0918C35.3178 36.3149 34.7838 36.5032 34.2392 36.6776C34.183 36.6985 34.2076 36.8379 34.2708 36.8275Z" fill="#E0E0E0"/>
  <path d="M23.1015 6.55601C21.6961 6.4549 19.7602 7.55318 20.4488 8.35509C21.1375 9.15701 22.9645 7.85999 22.9645 7.85999C22.9645 7.85999 22.7923 9.48126 23.3896 9.66605C23.9869 9.85084 24.795 8.30279 24.1977 7.3126C24.4858 7.42529 24.7979 7.46392 25.105 7.42491C25.4121 7.3859 25.7043 7.27051 25.9545 7.08946C26.8048 6.46884 25.9053 5.8831 24.7072 5.98769C24.7072 5.98769 25.5645 3.19842 23.8323 3.73187C22.9645 3.99336 22.6588 5.00099 23.1015 6.55601Z" fill="#52379D"/>
  <path opacity="0.65" d="M23.1015 6.55601C21.6961 6.4549 19.7602 7.55318 20.4488 8.35509C21.1375 9.15701 22.9645 7.85999 22.9645 7.85999C22.9645 7.85999 22.7923 9.48126 23.3896 9.66605C23.9869 9.85084 24.795 8.30279 24.1977 7.3126C24.4858 7.42529 24.7979 7.46392 25.105 7.42491C25.4121 7.3859 25.7043 7.27051 25.9545 7.08946C26.8048 6.46884 25.9053 5.8831 24.7072 5.98769C24.7072 5.98769 25.5645 3.19842 23.8323 3.73187C22.9645 3.99336 22.6588 5.00099 23.1015 6.55601Z" fill="white"/>
  <path d="M24.4085 7.15161C24.3308 7.07605 24.2487 7.00504 24.1626 6.93893C24.0396 6.84479 23.9096 6.75414 23.7866 6.66349C23.6669 6.5771 23.5413 6.49904 23.4107 6.42989C23.3355 6.38849 23.2581 6.35125 23.1788 6.31832C23.0693 6.2673 22.9475 6.24796 22.8275 6.26253C22.796 6.26341 22.7653 6.27267 22.7387 6.28933C22.7121 6.30599 22.6905 6.32945 22.6761 6.35725C22.6617 6.38504 22.6552 6.41616 22.6571 6.44734C22.659 6.47852 22.6693 6.50861 22.6869 6.53449C22.7835 6.63832 22.9041 6.71729 23.0383 6.7646L23.228 6.86571C23.358 6.94242 23.4739 7.02958 23.5793 7.11675C23.6848 7.20391 23.8253 7.28759 23.9307 7.37476C24.1119 7.52062 24.3145 7.63819 24.5315 7.72341C24.5412 7.7286 24.5521 7.73132 24.5631 7.73132C24.5742 7.73132 24.585 7.7286 24.5948 7.72341C24.7739 7.58395 24.5104 7.25272 24.4085 7.15161Z" fill="#52379D"/>
</svg>
