<svg width="18" height="17" viewBox="0 0 18 17" fill="none" xmlns="http://www.w3.org/2000/svg">
<path d="M8.16675 10.9974H9.83342V12.6641H8.16675V10.9974ZM8.16675 4.33073H9.83342V9.33073H8.16675V4.33073ZM8.99175 0.164062C4.39175 0.164062 0.666748 3.8974 0.666748 8.4974C0.666748 13.0974 4.39175 16.8307 8.99175 16.8307C13.6001 16.8307 17.3334 13.0974 17.3334 8.4974C17.3334 3.8974 13.6001 0.164062 8.99175 0.164062ZM9.00008 15.1641C5.31675 15.1641 2.33341 12.1807 2.33341 8.4974C2.33341 4.81406 5.31675 1.83073 9.00008 1.83073C12.6834 1.83073 15.6667 4.81406 15.6667 8.4974C15.6667 12.1807 12.6834 15.1641 9.00008 15.1641Z" fill="#C31212"/>
</svg>
