<svg xmlns="http://www.w3.org/2000/svg" width="20" height="20" viewBox="0 0 20 20" fill="none">
<path d="M15.8333 2.5026H12.35C12 1.53594 11.0833 0.835938 10 0.835938C8.91667 0.835938 8 1.53594 7.65 2.5026H4.16667C3.25 2.5026 2.5 3.2526 2.5 4.16927V17.5026C2.5 18.4193 3.25 19.1693 4.16667 19.1693H15.8333C16.75 19.1693 17.5 18.4193 17.5 17.5026V4.16927C17.5 3.2526 16.75 2.5026 15.8333 2.5026ZM10 2.5026C10.4583 2.5026 10.8333 2.8776 10.8333 3.33594C10.8333 3.79427 10.4583 4.16927 10 4.16927C9.54167 4.16927 9.16667 3.79427 9.16667 3.33594C9.16667 2.8776 9.54167 2.5026 10 2.5026ZM15.8333 17.5026H4.16667V4.16927H5.83333V6.66927H14.1667V4.16927H15.8333V17.5026Z" fill="black" fill-opacity="0.6"/>
</svg>
