<svg xmlns="http://www.w3.org/2000/svg" width="24" height="25" viewBox="0 0 24 25" fill="none">
  <g clip-path="url(#clip0_4471_149463)">
    <path d="M11.9998 15.7C13.7671 15.7 15.1998 14.2674 15.1998 12.5C15.1998 10.7327 13.7671 9.30005 11.9998 9.30005C10.2325 9.30005 8.7998 10.7327 8.7998 12.5C8.7998 14.2674 10.2325 15.7 11.9998 15.7Z" fill="#52379D"/>
    <path d="M9 2.5L7.17 4.5H4C2.9 4.5 2 5.4 2 6.5V18.5C2 19.6 2.9 20.5 4 20.5H20C21.1 20.5 22 19.6 22 18.5V6.5C22 5.4 21.1 4.5 20 4.5H16.83L15 2.5H9ZM12 17.5C9.24 17.5 7 15.26 7 12.5C7 9.74 9.24 7.5 12 7.5C14.76 7.5 17 9.74 17 12.5C17 15.26 14.76 17.5 12 17.5Z" fill="#52379D"/>
  </g>
  <defs>
    <clipPath id="clip0_4471_149463">
      <rect width="24" height="24" fill="white" transform="translate(0 0.5)"/>
    </clipPath>
  </defs>
</svg>
