<svg xmlns="http://www.w3.org/2000/svg" width="20" height="20" viewBox="0 0 20 20" fill="none">
<path d="M10 10V2.5" stroke="black" stroke-opacity="0.6" stroke-width="1.5" stroke-linecap="round" stroke-linejoin="round"/>
<path d="M16.4953 6.25L3.50488 13.75" stroke="black" stroke-opacity="0.6" stroke-width="1.5" stroke-linecap="round" stroke-linejoin="round"/>
<path d="M2.62507 11.374C2.30034 9.61669 2.61277 7.80115 3.50624 6.25345C4.39971 4.70575 5.81569 3.52729 7.4999 2.92969V8.55954L2.62507 11.374Z" stroke="black" stroke-opacity="0.6" stroke-width="1.5" stroke-linecap="round" stroke-linejoin="round"/>
<path d="M10.0002 2.5C11.3142 2.50024 12.6051 2.84571 13.7436 3.5018C14.8821 4.15789 15.8282 5.10159 16.4872 6.23838C17.1463 7.37517 17.4951 8.66516 17.4987 9.97917C17.5024 11.2932 17.1608 12.5851 16.508 13.7255C15.8553 14.866 14.9144 15.8149 13.7796 16.4773C12.6448 17.1397 11.3558 17.4923 10.0418 17.4999C8.72784 17.5074 7.43493 17.1696 6.29256 16.5203C5.1502 15.8709 4.19848 14.9329 3.53271 13.8" stroke="black" stroke-opacity="0.6" stroke-width="1.5" stroke-linecap="round" stroke-linejoin="round"/>
</svg>
