<svg width="26" height="46" viewBox="0 0 26 46" fill="none" xmlns="http://www.w3.org/2000/svg">
<path d="M14 20.25C8.32505 18.775 6.50005 17.25 6.50005 14.875C6.50005 12.15 9.02505 10.25 13.25 10.25C17.7 10.25 19.35 12.375 19.5 15.5H25.025C24.85 11.2 22.225 7.25 17 5.975V0.5H9.50005V5.9C4.65005 6.95 0.750048 10.1 0.750048 14.925C0.750048 20.7 5.52505 23.575 12.5 25.25C18.75 26.75 20 28.95 20 31.275C20 33 18.775 35.75 13.25 35.75C8.10005 35.75 6.07505 33.45 5.80005 30.5H0.300049C0.600049 35.975 4.70005 39.05 9.50005 40.075V45.5H17V40.125C21.875 39.2 25.75 36.375 25.75 31.25C25.75 24.15 19.675 21.725 14 20.25Z" fill="black" fill-opacity="0.8"/>
</svg>
