<svg xmlns="http://www.w3.org/2000/svg" width="21" height="20" viewBox="0 0 21 20" fill="none">
<path fill-rule="evenodd" clip-rule="evenodd" d="M7.37139 18.8484C7.73511 19.2179 8.16968 19.5103 8.64895 19.7081C9.12822 19.906 9.64246 20.005 10.1609 19.9996C10.6782 20.007 11.1914 19.9088 11.6694 19.7108C12.1473 19.5128 12.5797 19.2193 12.9403 18.8484C13.1281 18.6597 13.2676 18.4284 13.3467 18.1742C13.4259 17.92 13.4424 17.6505 13.3949 17.3886C13.2058 16.3538 12.8546 14.4763 12.5411 12.7241C12.1144 10.4295 13.7942 8.23599 16.374 7.70998C18.3289 7.31785 19.8177 5.93303 20.1592 4.20563C20.1969 4.00559 20.2351 3.82198 20.2635 3.66331C20.2772 3.58905 20.2704 3.51262 20.2438 3.44198C20.2171 3.37134 20.1715 3.30925 20.1121 3.26261C20.0486 3.21239 19.9749 3.17675 19.8961 3.15806C19.8173 3.13936 19.7354 3.13817 19.6561 3.15451C19.0878 3.27953 18.2905 3.44689 17.6356 3.58805C17.2781 3.65412 16.9396 3.79829 16.6444 4.0105C16.3492 4.22272 16.1043 4.4976 15.9278 4.81544C15.8379 4.98076 15.705 5.1186 15.5429 5.21414C15.3808 5.30967 15.1956 5.35924 15.0074 5.35776C14.8181 5.36757 14.6296 5.32826 14.46 5.24344C14.2904 5.15862 14.1457 5.03121 14.04 4.87382C14.0018 4.80722 13.9548 4.74021 13.9263 4.68225C13.8161 4.51255 13.7538 4.31618 13.7461 4.11395C13.7177 3.68864 13.6799 2.88636 13.6511 2.34557C13.6347 1.95335 13.7162 1.56319 13.8882 1.21031C13.9176 1.15669 13.943 1.10105 13.9641 1.04359C14.0174 0.935642 14.0315 0.812471 14.0038 0.69529C13.9761 0.578109 13.9083 0.474207 13.8122 0.401596C13.8122 0.392731 13.8029 0.385144 13.7936 0.376733C13.4875 0.134165 13.1088 0.00162238 12.7183 1.47744e-05C12.3277 -0.00159283 11.9479 0.128035 11.6398 0.368076C11.5146 0.462441 11.4274 0.598606 11.3943 0.751898C11.3612 0.90519 11.3844 1.06535 11.4596 1.20298C11.4622 1.20484 11.4642 1.20712 11.4658 1.20986C11.4674 1.21261 11.4685 1.21559 11.4689 1.21874C11.6469 1.54107 11.7415 1.90277 11.7442 2.27098C11.7535 2.7213 11.7535 3.36356 11.7535 3.83957C11.7499 4.04788 11.6985 4.25257 11.6032 4.43783C11.5079 4.62309 11.3713 4.784 11.2038 4.90801C10.8984 5.13088 10.5302 5.25156 10.152 5.25298C9.77391 5.25441 9.40497 5.13656 9.09781 4.916C9.06849 4.89941 9.04942 4.87443 9.021 4.85806C8.91072 4.77758 8.81971 4.6737 8.75417 4.55394C8.68863 4.43417 8.65018 4.30128 8.64184 4.16501C8.62275 3.68105 8.58455 2.88861 8.56637 2.34646C8.55157 1.96554 8.63993 1.58779 8.8221 1.25293C8.8412 1.21952 8.86028 1.19442 8.87937 1.16191C8.9471 1.03913 8.96899 0.89642 8.94109 0.759002C8.91319 0.621583 8.83734 0.498455 8.72709 0.411808C8.43315 0.17524 8.06958 0.0420322 7.69239 0.0328694C7.31519 0.0237066 6.94545 0.139178 6.64037 0.361194C6.64037 0.369377 6.63107 0.369422 6.62084 0.378287C6.51676 0.450171 6.44154 0.556508 6.40862 0.678641C6.37569 0.800774 6.38718 0.930686 6.44103 1.04515C6.48854 1.16199 6.55467 1.28727 6.60264 1.40411C6.71753 1.64979 6.77869 1.9172 6.782 2.1884V3.65709C6.77962 4.0751 6.64348 4.48128 6.39352 4.81633C6.26486 4.97697 6.10016 5.10517 5.91291 5.19061C5.72566 5.27604 5.52097 5.31638 5.31531 5.30826C5.10965 5.30014 4.90875 5.24391 4.72881 5.14399C4.54887 5.04407 4.3951 4.90314 4.2795 4.73286C4.08789 4.42675 3.83441 4.16416 3.53539 3.96166C3.23636 3.75917 2.89824 3.62126 2.54287 3.55697C1.91683 3.43149 1.15812 3.28111 0.60755 3.16449C0.527823 3.15185 0.446436 3.15554 0.368244 3.17559C0.290052 3.19565 0.216713 3.23159 0.152913 3.28104C0.0929743 3.32686 0.0476045 3.38908 0.0223822 3.46019C-0.00284002 3.53129 -0.00682829 3.60816 0.0108387 3.68151C0.0387989 3.81517 0.0676719 3.9735 0.105407 4.14081C0.475709 5.82638 1.88948 7.18578 3.76781 7.65315C3.86192 7.67838 3.94762 7.7034 4.04264 7.7284C6.54723 8.35421 8.12173 10.5149 7.73279 12.7765C7.43887 14.5193 7.10633 16.4135 6.93584 17.4483C6.89426 17.6984 6.91206 17.9548 6.98779 18.1968C7.06352 18.4388 7.19507 18.6597 7.37183 18.8415L7.37139 18.8484Z" fill="#52379D"/>
<path fill-rule="evenodd" clip-rule="evenodd" d="M14.2388 15.8199C14.2388 15.8199 12.4364 12.5075 13.6508 11.9651C13.9598 11.8464 14.2978 11.8261 14.6189 11.9067C15.2165 12.0317 15.8802 11.5311 16.0887 11.0474C16.0132 11.3357 15.8744 11.6038 15.6824 11.8319C15.4905 12.0599 15.2502 12.2424 14.979 12.366C14.0692 12.7658 16.4125 14.0259 14.2388 15.8199Z" fill="#52379D"/>
<path fill-rule="evenodd" clip-rule="evenodd" d="M5.95295 15.8198C5.95295 15.8198 7.75536 12.5076 6.54125 11.9652C6.23231 11.8465 5.89426 11.8262 5.57332 11.907C4.9757 12.032 4.31171 11.5315 4.10303 11.0475C4.1786 11.3359 4.31742 11.6038 4.50941 11.8318C4.7014 12.0599 4.94175 12.2423 5.21302 12.3659C6.12366 12.766 3.78046 14.0261 5.95295 15.8198Z" fill="#52379D"/>
<path d="M14.8287 11.1846C14.0918 11.3586 13.3758 11.1102 13.2295 10.6304C13.0832 10.1506 13.5617 9.6196 14.2988 9.446C15.0358 9.2724 15.7518 9.5201 15.8984 10C16.045 10.48 15.5656 11.0105 14.8287 11.1846Z" fill="#52379D"/>
<path d="M5.8923 9.44552C6.6292 9.61956 7.10839 10.1482 6.96181 10.6291C6.81522 11.1099 6.09912 11.3578 5.36238 11.1841C4.62564 11.0103 4.14652 10.4806 4.29243 10.0004C4.43834 9.52032 5.1551 9.27258 5.8923 9.44552Z" fill="#52379D"/>
<path fill-rule="evenodd" clip-rule="evenodd" d="M13.3182 10.7447C13.3182 10.7447 12.7843 10.0697 14.1574 9.4307C14.4939 9.27458 14.8656 9.20971 15.2352 9.24262C15.8776 9.33483 16.5273 9.3664 17.1756 9.33691C16.523 9.54954 15.8482 9.68646 15.1643 9.74499C14.8574 9.76678 14.5573 9.84638 14.28 9.9796C13.9058 10.1588 13.577 10.4204 13.3182 10.7447V10.7447Z" fill="#52379D"/>
<path fill-rule="evenodd" clip-rule="evenodd" d="M6.87621 10.7451C6.87621 10.7451 7.41145 10.0702 6.03708 9.43083C5.70051 9.27471 5.32881 9.20985 4.95926 9.24276C4.31682 9.33504 3.66713 9.36668 3.01876 9.33727C3.67134 9.54989 4.3462 9.68682 5.03005 9.74534C5.33698 9.76713 5.63704 9.84673 5.91442 9.97995C6.28862 10.1592 6.61742 10.4207 6.87621 10.7451Z" fill="#52379D"/>
<path fill-rule="evenodd" clip-rule="evenodd" d="M11.1225 18.7067C11.2966 18.4621 11.443 18.199 11.5592 17.9222C11.6564 17.6597 11.7295 17.389 11.7776 17.1133C11.6062 17.3374 11.4161 17.5466 11.2093 17.7386C11.0056 17.9206 10.783 18.0801 10.5451 18.2144C10.5091 18.2456 10.4804 18.2844 10.461 18.328C10.4416 18.3716 10.4322 18.4188 10.433 18.4665C10.4339 18.5142 10.4451 18.5611 10.4661 18.604C10.4871 18.6468 10.5173 18.6846 10.5545 18.7145C10.6342 18.7818 10.7356 18.818 10.8399 18.8166C10.9443 18.8152 11.0446 18.7761 11.1225 18.7067Z" fill="white"/>
<path fill-rule="evenodd" clip-rule="evenodd" d="M9.68437 18.1805C9.43866 18.0852 9.21344 17.9437 9.02083 17.7638C8.82403 17.566 8.64912 17.3475 8.49913 17.1121C8.526 17.4547 8.60926 17.7905 8.74554 18.1059C8.85397 18.343 9.00516 18.558 9.19154 18.7402C9.27817 18.7991 9.38285 18.8254 9.48704 18.8145C9.59122 18.8036 9.68819 18.7562 9.76075 18.6806C9.79264 18.6444 9.81621 18.6017 9.82979 18.5554C9.84338 18.5091 9.84664 18.4604 9.83936 18.4127C9.83208 18.365 9.81442 18.3195 9.78764 18.2794C9.76086 18.2393 9.72561 18.2055 9.68437 18.1805Z" fill="white"/>
</svg>
