<svg xmlns="http://www.w3.org/2000/svg" width="21" height="20" viewBox="0 0 21 20" fill="none">
<path fill-rule="evenodd" clip-rule="evenodd" d="M7.37139 18.8484C7.73511 19.2179 8.16968 19.5103 8.64895 19.7081C9.12822 19.906 9.64246 20.005 10.1609 19.9996C10.6782 20.007 11.1914 19.9088 11.6694 19.7108C12.1473 19.5128 12.5797 19.2193 12.9403 18.8484C13.1281 18.6597 13.2676 18.4284 13.3467 18.1742C13.4259 17.92 13.4424 17.6505 13.3949 17.3886C13.2058 16.3538 12.8546 14.4763 12.5411 12.7241C12.1144 10.4295 13.7942 8.23599 16.374 7.70998C18.3289 7.31785 19.8177 5.93303 20.1592 4.20563C20.1969 4.00559 20.2351 3.82198 20.2635 3.66331C20.2772 3.58905 20.2704 3.51262 20.2438 3.44198C20.2171 3.37134 20.1715 3.30925 20.1121 3.26261C20.0486 3.21239 19.9749 3.17675 19.8961 3.15806C19.8173 3.13936 19.7354 3.13817 19.6561 3.15451C19.0878 3.27953 18.2905 3.44689 17.6356 3.58805C17.2781 3.65412 16.9396 3.79829 16.6444 4.0105C16.3492 4.22272 16.1043 4.4976 15.9278 4.81544C15.8379 4.98076 15.705 5.1186 15.5429 5.21414C15.3808 5.30967 15.1956 5.35924 15.0074 5.35776C14.8181 5.36757 14.6296 5.32826 14.46 5.24344C14.2904 5.15862 14.1457 5.03121 14.04 4.87382C14.0018 4.80722 13.9548 4.74021 13.9263 4.68225C13.8161 4.51255 13.7538 4.31618 13.7461 4.11395C13.7177 3.68864 13.6799 2.88636 13.6511 2.34557C13.6347 1.95335 13.7162 1.56319 13.8882 1.21031C13.9176 1.15669 13.943 1.10105 13.9641 1.04359C14.0174 0.935642 14.0315 0.812471 14.0038 0.69529C13.9761 0.578109 13.9083 0.474207 13.8122 0.401596C13.8122 0.392731 13.8029 0.385144 13.7936 0.376733C13.4875 0.134165 13.1088 0.00162238 12.7183 1.47744e-05C12.3277 -0.00159283 11.9479 0.128035 11.6398 0.368076C11.5146 0.462441 11.4274 0.598606 11.3943 0.751898C11.3612 0.90519 11.3844 1.06535 11.4596 1.20298C11.4622 1.20484 11.4642 1.20712 11.4658 1.20986C11.4674 1.21261 11.4685 1.21559 11.4689 1.21874C11.6469 1.54107 11.7415 1.90277 11.7442 2.27098C11.7535 2.7213 11.7535 3.36356 11.7535 3.83957C11.7499 4.04788 11.6985 4.25257 11.6032 4.43783C11.5079 4.62309 11.3713 4.784 11.2038 4.90801C10.8984 5.13088 10.5302 5.25156 10.152 5.25298C9.77391 5.25441 9.40497 5.13656 9.09781 4.916C9.06849 4.89941 9.04942 4.87443 9.021 4.85806C8.91072 4.77758 8.81971 4.6737 8.75417 4.55394C8.68863 4.43417 8.65018 4.30128 8.64184 4.16501C8.62275 3.68105 8.58455 2.88861 8.56637 2.34646C8.55157 1.96554 8.63993 1.58779 8.8221 1.25293C8.8412 1.21952 8.86028 1.19442 8.87937 1.16191C8.9471 1.03913 8.96899 0.89642 8.94109 0.759002C8.91319 0.621583 8.83734 0.498455 8.72709 0.411808C8.43315 0.17524 8.06958 0.0420322 7.69239 0.0328694C7.31519 0.0237066 6.94545 0.139178 6.64037 0.361194C6.64037 0.369377 6.63107 0.369422 6.62084 0.378287C6.51676 0.450171 6.44154 0.556508 6.40862 0.678641C6.37569 0.800774 6.38718 0.930686 6.44103 1.04515C6.48854 1.16199 6.55467 1.28727 6.60264 1.40411C6.71753 1.64979 6.77869 1.9172 6.782 2.1884V3.65709C6.77962 4.0751 6.64348 4.48128 6.39352 4.81633C6.26486 4.97697 6.10016 5.10517 5.91291 5.19061C5.72566 5.27604 5.52097 5.31638 5.31531 5.30826C5.10965 5.30014 4.90875 5.24391 4.72881 5.14399C4.54887 5.04407 4.3951 4.90314 4.2795 4.73286C4.08789 4.42675 3.83441 4.16416 3.53539 3.96166C3.23636 3.75917 2.89824 3.62126 2.54287 3.55697C1.91683 3.43149 1.15812 3.28111 0.60755 3.16449C0.527823 3.15185 0.446436 3.15554 0.368244 3.17559C0.290052 3.19565 0.216713 3.23159 0.152913 3.28104C0.0929743 3.32686 0.0476045 3.38908 0.0223822 3.46019C-0.00284002 3.53129 -0.00682829 3.60816 0.0108387 3.68151C0.0387989 3.81517 0.0676719 3.9735 0.105407 4.14081C0.475709 5.82638 1.88948 7.18578 3.76781 7.65315C3.86192 7.67838 3.94762 7.7034 4.04264 7.7284C6.54723 8.35421 8.12173 10.5149 7.73279 12.7765C7.43887 14.5193 7.10633 16.4135 6.93584 17.4483C6.89426 17.6984 6.91206 17.9548 6.98779 18.1968C7.06352 18.4388 7.19507 18.6597 7.37183 18.8415L7.37139 18.8484Z" fill="white"/>
<path fill-rule="evenodd" clip-rule="evenodd" d="M14.2387 15.8201C14.2387 15.8201 12.4363 12.5076 13.6507 11.9653C13.9597 11.8466 14.2977 11.8263 14.6188 11.9069C15.2164 12.0319 15.8801 11.5313 16.0886 11.0475C16.0131 11.3359 15.8743 11.604 15.6823 11.8321C15.4904 12.0601 15.2501 12.2426 14.9788 12.3662C14.0691 12.766 16.4123 14.0261 14.2387 15.8201Z" fill="white"/>
<path fill-rule="evenodd" clip-rule="evenodd" d="M5.95209 15.8197C5.95209 15.8197 7.7545 12.5074 6.54039 11.9651C6.23145 11.8464 5.8934 11.8261 5.57247 11.9069C4.97485 12.0319 4.31085 11.5313 4.10217 11.0474C4.17774 11.3357 4.31656 11.6037 4.50855 11.8317C4.70055 12.0598 4.9409 12.2422 5.21217 12.3658C6.12281 12.7659 3.77961 14.0259 5.95209 15.8197Z" fill="white"/>
<path d="M14.8289 11.1834C14.092 11.3574 13.376 11.109 13.2297 10.6293C13.0834 10.1495 13.562 9.61844 14.299 9.44484C15.036 9.27124 15.7521 9.51894 15.8986 9.99888C16.0452 10.4788 15.5658 11.0094 14.8289 11.1834Z" fill="white"/>
<path d="M5.89267 9.44601C6.62957 9.62004 7.10876 10.1487 6.96217 10.6295C6.81559 11.1104 6.09948 11.3583 5.36274 11.1846C4.626 11.0108 4.14689 10.481 4.2928 10.0009C4.43871 9.52081 5.15547 9.27307 5.89267 9.44601Z" fill="white"/>
<path fill-rule="evenodd" clip-rule="evenodd" d="M13.318 10.7448C13.318 10.7448 12.7842 10.0698 14.1572 9.43082C14.4938 9.2747 14.8655 9.20984 15.2351 9.24275C15.8775 9.33495 16.5272 9.36652 17.1755 9.33704C16.5229 9.54966 15.8481 9.68659 15.1642 9.74511C14.8573 9.7669 14.5572 9.8465 14.2798 9.97972C13.9056 10.159 13.5768 10.4205 13.318 10.7448V10.7448Z" fill="white"/>
<path fill-rule="evenodd" clip-rule="evenodd" d="M6.87487 10.7454C6.87487 10.7454 7.41011 10.0705 6.03573 9.43114C5.69917 9.27501 5.32747 9.21015 4.95792 9.24306C4.31548 9.33535 3.66579 9.36699 3.01742 9.33757C3.67 9.5502 4.34486 9.68712 5.0287 9.74565C5.33564 9.76744 5.6357 9.84704 5.91307 9.98026C6.28727 10.1595 6.61608 10.421 6.87487 10.7454Z" fill="white"/>
<path fill-rule="evenodd" clip-rule="evenodd" d="M11.1232 18.7067C11.2972 18.4621 11.4436 18.199 11.5598 17.9222C11.657 17.6597 11.7301 17.389 11.7782 17.1133C11.6068 17.3374 11.4167 17.5466 11.21 17.7386C11.0063 17.9206 10.7836 18.0801 10.5458 18.2144C10.5097 18.2456 10.481 18.2844 10.4616 18.328C10.4422 18.3716 10.4328 18.4188 10.4337 18.4665C10.4345 18.5142 10.4457 18.5611 10.4667 18.604C10.4877 18.6468 10.5179 18.6846 10.5551 18.7145C10.6349 18.7818 10.7362 18.818 10.8406 18.8166C10.9449 18.8152 11.0452 18.7761 11.1232 18.7067Z" fill="#52379D"/>
<path fill-rule="evenodd" clip-rule="evenodd" d="M9.68498 18.1806C9.43927 18.0853 9.21405 17.9438 9.02144 17.764C8.82464 17.5661 8.64973 17.3476 8.49974 17.1122C8.52661 17.4548 8.60987 17.7906 8.74615 18.1061C8.85458 18.3431 9.00577 18.5581 9.19215 18.7403C9.27878 18.7992 9.38346 18.8255 9.48765 18.8146C9.59183 18.8037 9.6888 18.7563 9.76136 18.6807C9.79325 18.6445 9.81682 18.6018 9.8304 18.5555C9.84399 18.5092 9.84725 18.4605 9.83997 18.4128C9.83269 18.3652 9.81503 18.3196 9.78825 18.2795C9.76148 18.2394 9.72622 18.2056 9.68498 18.1806Z" fill="#52379D"/>
</svg>
