<svg xmlns="http://www.w3.org/2000/svg" width="80" height="80" viewBox="0 0 80 80" fill="none">
<path d="M39.915 80C17.7875 79.9151 -0.0848034 62.0426 0.000302692 39.915C0.0857887 17.7875 17.9577 -0.0848034 40.0853 0.000302692C44.3406 0.000302692 48.5109 0.681227 52.5111 2.043C53.4472 2.29827 53.9578 3.23445 53.7025 4.17065C53.4466 5.10624 52.4256 5.53189 51.5742 5.27662H51.4893C32.0852 -1.10633 11.2342 9.44697 4.93633 28.7659C3.74488 32.4258 3.064 36.1706 3.064 40.0002C3.23438 60.3405 19.915 76.6809 40.2554 76.5107C58.2127 76.3409 73.3616 63.2343 76.2552 45.5321C76.4256 44.5959 77.2763 43.9149 78.2125 44.0854C79.1487 44.2557 79.8297 45.1065 79.6592 46.0427C76.6808 65.4468 59.5742 80 39.9147 80L39.915 80Z" fill="#52379D"/>
<path d="M38.383 53.2757C37.9574 53.2757 37.5317 53.1054 37.1916 52.7652L20.5959 36.2546C19.915 35.5737 19.915 34.5527 20.5959 33.8716C21.2768 33.1907 22.2979 33.1907 22.9789 33.8716L38.3831 49.1907L73.7021 14.0419C74.2981 13.361 75.404 13.2761 76.085 13.957C76.766 14.5531 76.8509 15.659 76.1699 16.34L76.085 16.4249L39.5746 52.7652C39.2338 53.1054 38.8081 53.2757 38.383 53.2757Z" fill="#52379D"/>
</svg>
