<svg xmlns="http://www.w3.org/2000/svg" width="161" height="154" viewBox="0 0 161 154" fill="none">
  <path d="M34.587 80.7993L0.810699 80.7491C0.810699 80.7491 2.49161 78.5632 4.34601 78.2933C4.34601 78.2933 7.96228 67.5794 13.9843 67.4985C19.586 67.4368 21.8221 74.1065 21.8221 74.1065C21.8221 74.1065 24.4244 71.1186 26.9034 72.4911C29.3823 73.8636 30.7818 77.7883 30.7818 77.7883C30.7818 77.7883 33.5769 79.3034 34.587 80.7993Z" fill="#EBEBEB"/>
  <path d="M117.526 28.1823L160.239 28.2479C160.239 28.2479 160.239 25.5183 154.359 24.9747C154.359 24.9747 149.004 13.0233 140.8 14.6271C135.673 15.6179 133.051 22.6307 133.051 22.6307C133.051 22.6307 129.196 17.1061 126.112 18.1701C123.027 19.2342 121.181 25.1097 121.181 25.1097C121.181 25.1097 117.992 26.6402 117.526 28.1823Z" fill="#EBEBEB"/>
  <path d="M23.6415 118.562L66.3544 118.628C66.3544 118.628 66.3544 115.898 60.4751 115.354C60.4751 115.354 55.12 103.403 46.916 105.007C41.8077 105.998 39.2054 113.006 39.2054 113.006C39.2054 113.006 35.3501 107.482 32.2658 108.546C29.1816 109.61 27.3349 115.485 27.3349 115.485C27.3349 115.485 24.1273 117.02 23.6415 118.562Z" fill="#EBEBEB"/>
  <path d="M45 15.5484L74.0419 15.5947C74.0419 15.5947 71.3047 13.0386 70.0864 13.0348C68.8681 13.0309 65.329 4.46442 60.7836 4.82296C56.2382 5.1815 53.8209 11.5543 53.8209 11.5543C53.8209 11.5543 48.3001 9.81557 45 15.5484Z" fill="#EBEBEB"/>
  <path d="M104.753 132.472L133.795 132.514C133.795 132.514 131.062 129.962 129.843 129.958C128.625 129.954 125.082 121.388 120.537 121.743C115.991 122.097 113.574 128.474 113.574 128.474C113.574 128.474 108.057 126.724 104.753 132.472Z" fill="#EBEBEB"/>
  <path d="M112.382 79.5426L137.218 79.5812C137.218 79.5812 135.985 77.9697 134.624 77.7692C134.624 77.7692 131.991 69.8812 127.557 69.8157C123.436 69.7579 121.774 74.658 121.774 74.658C121.774 74.658 119.869 72.4566 118.042 73.459C116.215 74.4613 115.181 77.3374 115.181 77.3374C115.181 77.3374 113.127 78.4361 112.382 79.5426Z" fill="#EBEBEB"/>
  <path d="M48.1804 95.6384C45.6243 97.6008 43.0451 99.5323 40.4698 101.456L32.6936 107.193L24.8558 112.845L20.9234 115.651L16.964 118.423L20.8193 115.497L24.6746 112.606L32.4507 106.869L40.2808 101.205C42.9102 99.3511 45.5318 97.4736 48.1804 95.6384Z" fill="#263238"/>
  <path d="M35.3179 135.36C33.4365 136.828 31.532 138.267 29.6236 139.701C27.7152 141.135 25.7683 142.538 23.8677 143.942C21.967 145.345 20.0046 146.771 18.0577 148.148L15.1315 150.218C14.1523 150.893 13.1769 151.583 12.1861 152.254C13.1229 151.513 14.079 150.792 15.0236 150.064L17.8842 147.928C19.8119 146.494 21.7395 145.09 23.6402 143.668C25.5409 142.245 27.4955 140.865 29.4501 139.481C31.4048 138.097 33.344 136.701 35.3179 135.36Z" fill="#263238"/>
  <path d="M113.096 102.767C111.215 104.24 109.31 105.678 107.402 107.112C105.493 108.546 103.566 109.949 101.646 111.372C99.7259 112.794 97.7905 114.175 95.8398 115.559L92.9174 117.625C91.9343 118.304 90.9589 118.994 89.9681 119.661C90.9088 118.924 91.8611 118.203 92.8056 117.475L95.6624 115.32C97.5901 113.886 99.5177 112.478 101.418 111.06C103.319 109.641 105.274 108.257 107.228 106.873C109.183 105.489 111.122 104.112 113.096 102.767Z" fill="#263238"/>
  <path d="M145.707 53.604C143.825 55.0767 141.921 56.5148 140.012 57.9451C138.104 59.3754 136.157 60.7864 134.257 62.2052C132.356 63.6239 130.401 65.0118 128.447 66.392L125.524 68.4623C124.541 69.1409 123.57 69.8271 122.579 70.4979C123.516 69.7577 124.468 69.0406 125.412 68.3081L128.273 66.153C130.181 64.7227 132.109 63.3155 134.029 61.9122C135.949 60.5088 137.884 59.1055 139.835 57.7215C141.786 56.3374 143.741 54.9456 145.707 53.604Z" fill="#263238"/>
  <path d="M31.6024 51.8767C29.721 53.3494 27.8165 54.7875 25.9081 56.2178C23.9998 57.6481 22.0528 59.0591 20.1522 60.4586C18.2515 61.8581 16.2969 63.2653 14.3461 64.6455L11.4238 66.7158C10.4407 67.3943 9.46527 68.0805 8.47446 68.7514C9.41515 68.0111 10.3674 67.2941 11.312 66.5615L14.1687 64.4064C16.0964 62.9761 18.024 61.5689 19.9247 60.1656C21.8254 58.7623 23.78 57.3589 25.7346 55.9787C27.6893 54.5986 29.6246 53.2184 31.6024 51.8767Z" fill="#263238"/>
  <path d="M141.197 51.7456C140.067 52.667 138.915 53.5576 137.758 54.4443C136.602 55.331 135.422 56.1831 134.258 57.0582C133.093 57.9334 131.898 58.7623 130.703 59.5989L128.906 60.8441C128.301 61.2296 127.704 61.6614 127.091 62.0547C127.65 61.5882 128.228 61.1448 128.798 60.6899L130.529 59.356C131.686 58.4731 132.843 57.6172 134.03 56.7459C135.218 55.8746 136.39 55.038 137.585 54.2053C138.78 53.3725 139.975 52.5398 141.197 51.7456Z" fill="#263238"/>
  <path d="M29.8825 48.4302C28.7567 49.3516 27.6001 50.2422 26.4435 51.1289C25.2869 52.0156 24.1303 52.8715 22.9429 53.7428C21.7555 54.6141 20.5835 55.4507 19.3883 56.2834L17.5956 57.5287C16.9865 57.9335 16.3889 58.346 15.7759 58.7393C16.3388 58.2766 16.9325 57.8294 17.4838 57.3745L19.2148 56.0405C20.3714 55.1577 21.528 54.2979 22.7155 53.4266C23.9029 52.5554 25.0749 51.7187 26.27 50.886C27.4652 50.0533 28.6603 49.2321 29.8825 48.4302Z" fill="#263238"/>
  <path d="M47.9874 88.8684C46.1061 90.3373 44.2015 91.7753 42.2932 93.2095C40.3848 94.6437 38.4379 96.047 36.5372 97.4696C34.6365 98.8922 32.6819 100.272 30.7311 101.656L27.8088 103.727C26.8257 104.405 25.8503 105.092 24.8595 105.762C25.8002 105.022 26.7524 104.301 27.697 103.573L30.5538 101.417C32.4814 99.9832 34.4091 98.5799 36.3097 97.1573C38.2104 95.7347 40.165 94.3545 42.1197 92.9705C44.0743 91.5864 46.0135 90.2101 47.9874 88.8684Z" fill="#263238"/>
  <path d="M95.4343 108.75L89.2851 113.369L83.1089 117.957L70.7218 127.078L58.2846 136.131L52.0467 140.63L45.7819 145.098L51.9349 140.479L58.1073 135.892L70.4943 126.77L82.9354 117.718L89.1733 113.219L95.4343 108.75Z" fill="#263238"/>
  <path d="M116.199 36.0355C113.211 38.8614 110.1 42.7552 106.017 43.9812C102.814 44.9335 99.3864 44.1007 96.4448 42.7128C89.9833 39.6556 83.7223 32.9705 85.6499 25.2599C86.421 22.1756 90.3033 18.4167 93.7808 19.4191C95.5658 19.9396 96.9537 21.1887 98.4649 22.2103C99.3783 22.8719 100.429 23.3194 101.539 23.5196C102.649 23.7198 103.789 23.6677 104.876 23.3669C109.437 22.2103 111.496 19.8702 115.209 17.1985C115.557 16.9077 115.964 16.6933 116.4 16.5691C116.837 16.4449 117.296 16.4137 117.745 16.4775C118.792 16.5633 119.796 16.9325 120.648 17.5454C121.505 17.9563 122.245 18.5737 122.803 19.342C123.96 21.0075 123.821 23.6908 123.96 25.63C124.099 27.5692 123.648 28.9456 122.225 30.3335C120.224 32.2688 118.204 34.1348 116.199 36.0355Z" fill="#263238"/>
  <path d="M115.067 37.6855C117.638 34.9174 120.156 32.1069 122.689 29.308C122.689 29.308 122.689 29.2655 122.665 29.281C120.514 31.5247 118.332 33.7338 116.208 36.0046C114.084 38.2754 112.129 40.6618 109.866 42.6974C104.773 47.2659 98.0647 43.7576 94.5179 39.1351C94.3559 38.9269 94.0398 39.2084 94.2094 39.4127C97.4517 43.3759 102.768 46.8573 107.984 44.3899C110.841 43.0637 112.962 39.9447 115.067 37.6855Z" fill="#263238"/>
  <path d="M115.682 17.2332C115.736 17.1869 115.663 17.106 115.605 17.1522C112.644 19.4654 109.409 22.4726 105.531 22.993C103.62 23.2472 101.676 22.9165 99.9561 22.0446C98.5952 21.3545 97.5774 20.2519 96.3938 19.3228C91.7675 15.6911 85.8187 20.7454 86.2582 25.9115C86.2582 26.0194 86.4549 26.0079 86.451 25.9115C86.3007 22.1371 88.9068 18.5864 92.8585 18.3705C96.0314 18.1893 97.8704 21.5203 100.604 22.6113C106.31 24.8975 111.618 20.8803 115.682 17.2332Z" fill="#263238"/>
  <path d="M34.3437 24.5082C35.4193 22.6422 61.805 24.7048 84.1811 26.991H84.2004C94.2974 28.0242 104.09 28.2131 110.154 29.2348C114.01 29.8825 115.937 31.548 116.323 32.1301C117.61 34.104 119.692 40.1877 108.523 46.2868C100.08 50.9131 90.5424 54.7954 82.9127 62.479C75.2831 70.1627 70.3175 80.3445 69.9589 87.6387C69.6004 94.933 74.061 102.459 73.6253 101.645C73.4904 101.398 71.5242 101.29 68.9758 99.3897C65.8492 97.0765 62.4218 92.5003 59.9313 90.9929C54.8307 87.9086 47.5018 87.4807 42.4822 81.0655C37.185 74.2917 36.9498 63.4313 35.0684 54.6297C32.7823 43.9428 25.0678 40.6195 34.3437 24.5082Z" fill="#37474F"/>
  <path d="M35.8128 58.6006C35.5854 57.2474 35.3463 55.9019 35.0687 54.6296C34.4894 52.1478 33.6535 49.7329 32.5744 47.4241C32.5744 47.4241 56.8049 44.2743 63.3435 47.9214C66.9212 49.9146 55.7871 49.6177 35.8128 58.6006Z" fill="#263238"/>
  <path d="M63.76 94.4162C62.3682 92.9743 61.0613 91.6712 59.9278 90.9889C58.6139 90.2306 57.2377 89.5858 55.8142 89.0612C58.4512 79.4499 60.9418 72.8882 65.6838 68.8941C68.7218 66.3304 60.0049 82.0446 63.76 94.4162Z" fill="#263238"/>
  <path d="M37.0312 66.1452C36.8153 64.9231 36.6186 63.6932 36.4259 62.4634C44.3755 60.2697 51.315 56.5802 51.2726 57.625C51.2148 58.7623 42.3862 63.4349 37.0312 66.1452Z" fill="#263238"/>
  <path d="M24.8866 45.1457C24.8866 45.1457 23.8418 35.2453 31.7837 24.381C32.5548 23.3247 44.3173 19.8279 51.8814 20.0631C59.4455 20.2982 64.8892 23.1704 73.6407 25.4952C82.3923 27.8199 106.411 27.6734 111.974 29.5548C115.81 30.8464 116.307 32.1379 116.307 32.1379C116.307 32.1379 111.878 30.1563 109.106 29.8825C98.1528 28.803 78.0821 32.3576 72.9969 31.6984C66.7937 30.8888 59.939 29.5317 54.7575 30.1563C48.9514 30.8656 28.5954 41.992 24.8866 45.1457Z" fill="#455A64"/>
  <path d="M112.059 53.0335C111.562 55.7853 110.552 58.4191 109.082 60.7981C102.679 71.1111 89.4012 87.9741 86.3748 92.6776C80.8694 101.256 54.9155 118.628 54.9155 118.628L46.8194 106.048C46.8194 106.048 71.6514 83.9492 71.9675 83.3748C73.7679 80.1132 88.0672 59.1905 88.1058 58.5196C88.4528 51.6572 94.3938 45.7625 94.3938 45.7625L112.059 53.0335Z" fill="#263238"/>
  <path d="M112.055 53.0335C111.611 55.5335 110.739 57.9384 109.479 60.1427C101.082 60.694 91.3285 58.4502 88.1633 57.6483C88.9497 51.1599 94.3934 45.7625 94.3934 45.7625L112.055 53.0335Z" fill="#455A64"/>
  <path d="M42.8983 137.048C42.2622 136.412 34.3511 113.758 34.4629 112.663C34.4629 112.474 37.2927 111.291 41.9114 109.471C42.2314 109.344 65.1049 89.1228 65.1049 89.1228L76.0038 104.317L47.3859 123.909C47.3859 123.909 45.8978 133.547 45.6433 134.731C45.3889 135.915 43.5345 137.684 42.8983 137.048Z" fill="#9974FF"/>
  <path opacity="0.3" d="M76.0036 104.317L72.0674 107.015L61.3997 92.4113L65.1047 89.1382L76.0036 104.317Z" fill="white"/>
  <path opacity="0.1" d="M76.0083 104.317L62.5803 113.504L62.6613 91.2857C64.1648 89.9556 65.1094 89.1267 65.1094 89.1267L76.0083 104.317Z" fill="black"/>
  <path opacity="0.1" d="M88.6798 60.3237C87.6363 62.2308 86.5478 64.1109 85.4143 65.964C84.2924 67.8223 83.132 69.6574 81.9638 71.4887C80.7957 73.3199 79.5928 75.1242 78.363 76.9131C77.1331 78.702 75.8879 80.4831 74.5424 82.1987L76.1809 79.3805C76.736 78.4436 77.2912 77.5107 77.8579 76.5854C78.9837 74.731 80.148 72.8997 81.3277 71.0723C82.5074 69.2449 83.6987 67.4329 84.9208 65.6402C86.143 63.8475 87.3844 62.0702 88.6798 60.3237Z" fill="white"/>
  <path d="M80.7809 100.658L78.7954 85.8574C78.7954 85.8574 102.255 78.8986 102.856 77.5646C103.095 77.0442 87.8862 67.0474 88.0366 55.8516C88.1137 50.2614 94.3053 45.7661 94.3053 45.7661L108.416 51.6647C108.416 51.6647 106.399 56.5841 107.02 57.413C108.366 59.2173 126.065 73.2197 125.071 82.0137C124.037 91.1276 80.7809 100.658 80.7809 100.658Z" fill="#263238"/>
  <path d="M107.021 57.4054C100.567 55.2002 93.3228 57.7909 88.681 60.1041C88.2463 58.7328 88.0291 57.3019 88.0371 55.8633C88.1142 50.2731 94.3059 45.7778 94.3059 45.7778L108.42 51.6764C108.42 51.6764 106.404 56.5573 107.021 57.4054Z" fill="#455A64"/>
  <path d="M102.062 53.3535C103.078 53.7404 104.017 54.3057 104.834 55.0229C105.248 55.3715 105.641 55.7449 106.01 56.1409C106.379 56.536 106.716 56.9588 107.02 57.4054C106.191 56.7153 105.405 55.9983 104.588 55.3159C104.183 54.9727 103.77 54.6412 103.35 54.3135C102.93 53.9858 102.51 53.6581 102.062 53.3535Z" fill="#263238"/>
  <path d="M104.63 54.136C104.944 54.2534 105.235 54.4286 105.485 54.6526C105.74 54.8717 105.968 55.1202 106.164 55.3928C106.554 55.9396 106.804 56.5736 106.893 57.2395C106.704 56.9619 106.546 56.6805 106.372 56.4106C106.199 56.1407 106.029 55.8747 105.848 55.6164C105.478 55.0941 105.071 54.5993 104.63 54.136Z" fill="#263238"/>
  <path d="M102.874 77.5571C103.397 77.7476 103.896 78 104.359 78.3089C104.825 78.6122 105.269 78.9471 105.689 79.3113C106.108 79.6723 106.504 80.0585 106.876 80.4679C107.247 80.8805 107.588 81.3199 107.894 81.7825C107.054 81.0539 106.263 80.306 105.438 79.5927C105.03 79.2342 104.609 78.8872 104.185 78.5441C103.761 78.201 103.314 77.8733 102.874 77.5571Z" fill="#37474F"/>
  <path d="M88.6806 60.0964C88.8962 60.8269 89.1829 61.5346 89.5365 62.2091C89.7023 62.5523 89.8835 62.8877 90.0647 63.2231C90.2459 63.5585 90.4502 63.8823 90.6468 64.2023C90.8434 64.5223 91.0516 64.8462 91.2637 65.1623L91.9075 66.103C92.3663 66.7121 92.8096 67.329 93.2993 67.915C94.2361 69.1178 95.2732 70.2282 96.3064 71.3539L97.9063 72.9886C98.4499 73.5245 99.0051 74.0488 99.5448 74.5885C98.9588 74.0989 98.3883 73.59 97.8061 73.0927L96.1445 71.5081C95.0592 70.4225 94.0298 69.2825 93.0602 68.0923C92.0932 66.9016 91.2168 65.6399 90.4386 64.318C89.6425 63.0078 89.0497 61.5844 88.6806 60.0964Z" fill="#37474F"/>
  <path opacity="0.1" d="M93.5721 47.3044C92.6113 48.4403 91.824 49.7122 91.2358 51.0788C90.6432 52.4201 90.2934 53.856 90.2026 55.3196C90.1311 56.7716 90.358 58.2228 90.8695 59.5836C91.1306 60.2622 91.4438 60.9195 91.8064 61.5498C92.1649 62.1936 92.5543 62.822 92.963 63.435C93.7841 64.6658 94.6748 65.8488 95.6308 66.978C96.5792 68.1346 97.5893 69.2103 98.6225 70.282C99.6558 71.3538 100.735 72.3832 101.834 73.3856C102.933 74.3879 104.062 75.3749 105.215 76.3271C102.72 74.6587 100.374 72.7781 98.2023 70.7061C96.0007 68.6527 94.0304 66.3644 92.3268 63.8822C91.9079 63.2551 91.5146 62.6126 91.1471 61.9546C90.7694 61.2868 90.447 60.5893 90.1833 59.8689C89.6623 58.4111 89.4637 56.8577 89.6011 55.3158C89.9346 52.2594 91.3417 49.4205 93.5721 47.3044Z" fill="white"/>
  <path d="M65.0666 113.103C64.712 112.274 65.803 88.3055 66.3196 87.3302C66.4044 87.1605 69.454 87.1104 74.4157 87.1412C74.7627 87.1412 97.3085 79.6697 97.3085 79.6697L105.189 95.2991L74.1305 102.582C74.1305 102.582 69.1648 110.967 68.4863 111.977C67.8078 112.987 65.4213 113.928 65.0666 113.103Z" fill="#9974FF"/>
  <path opacity="0.3" d="M105.19 95.2991L100.259 96.4557L93.057 81.0807L97.3094 79.689L105.19 95.2991Z" fill="white"/>
  <path d="M113.284 36.3437C117.406 45.1685 122.957 53.4613 125.911 53.8584C129.885 54.3904 138.83 51.2599 143.321 49.2089C144.64 48.6036 139.736 38.414 138.309 39.0694C136.601 39.8405 127.842 44.0119 127.653 44.0351C127.268 44.0852 118.786 36.7562 116.797 34.9558C113.497 31.9487 111.449 32.4267 113.284 36.3437Z" fill="#AD6359"/>
  <path d="M149.911 45.7816C148.176 47.4586 143.283 49.4942 141.915 49.5328C140.546 49.5713 136.803 41.3672 137.446 40.122C138.09 38.8767 144.386 33.6875 146.838 33.4639C149.29 33.2403 151.699 44.0428 149.911 45.7816Z" fill="#AD6359"/>
  <path d="M143.137 34.5821C142.809 35.8158 144.452 35.4958 144.452 35.4958C144.452 35.4958 142.196 36.529 142.351 37.9323C142.505 39.3357 144.475 38.8306 144.617 38.7998C144.498 38.8538 142.451 39.8561 142.751 41.2518C143.052 42.6474 144.968 41.9033 145.092 41.8532C144.995 41.938 143.75 43.1216 144.217 44.1317C145.026 45.8627 148.295 42.9288 149.838 43.0753C149.838 43.0753 149.884 45.7162 149.899 45.7933C149.899 45.7933 153.068 43.0637 153.153 40.9742C153.17 40.6702 153.082 40.3697 152.905 40.1223C152.727 39.8748 152.471 39.6953 152.178 39.6133C152.178 39.6133 153.296 38.8422 153.095 37.7396C152.991 37.1728 151.989 36.8374 151.989 36.8374C152.233 36.6478 152.42 36.3945 152.53 36.1055C152.639 35.8164 152.667 35.5027 152.609 35.1989C152.421 34.4279 151.453 34.2081 151.453 34.2081C151.453 34.2081 151.997 33.1942 151.545 32.4617C150.636 30.9851 143.839 31.9219 143.137 34.5821Z" fill="#AD6359"/>
  <path d="M151.302 34.1502C151.307 34.1502 151.312 34.1482 151.316 34.1446C151.319 34.1409 151.321 34.136 151.321 34.1309C151.321 34.1258 151.319 34.1209 151.316 34.1173C151.312 34.1137 151.307 34.1116 151.302 34.1116C148.902 33.8586 146.482 34.3398 144.362 35.4918C144.293 35.5304 144.328 35.6538 144.409 35.6268C146.623 34.8033 148.945 34.306 151.302 34.1502Z" fill="#263238"/>
  <path d="M152.019 36.8066C152.046 36.8066 152.042 36.7603 152.019 36.7564C149.369 36.5012 146.716 37.2028 144.539 38.7342C144.462 38.7882 144.454 38.9154 144.539 38.8576C146.054 37.886 149.806 36.9222 152.019 36.8066Z" fill="#263238"/>
  <path d="M144.976 42.0072C147.119 40.5307 149.521 39.8907 152.081 39.5861C152.112 39.5861 152.104 39.536 152.081 39.5321C150.786 39.3394 149.174 39.7018 147.944 40.0912C146.796 40.4311 145.757 41.0651 144.929 41.9301C144.899 41.9648 144.933 42.0381 144.976 42.0072Z" fill="#263238"/>
  <path d="M144.451 35.4841C144.042 35.7233 143.655 35.9981 143.294 36.3053C142.928 36.5909 142.645 36.9688 142.473 37.4002C142.406 37.6022 142.416 37.8216 142.5 38.0171C142.586 38.2109 142.718 38.3805 142.886 38.5105C143.068 38.6244 143.272 38.6984 143.484 38.7276C143.697 38.7568 143.913 38.7407 144.119 38.6802L145.137 38.4296L144.27 39.0194C143.88 39.2774 143.537 39.5978 143.252 39.9678C143.111 40.1312 143.006 40.3224 142.943 40.5289C142.881 40.7354 142.863 40.9528 142.889 41.1668C142.914 41.3687 143.007 41.5559 143.154 41.6965C143.301 41.8371 143.492 41.9224 143.695 41.9379C144.146 41.9612 144.594 41.8682 144.998 41.668L146.132 41.136L145.23 41.9803C144.979 42.217 144.759 42.4838 144.574 42.7745C144.388 43.0431 144.288 43.3615 144.285 43.6882C144.289 43.8351 144.335 43.9779 144.416 44.1004C144.497 44.223 144.61 44.3206 144.744 44.3822C145.062 44.475 145.401 44.475 145.719 44.3822C146.413 44.1903 147.091 43.9454 147.747 43.6497C148.083 43.5147 148.418 43.3759 148.765 43.2641C149.103 43.1199 149.469 43.0502 149.837 43.0598C149.475 43.0914 149.123 43.1922 148.8 43.3567C148.472 43.5032 148.148 43.6689 147.82 43.8309C147.173 44.1781 146.494 44.4634 145.792 44.6829C145.418 44.8056 145.017 44.8177 144.636 44.7176C144.432 44.6398 144.255 44.5037 144.127 44.3262C144 44.1486 143.927 43.9375 143.919 43.7191C143.91 43.3088 144.025 42.9055 144.25 42.5625C144.449 42.2355 144.689 41.935 144.964 41.668L145.199 42.0073C144.723 42.2508 144.191 42.3651 143.657 42.3389C143.366 42.3133 143.094 42.188 142.886 41.9842C142.681 41.7726 142.547 41.5035 142.5 41.2131C142.464 40.9419 142.487 40.6661 142.566 40.4042C142.645 40.1423 142.779 39.9003 142.959 39.6941C143.277 39.2918 143.66 38.9452 144.092 38.6686L144.243 39.0079C143.984 39.072 143.715 39.0794 143.453 39.0295C143.192 38.9795 142.944 38.8735 142.728 38.7187C142.522 38.5498 142.364 38.3306 142.269 38.0826C142.175 37.8341 142.175 37.5601 142.269 37.3115C142.478 36.8575 142.809 36.4705 143.225 36.1935C143.605 35.9113 144.017 35.6733 144.451 35.4841Z" fill="#263238"/>
  <path d="M138.344 39.0504C138.344 39.0504 142.319 29.6126 145.245 32.9744C146.116 33.9729 148.495 39.1121 147.473 39.6133C146.151 40.2532 144.775 38.2947 144.081 36.9145C144.081 36.9145 143.179 40.3149 140.611 40.3843C140.147 40.3904 139.691 40.2693 139.291 40.0341C138.891 39.7989 138.564 39.4587 138.344 39.0504Z" fill="#AD6359"/>
  <path d="M145.003 32.7122C145.391 33.0623 145.724 33.4676 145.994 33.915C146.282 34.3558 146.54 34.8156 146.765 35.2914C147.222 36.2361 147.594 37.2192 147.879 38.2291C147.954 38.4977 147.99 38.7754 147.987 39.0541C147.984 39.2147 147.946 39.3727 147.875 39.5168C147.836 39.5946 147.785 39.6661 147.725 39.7288C147.663 39.7909 147.59 39.8406 147.509 39.8753C147.225 40.0089 146.902 40.0362 146.599 39.9524C146.322 39.8698 146.061 39.7393 145.828 39.5669C145.397 39.2349 145.025 38.8321 144.729 38.3756C144.438 37.9384 144.18 37.4796 143.958 37.0031L144.294 36.9646C144.178 37.3484 144.026 37.7202 143.839 38.0749C143.656 38.4288 143.437 38.7633 143.187 39.0734C142.934 39.3815 142.636 39.6505 142.304 39.8715C141.975 40.0897 141.608 40.244 141.221 40.3264C141.585 40.1974 141.925 40.0084 142.227 39.7674C142.521 39.526 142.78 39.2458 142.998 38.9346C143.218 38.6245 143.408 38.294 143.565 37.9477C143.726 37.6041 143.855 37.2467 143.951 36.8797L144.059 36.4248L144.286 36.8412C144.525 37.2903 144.792 37.7242 145.084 38.1404C145.35 38.5447 145.678 38.905 146.056 39.2083C146.441 39.4782 146.927 39.6594 147.285 39.4782C147.644 39.297 147.555 38.7804 147.447 38.3216C147.329 37.8247 147.185 37.3344 147.016 36.8528C146.85 36.3631 146.68 35.8774 146.487 35.3993C146.135 34.4321 145.634 33.5255 145.003 32.7122Z" fill="#263238"/>
  <path d="M132.029 41.8069L135.568 53.0605C135.568 53.0605 127.522 54.8917 125.101 53.712C122.68 52.5323 116.426 44.1933 113.712 37.9785C110.998 31.7638 113.08 31.2318 118.223 35.8157C123.366 40.3997 127.476 43.6728 127.661 43.6188C127.846 43.5649 132.029 41.8069 132.029 41.8069Z" fill="#9974FF"/>
  <path d="M130.278 43.2064C130.278 43.1717 130.208 43.1872 130.216 43.2064C130.859 46.4951 131.681 49.7461 132.68 52.9449C132.68 52.9796 132.749 52.9642 132.741 52.9449C132.098 49.6562 131.276 46.4052 130.278 43.2064Z" fill="#263238"/>
  <path opacity="0.1" d="M121.212 49.9222C118.537 46.6452 115.43 41.8916 113.714 37.9708C111.513 32.9589 112.461 31.6327 115.642 33.7492L121.212 49.9222Z" fill="black"/>
  <path d="M113.366 48.6886L112.059 53.0336L107.298 54.8417L94.3939 45.7625C94.3939 45.7625 101.445 33.4255 109.14 31.1663C112.996 30.0328 115.61 31.8641 116.296 34.6785C116.466 35.3917 117.896 42.2233 116.855 45.215C116.554 46.009 116.087 46.7296 115.486 47.3286C114.884 47.9277 114.161 48.3914 113.366 48.6886Z" fill="#9974FF"/>
  <path d="M108.392 45.5889C109.153 45.9356 109.878 46.3552 110.558 46.8418C110.898 47.0924 111.222 47.3623 111.542 47.6476C111.704 47.7864 111.865 47.9175 112.031 48.0524C112.196 48.1932 112.382 48.3076 112.583 48.3917C112.602 48.3917 112.583 48.4341 112.583 48.4302C112.387 48.3821 112.196 48.3163 112.012 48.2336C111.833 48.1444 111.662 48.0386 111.503 47.9175C111.156 47.6707 110.824 47.397 110.478 47.1464C109.787 46.6336 109.093 46.1209 108.365 45.6775C108.319 45.6544 108.353 45.5734 108.392 45.5889Z" fill="#263238"/>
  <path d="M106.16 45.9088C106.833 46.0214 107.497 46.1851 108.145 46.3984C108.468 46.5099 108.784 46.6386 109.093 46.7839L109.533 47.0037C109.695 47.0847 109.841 47.1965 110.003 47.2774C110.023 47.2774 110.003 47.3198 110.003 47.3121C109.849 47.2466 109.679 47.2119 109.521 47.1541L109.039 46.9844C108.719 46.8726 108.396 46.7608 108.08 46.6452C107.44 46.41 106.8 46.1864 106.152 45.9782C106.102 45.9705 106.125 45.9011 106.16 45.9088Z" fill="#263238"/>
  <path opacity="0.1" d="M112.933 44.2278L109.128 38.6184L109.455 36.6946L116.734 39.8367V41.0665L112.933 44.2278Z" fill="black"/>
  <path opacity="0.1" d="M112.934 43.6187L109.746 38.9191L110.016 37.3037L116.122 39.9369V40.9662L112.934 43.6187Z" fill="black"/>
  <path d="M108.13 29.8977C98.5845 28.8375 90.8701 30.0057 88.8884 31.9719C87.2499 33.6027 81.9065 40.9316 79.4776 45.4963C78.7991 46.7801 88.9501 52.8214 89.5014 51.3564C90.3573 49.1126 96.5219 38.4796 96.5952 38.3023C96.7455 37.9168 106.785 35.087 109.318 34.447C114.025 33.3213 113.192 30.4606 108.13 29.8977Z" fill="#AD6359"/>
  <path d="M81.0939 63.1113C80.7525 63.0228 80.4461 62.8322 80.216 62.5648C79.9859 62.2975 79.8429 61.9662 79.8063 61.6154C79.2431 61.8182 78.6268 61.8182 78.0637 61.6154C77.0921 61.2029 77.3119 59.4988 77.3119 59.4988C76.6819 59.5818 76.0414 59.4744 75.4729 59.1904C74.5823 58.7047 74.5592 56.9505 74.5592 56.9505C73.939 56.7096 73.426 56.254 73.1135 55.6667C72.3424 54.059 73.7959 51.7651 74.7057 50.2924C75.6156 48.8197 79.575 45.508 80.2651 44.7986L89.7684 50.5276C89.7684 50.5276 87.5631 58.2806 86.2446 59.8574C85.1189 61.1836 82.4086 63.3811 81.0939 63.1113Z" fill="#AD6359"/>
  <path d="M79.9972 61.6231C81.5162 60.4935 82.6149 58.9784 83.7985 57.5249C83.8255 57.4941 83.7754 57.4517 83.7484 57.4864C82.5918 58.9437 81.1538 60.1504 79.9355 61.5576C79.9008 61.5961 79.9586 61.654 79.9972 61.6231Z" fill="#263238"/>
  <path d="M77.4537 59.5105C77.7737 59.2212 78.0538 58.8906 78.2864 58.5273C78.5563 58.1418 78.8223 57.7871 79.0806 57.4132C79.5972 56.6421 80.0984 55.8903 80.5765 55.1C80.5957 55.0653 80.5495 55.0229 80.5263 55.0614C80.0097 55.8094 79.4815 56.5534 78.9302 57.2821C78.6578 57.6445 78.3802 58.0069 78.0975 58.3693C77.811 58.6913 77.5615 59.0443 77.3534 59.4218C77.3417 59.4351 77.3357 59.4525 77.3367 59.4702C77.3378 59.4879 77.3459 59.5045 77.3592 59.5162C77.3725 59.528 77.3899 59.534 77.4076 59.5329C77.4253 59.5318 77.4419 59.5237 77.4537 59.5105Z" fill="#263238"/>
  <path d="M74.5814 56.8887C74.8668 56.6229 75.1041 56.3099 75.2831 55.9635C75.5144 55.6165 75.7419 55.2695 75.977 54.9225C76.4397 54.2324 76.9062 53.5385 77.3958 52.8638C77.4189 52.833 77.3688 52.7905 77.3457 52.8252C76.8445 53.5076 76.3356 54.1862 75.8421 54.8724C75.5992 55.2117 75.3563 55.5471 75.1173 55.8902C74.8706 56.1802 74.6774 56.5118 74.5467 56.8695C74.539 56.8887 74.566 56.9003 74.5814 56.8887Z" fill="#263238"/>
  <path d="M92.6088 46.3868L82.4424 39.8251C82.4424 39.8251 86.9492 32.1724 89.2971 30.8615C91.645 29.5507 101.087 28.9647 107.803 29.8052C114.642 30.6611 114.607 33.3945 107.907 34.9983C101.206 36.6021 96.8265 38.2483 96.7687 38.4295C96.7109 38.6107 92.6088 46.3868 92.6088 46.3868Z" fill="#9974FF"/>
  <path d="M93.3489 45.2111C93.9465 44.1393 96.8187 38.4874 96.8996 38.4489C97.0654 38.3679 99.6639 37.4542 100.435 37.1843C101.09 36.953 101.75 36.7333 102.409 36.5174C102.952 36.4672 103.496 36.4171 104.032 36.3169C104.04 36.3169 104.048 36.3136 104.054 36.3079C104.06 36.3021 104.063 36.2942 104.063 36.286C104.063 36.2779 104.06 36.27 104.054 36.2642C104.048 36.2585 104.04 36.2552 104.032 36.2552C103.656 36.2624 103.281 36.2946 102.91 36.3516C103.635 36.1164 104.36 35.8851 105.081 35.6461C105.081 35.6461 105.081 35.6191 105.081 35.6229C103.465 35.9853 96.7724 38.0788 96.7492 38.1713C96.7261 38.2638 93.3219 44.9605 93.2795 45.1108C93.2679 45.1532 93.3296 45.2419 93.3489 45.2111Z" fill="#263238"/>
  <path d="M92.9434 43.4492C92.9743 43.4684 93.0051 43.4145 92.9743 43.3952C90.2284 41.4763 87.3802 39.7079 84.4425 38.098C84.4351 38.0957 84.4271 38.0959 84.4198 38.0987C84.4125 38.1015 84.4064 38.1066 84.4024 38.1133C84.3984 38.12 84.3968 38.1278 84.3977 38.1355C84.3987 38.1432 84.4023 38.1504 84.4078 38.1558C87.1542 40.0749 90.0036 41.842 92.9434 43.4492Z" fill="#263238"/>
  <path d="M109.295 30.0405C109.295 30.0405 111.037 36.3517 113.636 37.0379C116.234 37.7241 117.325 35.0409 117.325 35.0409C117.325 35.0409 114.326 30.6188 109.295 30.0405Z" fill="#AD6359"/>
  <path d="M112.333 31.4553C112.279 31.8602 113.143 34.9675 114.882 35.5381C115.448 35.7232 116.594 32.6736 116.594 32.6736L116.732 32.4654L118.633 29.5855L115.838 25.8035L115.422 25.2869C115.422 25.2869 114.951 26.108 114.381 27.1374L114.3 27.2839C114.265 27.3388 114.232 27.3954 114.203 27.4535C114.115 27.6039 114.026 27.762 113.941 27.92C113.856 28.0781 113.81 28.1552 113.748 28.2824L113.548 28.668C113.082 29.5692 112.676 30.5004 112.333 31.4553Z" fill="#AD6359"/>
  <path d="M114.381 27.1374C114.361 28.1432 114.561 29.1411 114.968 30.0613C115.374 30.9816 115.976 31.8021 116.732 32.4654L118.633 29.5855L115.838 25.8035L115.422 25.2869C115.422 25.2869 114.951 26.1003 114.381 27.1374Z" fill="#263238"/>
  <path d="M124.792 24.2034C125.316 30.2408 121.762 31.2355 120.459 31.3473C119.275 31.4514 115.239 31.648 114.09 25.6954C112.941 19.7428 115.582 17.5993 118.273 17.2137C120.964 16.8282 124.264 18.1621 124.792 24.2034Z" fill="#AD6359"/>
  <path d="M121.894 27.257C121.747 27.52 121.536 27.7415 121.281 27.9008C121.138 27.9809 120.974 28.0158 120.81 28.0011C120.456 27.9625 120.398 27.6502 120.425 27.3688C120.437 27.2215 120.468 27.0763 120.517 26.937C120.931 27.1861 121.413 27.2981 121.894 27.257Z" fill="#263238"/>
  <path d="M121.281 27.9045C121.138 27.9845 120.974 28.0195 120.81 28.0047C120.456 27.9662 120.398 27.6539 120.425 27.3725C120.606 27.3527 120.789 27.3944 120.945 27.4909C121.1 27.5873 121.218 27.7329 121.281 27.9045Z" fill="#FF9BBC"/>
  <path d="M123.043 23.3593C122.908 23.4055 122.773 23.4287 122.638 23.4634C122.5 23.5195 122.348 23.5303 122.203 23.4942C122.16 23.4729 122.125 23.4379 122.104 23.3946C122.083 23.3513 122.077 23.3022 122.087 23.2552C122.119 23.1658 122.174 23.0866 122.246 23.0256C122.319 22.9646 122.406 22.9241 122.5 22.9082C122.686 22.8487 122.888 22.8597 123.066 22.939C123.106 22.9597 123.138 22.9911 123.16 23.0297C123.182 23.0683 123.192 23.1123 123.19 23.1566C123.187 23.2009 123.172 23.2435 123.146 23.2795C123.12 23.3154 123.085 23.3431 123.043 23.3593Z" fill="#263238"/>
  <path d="M118.863 23.6176C118.995 23.5706 119.123 23.5165 119.249 23.4556C119.394 23.4179 119.521 23.3323 119.611 23.2127C119.633 23.1703 119.64 23.1218 119.631 23.0749C119.622 23.028 119.597 22.9856 119.561 22.9544C119.482 22.9024 119.389 22.8727 119.294 22.8686C119.199 22.8646 119.105 22.8862 119.021 22.9313C118.834 23.0009 118.68 23.1386 118.59 23.3168C118.576 23.3562 118.573 23.3985 118.581 23.4393C118.59 23.4801 118.609 23.5179 118.637 23.5487C118.665 23.5794 118.701 23.6021 118.741 23.6142C118.781 23.6264 118.823 23.6275 118.863 23.6176Z" fill="#263238"/>
  <path d="M119.735 24.7742C119.735 24.7742 119.704 24.7973 119.708 24.8127C119.765 25.2214 119.765 25.6994 119.407 25.8768C119.407 25.8768 119.407 25.9038 119.407 25.8999C119.862 25.7881 119.839 25.152 119.735 24.7742Z" fill="#263238"/>
  <path d="M119.322 24.3885C118.655 24.4116 118.752 25.7378 119.369 25.7186C119.985 25.6993 119.877 24.3653 119.322 24.3885Z" fill="#263238"/>
  <path d="M119.068 24.4771C118.96 24.5581 118.856 24.7007 118.713 24.7239C118.57 24.747 118.42 24.6198 118.308 24.4964H118.285C118.285 24.7508 118.416 25.0053 118.694 25.0246C118.971 25.0439 119.106 24.801 119.152 24.5427C119.156 24.508 119.11 24.4424 119.068 24.4771Z" fill="#263238"/>
  <path d="M122.267 24.4077C122.267 24.4077 122.298 24.4077 122.298 24.4386C122.298 24.8549 122.398 25.3253 122.78 25.4371V25.4602C122.317 25.4255 122.213 24.801 122.267 24.4077Z" fill="#263238"/>
  <path d="M122.606 23.9529C123.265 23.8604 123.4 25.1827 122.791 25.2714C122.182 25.3601 122.051 24.03 122.606 23.9529Z" fill="#263238"/>
  <path d="M122.892 24.0107C123.004 24.0685 123.119 24.188 123.247 24.1842C123.374 24.1803 123.486 24.0222 123.563 23.8757C123.563 23.8757 123.563 23.8757 123.586 23.8757C123.617 24.1302 123.563 24.4001 123.324 24.4733C123.085 24.5466 122.919 24.3422 122.834 24.0878C122.819 24.0608 122.846 23.9875 122.892 24.0107Z" fill="#263238"/>
  <path d="M120.194 28.109C120.294 28.2015 120.395 28.3326 120.545 28.3403C120.699 28.3329 120.85 28.2935 120.988 28.2247C120.932 28.3077 120.854 28.3739 120.763 28.416C120.672 28.4581 120.571 28.4746 120.472 28.4637C120.387 28.4448 120.309 28.4009 120.25 28.3377C120.19 28.2745 120.15 28.1948 120.136 28.109C120.136 28.1013 120.139 28.094 120.145 28.0885C120.15 28.0831 120.158 28.0801 120.165 28.0801C120.173 28.0801 120.18 28.0831 120.186 28.0885C120.191 28.094 120.194 28.1013 120.194 28.109Z" fill="#263238"/>
  <path d="M121.908 26.3934C121.908 26.3934 122.047 27.0025 122.07 27.2917C122.07 27.3187 122.005 27.3379 121.905 27.3495C121.661 27.4182 121.404 27.4185 121.16 27.3505C120.917 27.2825 120.697 27.1488 120.524 26.964C120.501 26.9408 120.524 26.9061 120.567 26.9216C120.958 27.1425 121.409 27.2317 121.855 27.176C121.855 27.095 121.585 26.1428 121.631 26.1389C121.858 26.1397 122.083 26.1709 122.302 26.2315C122.051 24.9592 121.604 23.7371 121.376 22.4648C121.376 22.4186 121.434 22.3993 121.45 22.4378C121.969 23.7349 122.356 25.0807 122.606 26.4551C122.645 26.6016 122.028 26.4319 121.908 26.3934Z" fill="#263238"/>
  <path d="M114.607 25.9769C115.59 25.9769 115.656 23.9105 115.656 23.9105C115.656 23.9105 117.641 23.7678 118.081 20.8609C118.089 21.7217 117.845 22.566 117.379 23.2897C117.379 23.2897 120.849 22.6498 122.102 19.6118C122.102 19.6118 121.628 21.1539 121.119 21.7206C121.987 21.3812 122.714 20.7574 123.181 19.9511C123.181 19.9511 123.922 21.5973 124.427 22.0252C124.427 22.0252 123.818 15.9146 118.193 17.0133C118.193 17.0133 114.661 17.5184 113.597 20.4291C112.533 23.3399 114.607 25.9769 114.607 25.9769Z" fill="#263238"/>
  <path d="M115.29 25.9963C115.29 25.9963 114.056 24.0416 113.177 24.4542C112.298 24.8667 113.177 27.6695 114.149 28.0936C114.272 28.1566 114.407 28.1941 114.545 28.2037C114.683 28.2133 114.821 28.1948 114.952 28.1494C115.083 28.1041 115.203 28.0327 115.305 27.9396C115.408 27.8465 115.49 27.7336 115.548 27.6078L115.29 25.9963Z" fill="#AD6359"/>
  <path d="M113.443 25.2676C113.443 25.2676 113.424 25.2676 113.443 25.2946C114.134 25.6107 114.477 26.2854 114.704 26.9755C114.666 26.903 114.613 26.8395 114.548 26.7894C114.483 26.7393 114.409 26.7037 114.329 26.685C114.249 26.6664 114.166 26.6651 114.086 26.6813C114.006 26.6975 113.93 26.7308 113.864 26.7789C113.844 26.7789 113.864 26.8213 113.883 26.8174C114.009 26.7849 114.142 26.7918 114.264 26.8373C114.386 26.8828 114.491 26.9647 114.565 27.0719C114.689 27.2523 114.791 27.4464 114.87 27.6502C114.901 27.7118 115.016 27.6849 114.993 27.6116C115.047 26.694 114.407 25.4025 113.443 25.2676Z" fill="#263238"/>
  <path d="M112.864 30.5647C112.655 29.8514 111.707 31.1969 112.231 32.1068C113.002 33.4484 114.568 35.1178 114.93 35.1679C115.292 35.218 116.723 33.834 116.908 33.5178C117.093 33.2017 116.842 32.4114 116.715 32.4692C116.588 32.527 115.339 34.0344 115.173 34.0923C115.007 34.1501 113.315 32.1029 112.864 30.5647Z" fill="#455A64"/>
  <path d="M59.3929 118.635L61.6058 119.048L62.0993 121.38L62.5928 119.048L64.8057 118.635L62.6044 118.1L62.0993 115.894L61.5943 118.1L59.3929 118.635Z" fill="#9974FF"/>
  <path d="M76.1043 22.5074L78.3173 22.9161L78.8146 25.2485L79.3081 22.9161L81.521 22.5036L79.3158 21.9677L78.8146 19.7625L78.3095 21.9677L76.1043 22.5074Z" fill="#9974FF"/>
  <path d="M139.711 96.8222L141.923 97.2308L142.417 99.5633L142.91 97.2308L145.123 96.8222L142.922 96.2824L142.417 94.0811L141.912 96.2824L139.711 96.8222Z" fill="#9974FF"/>
  <path d="M119.152 71.7011L121.365 72.1097L121.859 74.4461L122.352 72.1097L124.565 71.7011L122.364 71.1613L121.859 68.96L121.353 71.1613L119.152 71.7011Z" fill="#9974FF"/>
  <path d="M26.9612 71.701L28.1987 71.9323L28.4724 73.2354L28.75 71.9323L29.9876 71.701L28.7539 71.4003L28.4724 70.1704L28.191 71.4003L26.9612 71.701Z" fill="#9974FF"/>
  <path d="M145.067 64.4568L146.305 64.6881L146.583 65.9912L146.856 64.6881L148.094 64.4568L146.864 64.1561L146.583 62.9263L146.297 64.1561L145.067 64.4568Z" fill="#9974FF"/>
  <path d="M59.9358 28.8262L61.1734 29.0575L61.4509 30.3606L61.7247 29.0575L62.9622 28.8262L61.7324 28.5255L61.4509 27.2957L61.1695 28.5255L59.9358 28.8262Z" fill="#9974FF"/>
  <path d="M34.0972 95.1567L35.3347 95.3842L35.6123 96.6873L35.8861 95.3842L37.1236 95.1567L35.8899 94.8521L35.6123 93.6223L35.327 94.8521L34.0972 95.1567Z" fill="#9974FF"/>
  <path d="M12.9357 44.1972L14.1733 44.4247L14.447 45.7278L14.7246 44.4247L15.9621 44.1972L14.7284 43.8965L14.447 42.6628L14.1656 43.8965L12.9357 44.1972Z" fill="#9974FF"/>
  <path d="M48.9212 45.7317L50.1588 45.9591L50.4363 47.2622L50.7139 45.9591L51.9515 45.7278L50.7178 45.4271L50.4363 44.1973L50.1549 45.4271L48.9212 45.7317Z" fill="#9974FF"/>
  <path d="M112.842 19.3499L114.075 19.5812L114.353 20.8843L114.631 19.5812L115.868 19.3499L114.634 19.0492L114.353 17.8193L114.072 19.0492L112.842 19.3499Z" fill="#9974FF"/>
  <path d="M129.52 39.5323L130.754 39.7636L131.031 41.0667L131.309 39.7636L132.543 39.5323L131.313 39.2316L131.031 38.0017L130.75 39.2316L129.52 39.5323Z" fill="#9974FF"/>
  <path d="M110.556 104.972L111.793 105.2L112.071 106.507L112.345 105.2L113.582 104.972L112.352 104.671L112.071 103.438L111.786 104.671L110.556 104.972Z" fill="#9974FF"/>
  <path d="M50.5475 96.957C50.6426 96.957 50.7338 96.9948 50.8011 97.062C50.8683 97.1293 50.9061 97.2205 50.9061 97.3156C50.9061 97.4107 50.8683 97.5019 50.8011 97.5691C50.7338 97.6363 50.6426 97.6741 50.5475 97.6741C50.4524 97.6741 50.3613 97.6363 50.294 97.5691C50.2268 97.5019 50.189 97.4107 50.189 97.3156C50.189 97.2205 50.2268 97.1293 50.294 97.062C50.3613 96.9948 50.4524 96.957 50.5475 96.957Z" fill="#9974FF"/>
  <path d="M51.4469 52.3164C51.542 52.3164 51.6332 52.3542 51.7004 52.4214C51.7676 52.4887 51.8054 52.5799 51.8054 52.6749C51.8054 52.77 51.7676 52.8612 51.7004 52.9285C51.6332 52.9957 51.542 53.0335 51.4469 53.0335C51.3518 53.0335 51.2606 52.9957 51.1934 52.9285C51.1261 52.8612 51.0883 52.77 51.0883 52.6749C51.0883 52.5799 51.1261 52.4887 51.1934 52.4214C51.2606 52.3542 51.3518 52.3164 51.4469 52.3164Z" fill="#9974FF"/>
  <path d="M101.118 26.0078C101.207 26.017 101.288 26.0585 101.348 26.1244C101.407 26.1902 101.44 26.2758 101.44 26.3644C101.44 26.4531 101.407 26.5386 101.348 26.6045C101.288 26.6703 101.207 26.7119 101.118 26.721C101.03 26.7119 100.949 26.6703 100.889 26.6045C100.83 26.5386 100.797 26.4531 100.797 26.3644C100.797 26.2758 100.83 26.1902 100.889 26.1244C100.949 26.0585 101.03 26.017 101.118 26.0078Z" fill="#9974FF"/>
  <path d="M119.763 64.0984C119.858 64.0984 119.95 64.1362 120.017 64.2034C120.084 64.2706 120.122 64.3618 120.122 64.4569C120.122 64.552 120.084 64.6432 120.017 64.7105C119.95 64.7777 119.858 64.8155 119.763 64.8155C119.668 64.8155 119.577 64.7777 119.51 64.7105C119.443 64.6432 119.405 64.552 119.405 64.4569C119.405 64.3618 119.443 64.2706 119.51 64.2034C119.577 64.1362 119.668 64.0984 119.763 64.0984Z" fill="#9974FF"/>
  <path d="M132.763 84.7012C132.858 84.7012 132.949 84.739 133.017 84.8062C133.084 84.8734 133.122 84.9646 133.122 85.0597C133.122 85.1548 133.084 85.246 133.017 85.3132C132.949 85.3805 132.858 85.4183 132.763 85.4183C132.668 85.4183 132.577 85.3805 132.51 85.3132C132.442 85.246 132.405 85.1548 132.405 85.0597C132.405 84.9646 132.442 84.8734 132.51 84.8062C132.577 84.739 132.668 84.7012 132.763 84.7012Z" fill="#9974FF"/>
  <path d="M145.581 80.7417C145.648 80.7417 145.713 80.7685 145.76 80.8162C145.808 80.8639 145.835 80.9287 145.835 80.9962C145.835 81.0636 145.808 81.1283 145.76 81.1761C145.713 81.2238 145.648 81.2506 145.581 81.2506C145.513 81.2506 145.448 81.2238 145.401 81.1761C145.353 81.1283 145.326 81.0636 145.326 80.9962C145.326 80.9287 145.353 80.8639 145.401 80.8162C145.448 80.7685 145.513 80.7417 145.581 80.7417Z" fill="#9974FF"/>
  <path d="M126.3 34.9136C126.368 34.9136 126.433 34.9404 126.48 34.9881C126.528 35.0358 126.555 35.1005 126.555 35.168C126.555 35.2355 126.528 35.3002 126.48 35.3479C126.433 35.3957 126.368 35.4225 126.3 35.4225C126.233 35.4225 126.168 35.3957 126.121 35.3479C126.073 35.3002 126.046 35.2355 126.046 35.168C126.046 35.1005 126.073 35.0358 126.121 34.9881C126.168 34.9404 126.233 34.9136 126.3 34.9136Z" fill="#9974FF"/>
  <path d="M87.8143 62.4561C87.8759 62.4637 87.9326 62.4936 87.9737 62.5401C88.0148 62.5866 88.0375 62.6465 88.0375 62.7086C88.0375 62.7706 88.0148 62.8306 87.9737 62.8771C87.9326 62.9236 87.8759 62.9535 87.8143 62.9611C87.7527 62.9535 87.6961 62.9236 87.6549 62.8771C87.6138 62.8306 87.5911 62.7706 87.5911 62.7086C87.5911 62.6465 87.6138 62.5866 87.6549 62.5401C87.6961 62.4936 87.7527 62.4637 87.8143 62.4561Z" fill="#9974FF"/>
  <path d="M119.975 112.768C120.043 112.768 120.107 112.794 120.155 112.842C120.203 112.89 120.229 112.955 120.229 113.022C120.229 113.09 120.203 113.154 120.155 113.202C120.107 113.25 120.043 113.276 119.975 113.276C119.908 113.276 119.843 113.25 119.795 113.202C119.747 113.154 119.721 113.09 119.721 113.022C119.721 112.955 119.747 112.89 119.795 112.842C119.843 112.794 119.908 112.768 119.975 112.768Z" fill="#9974FF"/>
  <path d="M79.8905 108.049C80.0642 108.062 80.2264 108.14 80.3449 108.268C80.4633 108.395 80.5291 108.563 80.5291 108.737C80.5291 108.911 80.4633 109.079 80.3449 109.206C80.2264 109.334 80.0642 109.412 79.8905 109.425C79.7169 109.412 79.5546 109.334 79.4362 109.206C79.3178 109.079 79.252 108.911 79.252 108.737C79.252 108.563 79.3178 108.395 79.4362 108.268C79.5546 108.14 79.7169 108.062 79.8905 108.049Z" fill="#9974FF"/>
  <path d="M35.6091 74.7004C35.7911 74.7004 35.9656 74.7727 36.0943 74.9014C36.223 75.0301 36.2953 75.2047 36.2953 75.3867C36.2953 75.5687 36.223 75.7432 36.0943 75.8719C35.9656 76.0006 35.7911 76.0729 35.6091 76.0729C35.4271 76.0729 35.2525 76.0006 35.1238 75.8719C34.9952 75.7432 34.9229 75.5687 34.9229 75.3867C34.9229 75.2047 34.9952 75.0301 35.1238 74.9014C35.2525 74.7727 35.4271 74.7004 35.6091 74.7004Z" fill="#9974FF"/>
  <path d="M71.5449 17.6575C71.7269 17.6575 71.9015 17.7298 72.0302 17.8585C72.1589 17.9872 72.2312 18.1617 72.2312 18.3437C72.2312 18.5257 72.1589 18.7003 72.0302 18.829C71.9015 18.9577 71.7269 19.03 71.5449 19.03C71.3629 19.03 71.1884 18.9577 71.0597 18.829C70.931 18.7003 70.8587 18.5257 70.8587 18.3437C70.8587 18.1617 70.931 17.9872 71.0597 17.8585C71.1884 17.7298 71.3629 17.6575 71.5449 17.6575Z" fill="#9974FF"/>
  <path d="M108.937 15.803C109.111 15.816 109.273 15.8941 109.391 16.0218C109.51 16.1494 109.576 16.317 109.576 16.4911C109.576 16.6653 109.51 16.8329 109.391 16.9605C109.273 17.0882 109.111 17.1663 108.937 17.1793C108.763 17.1663 108.601 17.0882 108.483 16.9605C108.364 16.8329 108.298 16.6653 108.298 16.4911C108.298 16.317 108.364 16.1494 108.483 16.0218C108.601 15.8941 108.763 15.816 108.937 15.803Z" fill="#9974FF"/>
  <path d="M97.8216 113.196C97.9952 113.209 98.1575 113.287 98.2759 113.414C98.3943 113.542 98.4601 113.71 98.4601 113.884C98.4601 114.058 98.3943 114.225 98.2759 114.353C98.1575 114.481 97.9952 114.559 97.8216 114.572C97.648 114.559 97.4857 114.481 97.3673 114.353C97.2488 114.225 97.183 114.058 97.183 113.884C97.183 113.71 97.2488 113.542 97.3673 113.414C97.4857 113.287 97.648 113.209 97.8216 113.196Z" fill="#9974FF"/>
</svg>
