<svg xmlns="http://www.w3.org/2000/svg" width="88" height="72" viewBox="0 0 88 72" fill="none">
  <path d="M71.4956 69.4749H32.3386C30.9833 69.4749 29.6834 68.9365 28.725 67.9781C27.7666 67.0197 27.2282 65.7198 27.2282 64.3644V7.71203C27.2282 6.35665 27.7666 5.05678 28.725 4.09838C29.6834 3.13998 30.9833 2.60156 32.3386 2.60156H71.4956C72.851 2.60156 74.1508 3.13998 75.1092 4.09838C76.0676 5.05678 76.606 6.35665 76.606 7.71203V64.3644C76.606 65.7198 76.0676 67.0197 75.1092 67.9781C74.1508 68.9365 72.851 69.4749 71.4956 69.4749Z" fill="white"/>
  <mask id="mask0_2644_111268" style="mask-type:luminance" maskUnits="userSpaceOnUse" x="27" y="2" width="50" height="68">
    <path d="M71.4962 69.4593H32.3393C30.9839 69.4593 29.684 68.9208 28.7256 67.9624C27.7672 67.004 27.2288 65.7042 27.2288 64.3488V7.6964C27.2288 6.34102 27.7672 5.04116 28.7256 4.08276C29.684 3.12436 30.9839 2.58594 32.3393 2.58594H71.4962C72.8516 2.58594 74.1514 3.12436 75.1098 4.08276C76.0682 5.04116 76.6067 6.34102 76.6067 7.6964V64.3488C76.6067 65.7042 76.0682 67.0041 75.1098 67.9624C74.1514 68.9208 72.8516 69.4593 71.4962 69.4593Z" fill="white"/>
  </mask>
  <g mask="url(#mask0_2644_111268)">
    <path d="M22.4155 65.3046C67.6816 69.2333 63.4522 67.3157 65.5516 59.306C69.2201 45.3101 71.4378 22.0016 71.4378 22.0016C71.4378 22.0016 75.7914 14.7733 77.885 15.569C79.9786 16.3647 96.0352 62.0584 96.0352 62.0584L47.141 79.8053" fill="#52379D"/>
  </g>
  <path d="M71.4956 69.4749H32.3386C30.9833 69.4749 29.6834 68.9365 28.725 67.9781C27.7666 67.0197 27.2282 65.7198 27.2282 64.3644V7.71203C27.2282 6.35665 27.7666 5.05678 28.725 4.09838C29.6834 3.13998 30.9833 2.60156 32.3386 2.60156H71.4956C72.851 2.60156 74.1508 3.13998 75.1092 4.09838C76.0676 5.05678 76.606 6.35665 76.606 7.71203V64.3644C76.606 65.7198 76.0676 67.0197 75.1092 67.9781C74.1508 68.9365 72.851 69.4749 71.4956 69.4749Z" stroke="#52379D" stroke-width="0.7" stroke-linecap="round" stroke-linejoin="round"/>
  <path d="M70.6425 62.0639H33.1926C32.6256 62.0639 32.0819 61.8387 31.681 61.4378C31.2801 61.0369 31.0549 60.4932 31.0549 59.9263V10.4736C31.0549 10.1929 31.1102 9.9149 31.2176 9.65555C31.3251 9.3962 31.4825 9.16054 31.681 8.96204C31.8795 8.76354 32.1152 8.60608 32.3745 8.49866C32.6339 8.39123 32.9119 8.33594 33.1926 8.33594H70.6425C71.2094 8.33594 71.7531 8.56115 72.154 8.96204C72.5549 9.36293 72.7801 9.90665 72.7801 10.4736V59.9263C72.7801 60.4932 72.5549 61.0369 72.154 61.4378C71.7531 61.8387 71.2094 62.0639 70.6425 62.0639Z" fill="white" stroke="#52379D" stroke-width="0.7" stroke-linecap="round" stroke-linejoin="round"/>
  <path opacity="0.44" d="M39.8853 15.4219H36.234C35.9582 15.4219 35.7347 15.6454 35.7347 15.9212V19.5725C35.7347 19.8483 35.9582 20.0718 36.234 20.0718H39.8853C40.1611 20.0718 40.3846 19.8483 40.3846 19.5725V15.9212C40.3846 15.6454 40.1611 15.4219 39.8853 15.4219Z" fill="white" stroke="#52379D" stroke-opacity="0.5" stroke-width="0.7" stroke-linecap="round" stroke-linejoin="round"/>
  <path opacity="0.44" d="M65.0075 16.0547H42.2899C42.1243 16.0547 41.99 16.1889 41.99 16.3546V19.1274C41.99 19.293 42.1243 19.4272 42.2899 19.4272H65.0075C65.1731 19.4272 65.3074 19.293 65.3074 19.1274V16.3546C65.3074 16.1889 65.1731 16.0547 65.0075 16.0547Z" fill="white" stroke="#52379D" stroke-opacity="0.5" stroke-width="0.7" stroke-linecap="round" stroke-linejoin="round"/>
  <path opacity="0.44" d="M39.8853 23.625H36.234C35.9582 23.625 35.7347 23.8485 35.7347 24.1243V27.7757C35.7347 28.0514 35.9582 28.2749 36.234 28.2749H39.8853C40.1611 28.2749 40.3846 28.0514 40.3846 27.7757V24.1243C40.3846 23.8485 40.1611 23.625 39.8853 23.625Z" fill="white" stroke="#52379D" stroke-opacity="0.5" stroke-width="0.7" stroke-linecap="round" stroke-linejoin="round"/>
  <path opacity="0.44" d="M55.0679 24.2656H42.2899C42.1243 24.2656 41.99 24.3999 41.99 24.5655V27.3383C41.99 27.5039 42.1243 27.6382 42.2899 27.6382H55.0679C55.2336 27.6382 55.3678 27.5039 55.3678 27.3383V24.5655C55.3678 24.3999 55.2336 24.2656 55.0679 24.2656Z" fill="white" stroke="#52379D" stroke-opacity="0.5" stroke-width="0.7" stroke-linecap="round" stroke-linejoin="round"/>
  <path opacity="0.44" d="M39.8853 31.8203H36.234C35.9582 31.8203 35.7347 32.0438 35.7347 32.3196V35.971C35.7347 36.2467 35.9582 36.4702 36.234 36.4702H39.8853C40.1611 36.4702 40.3846 36.2467 40.3846 35.971V32.3196C40.3846 32.0438 40.1611 31.8203 39.8853 31.8203Z" fill="white" stroke="#52379D" stroke-width="0.7" stroke-linecap="round" stroke-linejoin="round"/>
  <path opacity="0.44" d="M65.0075 32.4609H42.2899C42.1243 32.4609 41.99 32.5952 41.99 32.7608V35.5336C41.99 35.6992 42.1243 35.8335 42.2899 35.8335H65.0075C65.1731 35.8335 65.3074 35.6992 65.3074 35.5336V32.7608C65.3074 32.5952 65.1731 32.4609 65.0075 32.4609Z" fill="white" stroke="#52379D" stroke-opacity="0.5" stroke-width="0.7" stroke-linecap="round" stroke-linejoin="round"/>
  <path opacity="0.44" d="M39.8853 40.0234H36.234C35.9582 40.0234 35.7347 40.247 35.7347 40.5227V44.1741C35.7347 44.4498 35.9582 44.6734 36.234 44.6734H39.8853C40.1611 44.6734 40.3846 44.4498 40.3846 44.1741V40.5227C40.3846 40.247 40.1611 40.0234 39.8853 40.0234Z" fill="white" stroke="#52379D" stroke-width="0.7" stroke-linecap="round" stroke-linejoin="round"/>
  <path opacity="0.44" d="M60.3821 40.6641H42.2899C42.1243 40.6641 41.99 40.7983 41.99 40.9639V43.7367C41.99 43.9024 42.1243 44.0366 42.2899 44.0366H60.3821C60.5478 44.0366 60.682 43.9024 60.682 43.7367V40.9639C60.682 40.7983 60.5478 40.6641 60.3821 40.6641Z" fill="white" stroke="#52379D" stroke-opacity="0.5" stroke-width="0.7" stroke-linecap="round" stroke-linejoin="round"/>
  <path opacity="0.44" d="M39.8853 48.2266H36.234C35.9582 48.2266 35.7347 48.4501 35.7347 48.7258V52.3772C35.7347 52.653 35.9582 52.8765 36.234 52.8765H39.8853C40.1611 52.8765 40.3846 52.653 40.3846 52.3772V48.7258C40.3846 48.4501 40.1611 48.2266 39.8853 48.2266Z" fill="white" stroke="#52379D" stroke-width="0.7" stroke-linecap="round" stroke-linejoin="round"/>
  <path opacity="0.44" d="M55.7322 48.8672H42.2899C42.1243 48.8672 41.99 49.0014 41.99 49.1671V51.9399C41.99 52.1055 42.1243 52.2397 42.2899 52.2397H55.7322C55.8978 52.2397 56.0321 52.1055 56.0321 51.9399V49.1671C56.0321 49.0014 55.8978 48.8672 55.7322 48.8672Z" fill="white" stroke="#52379D" stroke-width="0.7" stroke-linecap="round" stroke-linejoin="round"/>
  <path d="M66.2788 32.7422H86.9335V66.9573C86.9335 67.6941 86.6408 68.4008 86.1197 68.9218C85.5987 69.4429 84.892 69.7356 84.1552 69.7356H69.0571C68.3203 69.7356 67.6136 69.4429 67.0926 68.9218C66.5716 68.4008 66.2788 67.6941 66.2788 66.9573V32.7422Z" fill="#52379D"/>
  <mask id="mask1_2644_111268" style="mask-type:luminance" maskUnits="userSpaceOnUse" x="66" y="32" width="21" height="38">
    <path d="M66.2789 32.7422H86.9335V66.9573C86.9335 67.6941 86.6408 68.4008 86.1198 68.9218C85.5988 69.4429 84.8921 69.7356 84.1553 69.7356H69.0572C68.3203 69.7356 67.6137 69.4429 67.0926 68.9218C66.5716 68.4008 66.2789 67.6941 66.2789 66.9573V32.7422Z" fill="white"/>
  </mask>
  <g mask="url(#mask1_2644_111268)">
    <path d="M80.082 63.1797H83.2836V30.2629H80.082V63.1797Z" fill="white" stroke="#52379D" stroke-width="0.7" stroke-linecap="round" stroke-linejoin="round"/>
    <path d="M74.3234 63.1797H77.525V30.2629H74.3234V63.1797Z" fill="white" stroke="#52379D" stroke-width="0.7" stroke-linecap="round" stroke-linejoin="round"/>
    <path d="M68.799 63.1797H72.0006V30.2629H68.799V63.1797Z" fill="white" stroke="#52379D" stroke-width="0.7" stroke-linecap="round" stroke-linejoin="round"/>
    <path d="M90.4852 61.7578H62.8634V72.6092H90.4852V61.7578Z" fill="white"/>
    <mask id="mask2_2644_111268" style="mask-type:luminance" maskUnits="userSpaceOnUse" x="62" y="61" width="29" height="12">
      <path d="M90.4848 61.7578H62.863V72.6092H90.4848V61.7578Z" fill="white"/>
    </mask>
    <g mask="url(#mask2_2644_111268)">
      <path d="M64.225 68.9889C86.5164 69.3732 86.1977 64.8252 86.9336 61.3022C87.6694 57.7791 90.0395 64.505 90.0395 64.505L83.3777 72.7682" fill="#EFF1F7"/>
    </g>
    <path d="M90.4852 61.7578H62.8634V72.6092H90.4852V61.7578Z" stroke="#52379D" stroke-width="0.7" stroke-linecap="round" stroke-linejoin="round"/>
    <path d="M65.5516 61.7578H90.7071V59.3162H65.5516V61.7578Z" fill="white" stroke="#52379D" stroke-width="0.7" stroke-linecap="round" stroke-linejoin="round"/>
  </g>
  <path d="M66.2788 32.7422H86.9335V66.9573C86.9335 67.6941 86.6408 68.4008 86.1197 68.9218C85.5987 69.4429 84.892 69.7356 84.1552 69.7356H69.0571C68.3203 69.7356 67.6136 69.4429 67.0926 68.9218C66.5716 68.4008 66.2788 67.6941 66.2788 66.9573V32.7422Z" stroke="#52379D" stroke-width="0.7" stroke-linecap="round" stroke-linejoin="round"/>
  <path d="M76.6062 18.3438C77.3481 18.3438 78.024 18.6649 78.3429 19.1691L86.9335 32.7465H66.2788L74.8694 19.1691C75.1884 18.6649 75.8642 18.3438 76.6062 18.3438Z" fill="white"/>
  <mask id="mask3_2644_111268" style="mask-type:luminance" maskUnits="userSpaceOnUse" x="66" y="18" width="21" height="15">
    <path d="M76.6062 18.3281C77.3482 18.3281 78.024 18.6493 78.343 19.1534L86.9335 32.7309H66.2789L74.8694 19.1534C75.1884 18.6493 75.8642 18.3281 76.6062 18.3281Z" fill="white"/>
  </mask>
  <g mask="url(#mask3_2644_111268)">
    <path d="M62.0738 34.8125H91.0766V30.6692L62.0738 30.6692V34.8125Z" fill="white" stroke="#52379D" stroke-width="0.7" stroke-linecap="round" stroke-linejoin="round"/>
    <path d="M77.8846 22.9692C82.8821 22.9692 86.9334 19.6567 86.9334 15.5705C86.9334 11.4844 82.8821 8.17188 77.8846 8.17188C72.8871 8.17188 68.8358 11.4844 68.8358 15.5705C68.8358 19.6567 72.8871 22.9692 77.8846 22.9692Z" fill="white" stroke="#52379D" stroke-width="0.7" stroke-linecap="round" stroke-linejoin="round"/>
  </g>
  <path d="M76.6062 18.3438C77.3481 18.3438 78.024 18.6649 78.3429 19.1691L86.9335 32.7465H66.2788L74.8694 19.1691C75.1884 18.6649 75.8642 18.3438 76.6062 18.3438Z" stroke="#52379D" stroke-width="0.7" stroke-linecap="round" stroke-linejoin="round"/>
  <path d="M34.7591 5.32812L33.2217 6.52383L34.7591 5.32812Z" fill="#52379D"/>
  <path d="M34.7591 5.32812L33.2217 6.52383" stroke="#52379D" stroke-width="0.7" stroke-linecap="round" stroke-linejoin="round"/>
  <path d="M78.8294 26.6875L76.9505 28.5665" stroke="#52379D" stroke-width="0.7" stroke-linecap="round" stroke-linejoin="round"/>
  <path d="M55.4421 65.3125C54.6437 65.784 53.7726 66.1199 52.8643 66.3063L55.4421 65.3125Z" fill="#52379D"/>
  <path d="M55.4421 65.3125C54.6437 65.784 53.7726 66.1199 52.8643 66.3063" stroke="#52379D" stroke-width="0.7" stroke-linecap="round" stroke-linejoin="round"/>
  <path d="M38.2285 57.3906L37.2033 58.1589" stroke="#52379D" stroke-width="0.7" stroke-linecap="round" stroke-linejoin="round"/>
  <path d="M71.4823 71H44.0729C43.6164 71 43.1786 70.8187 42.8558 70.4959C42.5331 70.1731 42.3517 69.7354 42.3517 69.2789V53.7752H73.2035V69.2789C73.2035 69.7354 73.0221 70.1731 72.6994 70.4959C72.3766 70.8187 71.9388 71 71.4823 71Z" fill="white" stroke="#52379D" stroke-width="0.7" stroke-linecap="round" stroke-linejoin="round"/>
  <path d="M42.3517 52.3672H73.2035V67.8708C73.2035 68.3273 73.0221 68.7651 72.6994 69.0878C72.3766 69.4106 71.9388 69.5919 71.4824 69.5919H44.0728C43.6164 69.5919 43.1786 69.4106 42.8558 69.0878C42.5331 68.7651 42.3517 68.3273 42.3517 67.8708V52.3672Z" fill="white"/>
  <mask id="mask4_2644_111268" style="mask-type:luminance" maskUnits="userSpaceOnUse" x="42" y="52" width="32" height="18">
    <path d="M42.3518 52.3594H73.2035V67.863C73.2035 68.3195 73.0222 68.7573 72.6994 69.08C72.3766 69.4028 71.9389 69.5841 71.4824 69.5841H44.0729C43.6164 69.5841 43.1787 69.4028 42.8559 69.08C42.5331 68.7573 42.3518 68.3195 42.3518 67.863V52.3594Z" fill="white"/>
  </mask>
  <g mask="url(#mask4_2644_111268)">
    <path d="M58.9058 53.0581C62.4116 54.4523 44.3575 51.4381 42.3516 56.5885C40.3457 61.7389 39.1083 49.5234 39.1083 49.5234L47.6855 50.0529" fill="#EFF1F7"/>
  </g>
  <path d="M42.3517 52.3672H73.2035V67.8708C73.2035 68.3273 73.0221 68.7651 72.6994 69.0878C72.3766 69.4106 71.9388 69.5919 71.4824 69.5919H44.0728C43.6164 69.5919 43.1786 69.4106 42.8558 69.0878C42.5331 68.7651 42.3517 68.3273 42.3517 67.8708V52.3672Z" stroke="#52379D" stroke-width="0.7" stroke-linecap="round" stroke-linejoin="round"/>
  <path d="M42.392 64.7422H46.5465C47.4304 64.7422 48.1469 65.325 48.1469 66.044V69.645L42.392 64.7422Z" fill="white" stroke="#52379D" stroke-width="0.7" stroke-linecap="round" stroke-linejoin="round"/>
  <path d="M43.8845 45.8203H71.6707C72.0772 45.8203 72.4671 45.9818 72.7545 46.2693C73.042 46.5567 73.2034 46.9466 73.2034 47.3531V53.2184H42.3517V47.3531C42.3517 47.1518 42.3914 46.9525 42.4684 46.7665C42.5454 46.5806 42.6583 46.4116 42.8007 46.2692C42.943 46.1269 43.112 46.014 43.2979 45.937C43.4839 45.86 43.6832 45.8203 43.8845 45.8203Z" fill="#52379D" stroke="#52379D" stroke-width="0.7" stroke-linecap="round" stroke-linejoin="round"/>
  <path d="M73.2035 52.3434H42.3517V46.4781C42.3517 46.0716 42.5132 45.6817 42.8007 45.3943C43.0881 45.1068 43.478 44.9453 43.8845 44.9453H71.6707C72.0772 44.9453 72.4671 45.1068 72.7545 45.3943C73.042 45.6817 73.2034 46.0716 73.2034 46.4781L73.2035 52.3434Z" fill="white"/>
  <mask id="mask5_2644_111268" style="mask-type:luminance" maskUnits="userSpaceOnUse" x="42" y="44" width="32" height="9">
    <path d="M73.2035 52.3434H42.3518V46.4781C42.3518 46.0716 42.5133 45.6817 42.8007 45.3943C43.0882 45.1068 43.478 44.9453 43.8845 44.9453H71.6707C72.0772 44.9453 72.4671 45.1068 72.7545 45.3943C73.042 45.6817 73.2035 46.0716 73.2035 46.4781L73.2035 52.3434Z" fill="white"/>
  </mask>
  <g mask="url(#mask5_2644_111268)">
    <path d="M58.6998 43.2211C52.3756 46.6027 72.4544 42.822 73.998 49.1462C75.5415 55.4704 75.2522 45.3057 75.2522 45.3057L69.561 41.4688" fill="#EFF1F7"/>
  </g>
  <path d="M73.2035 52.3434H42.3517V46.4781C42.3517 46.0716 42.5132 45.6817 42.8007 45.3943C43.0881 45.1068 43.478 44.9453 43.8845 44.9453H71.6707C72.0772 44.9453 72.4671 45.1068 72.7545 45.3943C73.042 45.6817 73.2034 46.0716 73.2034 46.4781L73.2035 52.3434Z" stroke="#52379D" stroke-width="0.7" stroke-linecap="round" stroke-linejoin="round"/>
  <path d="M49.7088 48.238C50.6303 48.238 51.3774 47.6303 51.3774 46.8807C51.3774 46.1311 50.6303 45.5234 49.7088 45.5234C48.7873 45.5234 48.0402 46.1311 48.0402 46.8807C48.0402 47.6303 48.7873 48.238 49.7088 48.238Z" fill="#52379D" stroke="#52379D" stroke-width="0.7" stroke-linecap="round" stroke-linejoin="round"/>
  <path d="M49.8139 41.4766H49.6035C49.0692 41.4766 48.636 41.9097 48.636 42.444V46.7138C48.636 47.2481 49.0692 47.6812 49.6035 47.6812H49.8139C50.3482 47.6812 50.7814 47.2481 50.7814 46.7138V42.444C50.7814 41.9097 50.3482 41.4766 49.8139 41.4766Z" fill="white"/>
  <mask id="mask6_2644_111268" style="mask-type:luminance" maskUnits="userSpaceOnUse" x="48" y="41" width="3" height="7">
    <path d="M49.8133 41.4766H49.6028C49.0685 41.4766 48.6354 41.9097 48.6354 42.444V46.7138C48.6354 47.2481 49.0685 47.6812 49.6028 47.6812H49.8133C50.3476 47.6812 50.7807 47.2481 50.7807 46.7138V42.444C50.7807 41.9097 50.3476 41.4766 49.8133 41.4766Z" fill="white"/>
  </mask>
  <g mask="url(#mask6_2644_111268)">
    <path d="M48.388 45.5234C49.0822 48.1383 52.0542 45.8993 52.0542 45.8993L51.1834 48.238L48.1465 48.6438" fill="#52379D"/>
  </g>
  <path d="M49.8139 41.4766H49.6035C49.0692 41.4766 48.636 41.9097 48.636 42.444V46.7138C48.636 47.2481 49.0692 47.6812 49.6035 47.6812H49.8139C50.3482 47.6812 50.7814 47.2481 50.7814 46.7138V42.444C50.7814 41.9097 50.3482 41.4766 49.8139 41.4766Z" stroke="#52379D" stroke-width="0.7" stroke-linecap="round" stroke-linejoin="round"/>
  <path d="M65.8465 48.238C66.768 48.238 67.5151 47.6303 67.5151 46.8807C67.5151 46.1311 66.768 45.5234 65.8465 45.5234C64.925 45.5234 64.1779 46.1311 64.1779 46.8807C64.1779 47.6303 64.925 48.238 65.8465 48.238Z" fill="#52379D" stroke="#52379D" stroke-width="0.7" stroke-linecap="round" stroke-linejoin="round"/>
  <path d="M65.9516 41.4766H65.7412C65.2069 41.4766 64.7737 41.9097 64.7737 42.444V46.7138C64.7737 47.2481 65.2069 47.6812 65.7412 47.6812H65.9516C66.4859 47.6812 66.9191 47.2481 66.9191 46.7138V42.444C66.9191 41.9097 66.4859 41.4766 65.9516 41.4766Z" fill="white"/>
  <mask id="mask7_2644_111268" style="mask-type:luminance" maskUnits="userSpaceOnUse" x="64" y="41" width="3" height="7">
    <path d="M65.9513 41.4766H65.7408C65.2065 41.4766 64.7734 41.9097 64.7734 42.444V46.7138C64.7734 47.2481 65.2065 47.6812 65.7408 47.6812H65.9513C66.4856 47.6812 66.9187 47.2481 66.9187 46.7138V42.444C66.9187 41.9097 66.4856 41.4766 65.9513 41.4766Z" fill="white"/>
  </mask>
  <g mask="url(#mask7_2644_111268)">
    <path d="M64.0152 44.9531C65.8459 48.2464 68.2313 45.5318 68.2313 45.5318C68.2313 45.5318 67.3015 49.6607 66.9186 49.5256C66.5357 49.3905 63.007 48.2464 63.007 48.2464" fill="#52379D"/>
  </g>
  <path d="M65.9516 41.4766H65.7412C65.2069 41.4766 64.7737 41.9097 64.7737 42.444V46.7138C64.7737 47.2481 65.2069 47.6812 65.7412 47.6812H65.9516C66.4859 47.6812 66.9191 47.2481 66.9191 46.7138V42.444C66.9191 41.9097 66.4859 41.4766 65.9516 41.4766Z" stroke="#52379D" stroke-width="0.7" stroke-linecap="round" stroke-linejoin="round"/>
  <path d="M65.0152 49.6562H50.5398C50.188 49.6562 49.9028 49.9414 49.9028 50.2932C49.9028 50.645 50.188 50.9302 50.5398 50.9302H65.0152C65.367 50.9302 65.6522 50.645 65.6522 50.2932C65.6522 49.9414 65.367 49.6562 65.0152 49.6562Z" fill="white" stroke="#52379D" stroke-width="0.7" stroke-linecap="round" stroke-linejoin="round"/>
  <path d="M68.1962 63.0469L67.6505 63.8746" stroke="#52379D" stroke-width="0.7" stroke-linecap="round" stroke-linejoin="round"/>
  <path d="M49.6439 58.25C49.0963 58.8497 48.4809 59.3839 47.8103 59.842" stroke="#52379D" stroke-width="0.7" stroke-linecap="round" stroke-linejoin="round"/>
  <path d="M59.6698 46.9688L59.1197 47.381" stroke="#52379D" stroke-width="0.7" stroke-linecap="round" stroke-linejoin="round"/>
  <path d="M10.706 57.25C2.23012 66.473 8.70809 73.0323 31.1569 67.9767L10.706 57.25Z" fill="white"/>
  <path d="M10.706 57.25C2.23012 66.473 8.70809 73.0323 31.1569 67.9767" stroke="#52379D" stroke-width="0.7" stroke-linecap="round" stroke-linejoin="round"/>
  <path d="M5.28634 59.1734C-1.07857 67.2832 37.7858 72.7701 41.0515 66.0462C43.6873 60.6194 45.7116 28.1137 44.5404 27.1893C42.1175 25.2768 14.9817 19.2458 9.54724 22.6761C7.82393 23.7639 13.6908 48.465 5.28634 59.1734Z" fill="white"/>
  <mask id="mask8_2644_111268" style="mask-type:luminance" maskUnits="userSpaceOnUse" x="4" y="21" width="41" height="49">
    <path d="M5.28636 59.1578C-1.07855 67.2675 37.7858 72.7545 41.0515 66.0306C43.6873 60.6038 45.7116 28.0981 44.5404 27.1736C42.1175 25.2612 14.9817 19.2302 9.54726 22.6605C7.82394 23.7483 13.6908 48.4494 5.28636 59.1578Z" fill="white"/>
  </mask>
  <g mask="url(#mask8_2644_111268)">
    <path d="M10.5265 31.4144C15.9023 29.5742 13.6208 35.3139 16.4063 40.2212C21.2365 42.9566 31.1158 45.3898 36.3993 42.8468C37.8578 42.1448 38.3256 35.8659 39.5213 39.5049C41.1083 47.1814 43.8435 58.7446 45.1141 67.7753C45.3072 68.0507 44.2613 67.8941 42.4982 68.3578C15.0697 73.8768 -14.4675 74.9307 6.8629 47.7059C7.07584 46.7654 10.5025 31.5175 10.5265 31.4144Z" fill="#EFF1F7"/>
    <path d="M37.2209 24.3048C39.9622 34.0765 22.3551 31.6418 20.3751 25.2317C17.6334 15.4606 35.2405 17.8954 37.2209 24.3048Z" fill="white" stroke="#52379D" stroke-width="0.7" stroke-linecap="round" stroke-linejoin="round"/>
    <path d="M35.6313 24.1019C38.02 30.6277 24.9677 28.7476 22.5065 24.8956C17.3443 17.2458 34.1583 19.396 35.6313 24.1019Z" fill="white" stroke="#52379D" stroke-width="0.7" stroke-linecap="round" stroke-linejoin="round"/>
    <path d="M19.702 36.0938V47.228L37.6016 40.8739L19.702 36.0938Z" fill="white"/>
    <mask id="mask9_2644_111268" style="mask-type:luminance" maskUnits="userSpaceOnUse" x="19" y="36" width="19" height="12">
      <path d="M19.7023 36.0859V47.2202L37.6019 40.866L19.7023 36.0859Z" fill="white"/>
    </mask>
    <g mask="url(#mask9_2644_111268)">
      <path d="M22.2418 32.1484H17.3436V50.5509H22.2418V32.1484Z" fill="white" stroke="#52379D" stroke-width="0.7" stroke-linecap="round" stroke-linejoin="round"/>
    </g>
    <path d="M19.702 36.0938V47.228L37.6016 40.8739L19.702 36.0938Z" stroke="#52379D" stroke-width="0.7" stroke-linecap="round" stroke-linejoin="round"/>
  </g>
  <path d="M5.28634 59.1734C-1.07857 67.2832 37.7858 72.7701 41.0515 66.0462C43.6873 60.6194 45.7116 28.1137 44.5404 27.1893C42.1175 25.2768 14.9817 19.2458 9.54724 22.6761C7.82393 23.7639 13.6908 48.465 5.28634 59.1734Z" stroke="#52379D" stroke-width="0.7" stroke-linecap="round" stroke-linejoin="round"/>
  <path d="M12.7011 29.8221C13.8672 35.2799 14.4052 42.3609 13.2559 45.3996C29.2342 46.0194 26.0378 45.6764 32.4589 53.4312C32.4589 53.4312 8.70463 60.7194 3.02583 51.7954C1.0414 48.677 -3.12481 21.6328 12.5223 21.7976" fill="white"/>
  <mask id="mask10_2644_111268" style="mask-type:luminance" maskUnits="userSpaceOnUse" x="1" y="21" width="32" height="36">
    <path d="M12.7011 29.8299C13.8672 35.2877 14.4052 42.3687 13.2559 45.4075C29.2342 46.0272 26.0378 45.6843 32.4589 53.439C32.4589 53.439 8.70463 60.7272 3.02583 51.8032C1.0414 48.6849 -3.12481 21.6406 12.5223 21.8054" fill="white"/>
  </mask>
  <g mask="url(#mask10_2644_111268)">
    <path d="M35.6322 54.9835C29.5765 55.0056 20.9535 52.0093 20.73 47.2812C32.4642 49.3586 33.6726 48.2646 35.6322 54.9835Z" fill="#52379D"/>
    <path d="M8.07698 53.2493C7.70224 61.0293 -3.81646 60.6737 -4.13116 53.2489C-3.75644 45.4694 7.76227 45.825 8.07698 53.2493Z" fill="#52379D" stroke="#52379D" stroke-width="0.7" stroke-linecap="round" stroke-linejoin="round"/>
  </g>
  <path d="M12.7011 29.8221C13.8672 35.2799 14.4052 42.3609 13.2559 45.3996C29.2342 46.0194 26.0378 45.6764 32.4589 53.4312C32.4589 53.4312 8.70463 60.7194 3.02583 51.7954C1.0414 48.677 -3.12481 21.6328 12.5223 21.7976" stroke="#52379D" stroke-width="0.7" stroke-linecap="round" stroke-linejoin="round"/>
  <path d="M19.7364 42.7597C19.2529 41.2754 12.9614 41.6988 13.256 45.4005C16.0976 46.1338 18.5104 45.2941 19.7364 42.7597Z" fill="white" stroke="#52379D" stroke-width="0.7" stroke-linecap="round" stroke-linejoin="round"/>
  <path d="M22.696 42.9639C18.6496 40.8878 18.7486 42.0112 17.4344 45.6709C20.2774 45.9327 23.0501 46.718 22.696 42.9639Z" fill="white" stroke="#52379D" stroke-width="0.7" stroke-linecap="round" stroke-linejoin="round"/>
  <path d="M41.0656 36.1329C39.3064 40.601 37.5038 45.0517 37.3305 44.9824C36.9838 44.844 21.8287 42.0141 21.8287 42.0141C20.1829 44.6763 19.6086 55.0826 20.5403 56.1121C23.5206 59.4053 43.0733 58.1816 44.7929 56.1121C50.9184 48.7403 54.2848 28.6101 44.0686 26.8984" fill="white"/>
  <mask id="mask11_2644_111268" style="mask-type:luminance" maskUnits="userSpaceOnUse" x="20" y="26" width="31" height="33">
    <path d="M41.0652 36.1486C39.306 40.6166 37.5034 45.0673 37.3301 44.9981C36.9834 44.8596 21.8283 42.0297 21.8283 42.0297C20.1826 44.6919 19.6082 55.0983 20.5399 56.1277C23.5202 59.4209 43.0729 58.1973 44.7925 56.1277C50.918 48.7559 54.2845 28.6257 44.0682 26.9141" fill="white"/>
  </mask>
  <g mask="url(#mask11_2644_111268)">
    <path d="M49.7808 54.8979C49.6571 60.0313 38.556 60.096 38.2642 54.8974C38.3879 49.7644 49.489 49.6997 49.7808 54.8979Z" fill="#52379D" stroke="#52379D" stroke-width="0.7" stroke-linecap="round" stroke-linejoin="round"/>
  </g>
  <path d="M41.0656 36.1329C39.3064 40.601 37.5038 45.0517 37.3305 44.9824C36.9838 44.844 21.8287 42.0141 21.8287 42.0141C20.1829 44.6763 19.6086 55.0826 20.5403 56.1121C23.5206 59.4053 43.0733 58.1816 44.7929 56.1121C50.9184 48.7403 54.2848 28.6101 44.0686 26.8984" stroke="#52379D" stroke-width="0.7" stroke-linecap="round" stroke-linejoin="round"/>
  <path d="M34.1696 24.7711L33.1941 11.3984C20.7982 13.3596 25.7424 15.3442 24.1555 22.9645" fill="white"/>
  <mask id="mask12_2644_111268" style="mask-type:luminance" maskUnits="userSpaceOnUse" x="24" y="11" width="11" height="14">
    <path d="M34.1696 24.7789L33.1941 11.4062C20.7982 13.3674 25.7424 15.352 24.1555 22.9723" fill="white"/>
  </mask>
  <g mask="url(#mask12_2644_111268)">
    <path d="M30.3226 19.2081C29.9929 24.2644 34.9953 23.2603 35.0263 22.6142C39.6304 10.5978 32.0905 13.2679 27.8079 13.8388" fill="#EFF1F7"/>
  </g>
  <path d="M34.1696 24.7711L33.1941 11.3984C20.7982 13.3596 25.7424 15.3442 24.1555 22.9645" stroke="#52379D" stroke-width="0.7" stroke-linecap="round" stroke-linejoin="round"/>
  <path d="M12.8356 45.8766C12.883 45.9453 12.9173 46.0222 12.9368 46.1034C12.947 46.1567 12.9385 46.1921 12.9169 46.2149C12.8946 46.2372 12.8597 46.2474 12.8059 46.2398C12.7735 46.2347 12.7416 46.2263 12.7109 46.2145C12.664 46.1967 12.6185 46.1752 12.575 46.1503L12.5531 46.1378C12.5522 46.1372 12.5514 46.1365 12.5507 46.1357C12.55 46.1348 12.5496 46.1339 12.5493 46.1328C12.549 46.1318 12.5489 46.1307 12.5491 46.1297C12.5492 46.1286 12.5495 46.1276 12.5501 46.1266C12.5581 46.1125 12.5678 46.1 12.5766 46.0866L12.6057 46.0491C12.6251 46.0241 12.6465 46.001 12.6679 45.9779C12.6899 45.9554 12.712 45.9329 12.736 45.9122L12.772 45.8813C12.7849 45.8719 12.797 45.8616 12.8107 45.8529C12.8116 45.8523 12.8127 45.8519 12.8138 45.8517C12.8149 45.8515 12.816 45.8515 12.8171 45.8518C12.8182 45.852 12.8192 45.8525 12.8201 45.8531C12.8211 45.8537 12.8218 45.8546 12.8224 45.8555L12.8225 45.8556L12.8356 45.8766Z" fill="#52379D"/>
  <path d="M37.5956 44.9488C37.6308 44.978 37.6636 45.0098 37.6938 45.0441C37.7217 45.0756 37.7481 45.1084 37.7728 45.1425C37.8186 45.2067 37.8589 45.2746 37.8933 45.3455C37.9578 45.4795 38.0025 45.6223 38.0258 45.7692C38.0499 45.916 38.0528 46.0655 38.0344 46.2131C38.0243 46.2913 38.0078 46.3685 37.9849 46.4439C37.9724 46.4841 37.958 46.5236 37.9416 46.5623C37.924 46.6044 37.9032 46.645 37.8794 46.6838L37.873 46.6942C37.8714 46.6968 37.8691 46.6988 37.8664 46.7001C37.8636 46.7013 37.8606 46.7017 37.8576 46.7012C37.8546 46.7007 37.8518 46.6992 37.8497 46.6971C37.8475 46.695 37.846 46.6923 37.8454 46.6894L37.8017 46.4738L37.7615 46.2577C37.7351 46.1136 37.7117 45.969 37.6866 45.8246C37.6643 45.6798 37.6405 45.5353 37.6196 45.3902L37.5889 45.1726L37.5617 44.9544C37.5614 44.9514 37.5619 44.9484 37.5633 44.9457C37.5646 44.943 37.5668 44.9408 37.5694 44.9394C37.5721 44.9379 37.5751 44.9373 37.5781 44.9376C37.5811 44.9379 37.5839 44.939 37.5862 44.9409L37.5956 44.9488Z" fill="#52379D"/>
  <path d="M23.532 59.3946C24.014 59.6555 24.4716 59.9203 24.9366 60.1663C25.4001 60.4138 25.8668 60.6453 26.3407 60.8614C26.8146 61.0774 27.2967 61.2782 27.787 61.4639C28.2779 61.653 28.7784 61.8238 29.2919 62.015L29.2956 62.0164C29.2995 62.0179 29.3028 62.0207 29.3047 62.0245C29.3066 62.0282 29.3072 62.0324 29.3061 62.0365C29.3051 62.0405 29.3026 62.0441 29.2991 62.0464C29.2957 62.0487 29.2914 62.0497 29.2873 62.0491L28.8888 61.9921L28.4926 61.9203L28.0998 61.8313L27.7106 61.7278C26.6743 61.4355 25.6887 60.9871 24.7874 60.398L24.4536 60.1725L24.1285 59.9349L23.814 59.6834L23.5093 59.4204C23.5061 59.4177 23.5041 59.4139 23.5036 59.4097C23.503 59.4056 23.504 59.4014 23.5064 59.398C23.5088 59.3945 23.5123 59.3921 23.5164 59.3911C23.5205 59.3901 23.5248 59.3907 23.5284 59.3927L23.532 59.3946Z" fill="#52379D"/>
  <path d="M27.0188 25.2482C27.1012 25.1987 27.1945 25.17 27.2905 25.1645C27.3516 25.1611 27.4119 25.179 27.4614 25.215C27.5095 25.2529 27.5433 25.306 27.5573 25.3656C27.5788 25.4591 27.5775 25.5564 27.5534 25.6492L27.5491 25.6693C27.5488 25.6708 27.5482 25.6721 27.5474 25.6733C27.5465 25.6745 27.5455 25.6756 27.5443 25.6763C27.543 25.6771 27.5417 25.6777 27.5402 25.6779C27.5388 25.6782 27.5373 25.6782 27.5359 25.6779C27.5348 25.6776 27.5338 25.6772 27.5328 25.6767C27.5082 25.6631 27.4849 25.6477 27.461 25.6333L27.3913 25.587C27.345 25.5558 27.3006 25.5222 27.2552 25.4899C27.2115 25.4555 27.1668 25.4222 27.1239 25.3865L27.0599 25.3326C27.0394 25.3136 27.0181 25.2955 26.9982 25.2757C26.9971 25.2747 26.9963 25.2735 26.9957 25.2721C26.9952 25.2708 26.9949 25.2693 26.9949 25.2679C26.9949 25.2664 26.9952 25.265 26.9957 25.2636C26.9963 25.2623 26.9971 25.261 26.9981 25.26C26.9989 25.2593 26.9997 25.2586 27.0006 25.2581L27.0188 25.2482Z" fill="#52379D"/>
  <path d="M16.5846 43.5795C16.5905 43.706 16.5775 43.777 16.5587 43.831C16.5535 43.8517 16.5436 43.8708 16.5297 43.887C16.5158 43.9032 16.4984 43.9159 16.4788 43.9241C16.4581 43.9293 16.4365 43.9297 16.4156 43.9252C16.3947 43.9207 16.3751 43.9116 16.3584 43.8984C16.3301 43.8798 16.304 43.8582 16.2805 43.8338C16.2452 43.7972 16.2131 43.7578 16.1845 43.7158L16.1708 43.6954C16.1695 43.6935 16.169 43.6912 16.1694 43.689C16.1699 43.6867 16.1712 43.6847 16.1731 43.6835L16.1734 43.6832C16.1889 43.6739 16.205 43.6666 16.2208 43.6583L16.2692 43.6367C16.3015 43.6224 16.3348 43.6106 16.368 43.5988C16.4014 43.5878 16.4349 43.5769 16.4693 43.5685L16.5208 43.556C16.5384 43.553 16.5556 43.5489 16.5735 43.5469C16.5747 43.5468 16.5759 43.5469 16.577 43.5472C16.5782 43.5476 16.5792 43.5481 16.5801 43.5488C16.5811 43.5496 16.5818 43.5505 16.5824 43.5515C16.583 43.5526 16.5833 43.5537 16.5835 43.5549L16.5835 43.5554L16.5846 43.5795Z" fill="#52379D"/>
  <path d="M33.1143 13.8881C42.7211 2.80008 37.3928 0.155479 30.3893 1.21507C23.3858 2.27467 15.6086 7.04849 24.1309 13.9078L27.5852 13.5894L28.4003 10.1546" fill="#52379D"/>
  <mask id="mask13_2644_111268" style="mask-type:luminance" maskUnits="userSpaceOnUse" x="20" y="1" width="19" height="13">
    <path d="M33.1143 13.8881C42.7211 2.80008 37.3928 0.155479 30.3893 1.21507C23.3858 2.27467 15.6086 7.04849 24.1309 13.9078L27.5852 13.5894L28.4003 10.1546" fill="white"/>
  </mask>
  <g mask="url(#mask13_2644_111268)">
    <path d="M33.7451 4.83073C33.9756 4.0941 36.0748 5.16534 36.037 9.58305C35.9992 14.0008 34.0644 11.3376 34.0644 11.3376" fill="#52379D"/>
  </g>
  <path d="M33.1143 13.8881C42.7211 2.80008 37.3928 0.155479 30.3893 1.21507C23.3858 2.27467 15.6086 7.04849 24.1309 13.9078L27.5852 13.5894L28.4003 10.1546" stroke="#52379D" stroke-width="0.7" stroke-linecap="round" stroke-linejoin="round"/>
  <path d="M33.029 3.63281C36.7294 7.535 34.8159 9.38293 37.1266 15.1491C38.9738 19.7585 29.6079 22.5926 26.9395 15.1236C24.2711 7.65451 28.4339 4.0563 28.4339 4.0563" fill="white"/>
  <mask id="mask14_2644_111268" style="mask-type:luminance" maskUnits="userSpaceOnUse" x="26" y="3" width="12" height="17">
    <path d="M33.0281 3.63281C36.7286 7.535 34.815 9.38293 37.1258 15.1491C38.973 19.7585 29.6071 22.5926 26.9387 15.1236C24.2702 7.65451 28.433 4.0563 28.433 4.0563" fill="white"/>
  </mask>
  <g mask="url(#mask14_2644_111268)">
    <path d="M27.6931 12.1498C32.129 11.4977 33.3212 3.51562 33.3212 3.51562L29.9034 4.097L27.5639 7.94367" fill="#EFF1F7"/>
  </g>
  <path d="M33.029 3.63281C36.7294 7.535 34.8159 9.38293 37.1266 15.1491C38.9738 19.7585 29.6079 22.5926 26.9395 15.1236C24.2711 7.65451 28.4339 4.0563 28.4339 4.0563" stroke="#52379D" stroke-width="0.7" stroke-linecap="round" stroke-linejoin="round"/>
  <path d="M34.8734 9.26021C35.2919 11.6648 33.4189 11.9094 32.9024 9.69285C32.4839 7.28831 34.3569 7.04377 34.8734 9.26021Z" fill="white"/>
  <mask id="mask15_2644_111268" style="mask-type:luminance" maskUnits="userSpaceOnUse" x="32" y="7" width="3" height="5">
    <path d="M34.8725 9.26021C35.291 11.6648 33.418 11.9094 32.9015 9.69285C32.483 7.28831 34.356 7.04377 34.8725 9.26021Z" fill="white"/>
  </mask>
  <g mask="url(#mask15_2644_111268)">
    <path d="M35.0941 9.36146C35.2516 10.5243 34.3124 10.7503 34.0625 9.48471C33.905 8.32192 34.8442 8.096 35.0941 9.36146Z" fill="#52379D"/>
  </g>
  <path d="M35.373 9.04688C36.6227 10.1622 37.5544 10.3023 37.6331 10.8049C37.7118 11.3075 36.9375 12.1725 35.7159 12.2642" fill="white"/>
  <path d="M35.373 9.04688C36.6227 10.1622 37.5544 10.3023 37.6331 10.8049C37.7118 11.3075 36.9375 12.1725 35.7159 12.2642" stroke="#52379D" stroke-width="0.7" stroke-linecap="round" stroke-linejoin="round"/>
  <path opacity="0.27" d="M32.7283 13.5582C32.2799 14.2309 31.1966 14.3932 30.2783 13.9104C29.3282 13.4109 28.9075 12.4111 29.3721 11.6884C29.8403 10.9602 31.0038 10.8269 31.9375 11.3778C32.8394 11.9099 33.18 12.8808 32.7283 13.5582Z" fill="#EFF1F7"/>
  <path d="M33.7998 6.07766C31.7886 6.32164 31.4826 7.21079 32.7499 7.13906C34.0172 7.06733 35.1139 5.91825 33.7998 6.07766Z" fill="#52379D"/>
  <path d="M33.3749 13.5938C34.1455 14.6636 35.1851 14.2795 35.1851 14.2795" stroke="#52379D" stroke-width="0.7" stroke-linecap="round" stroke-linejoin="round"/>
  <path d="M33.1792 2.35938C33.1866 10.4787 24.1309 13.9134 24.1309 13.9134L21.987 10.9381L26.4613 4.01856L33.1792 2.35938Z" fill="#52379D"/>
  <mask id="mask16_2644_111268" style="mask-type:luminance" maskUnits="userSpaceOnUse" x="21" y="2" width="13" height="12">
    <path d="M33.1795 2.34375C33.1869 10.463 24.1312 13.8977 24.1312 13.8977L21.9874 10.9225L26.4617 4.00294L33.1795 2.34375Z" fill="white"/>
  </mask>
  <g mask="url(#mask16_2644_111268)">
    <path d="M24.0024 11.8643C26.1967 9.91497 28.7815 10.6952 28.9218 11.1831C29.0621 11.671 26.5336 12.0372 26.5336 12.0372" fill="#52379D"/>
  </g>
  <path d="M33.1792 2.35938C33.1866 10.4787 24.1309 13.9134 24.1309 13.9134L21.987 10.9381L26.4613 4.01856L33.1792 2.35938Z" stroke="#52379D" stroke-width="0.7" stroke-linecap="round" stroke-linejoin="round"/>
  <path d="M28.5509 11.6512C21.4528 8.99976 22.1223 17.4567 28.2101 15.9661L28.5509 11.6512Z" fill="white"/>
  <path d="M28.5509 11.6512C21.4528 8.99976 22.1223 17.4567 28.2101 15.9661" stroke="#52379D" stroke-width="0.7" stroke-linecap="round" stroke-linejoin="round"/>
  <path d="M26.0752 12.3047C25.5146 12.313 25.2853 13.5923 26.4726 14.0252" stroke="#52379D" stroke-width="0.7" stroke-linecap="round" stroke-linejoin="round"/>
  <path d="M29.9636 3.3125C30.3003 5.59017 25.3924 6.65177 25.3924 6.65177L29.9636 3.3125Z" fill="#52379D"/>
  <path d="M8.56986 30.706C8.55392 30.7883 8.53448 30.8678 8.51153 30.9443C8.49054 31.0221 8.46648 31.0976 8.44176 31.1722C8.4174 31.2471 8.39212 31.321 8.36481 31.3935C8.35248 31.4305 8.33835 31.4663 8.32476 31.5024C8.31103 31.5385 8.29787 31.5748 8.28287 31.61C8.1699 31.8956 8.04783 32.1726 7.91679 32.4454C7.78588 32.7183 7.64688 32.9873 7.4954 33.2545C7.47749 33.2883 7.45719 33.3212 7.43794 33.3546C7.41848 33.3879 7.3992 33.4213 7.37821 33.4542C7.33903 33.5209 7.29734 33.587 7.25438 33.653C7.21187 33.7191 7.16831 33.7852 7.12097 33.8504C7.07578 33.9164 7.02629 33.9814 6.97249 34.0455L6.96818 34.0507C6.96572 34.0536 6.96234 34.0556 6.95859 34.0563C6.95485 34.057 6.95097 34.0564 6.94762 34.0546C6.94427 34.0528 6.94165 34.0498 6.94021 34.0463C6.93877 34.0428 6.93859 34.0389 6.93971 34.0352L7.00759 33.8125L7.07944 33.591L7.15684 33.3713L7.23821 33.153C7.34957 32.863 7.47403 32.578 7.6068 32.2971C7.74208 32.0174 7.8859 31.7418 8.04172 31.473L8.16059 31.2726L8.28304 31.0745L8.41044 30.8795L8.54123 30.6869C8.54337 30.6838 8.54653 30.6815 8.55018 30.6804C8.55382 30.6793 8.55773 30.6795 8.56124 30.681C8.56476 30.6824 8.56766 30.685 8.56946 30.6884C8.57126 30.6917 8.57186 30.6956 8.57114 30.6993L8.56986 30.706Z" fill="#52379D"/>
</svg>
