
<svg xmlns="http://www.w3.org/2000/svg" width="75" height="73" viewBox="0 0 75 73" fill="none">
  <path fill-rule="evenodd" clip-rule="evenodd" d="M27.5092 68.1302C28.824 69.4659 30.3948 70.5229 32.1272 71.238C33.8596 71.9531 35.7184 72.311 37.5924 72.2916C39.4621 72.3181 41.3173 71.9632 43.0449 71.2476C44.7724 70.532 46.3355 69.4712 47.6387 68.1302C48.3176 67.4482 48.8218 66.6121 49.1079 65.6933C49.3941 64.7745 49.4537 63.8004 49.2821 62.8535C48.5984 59.1132 47.3291 52.3266 46.196 45.9931C44.6537 37.6991 50.7253 29.7702 60.0505 27.8689C67.117 26.4515 72.4984 21.4458 73.7326 15.2019C73.869 14.4788 74.007 13.8151 74.1097 13.2416C74.1593 12.9732 74.1348 12.6969 74.0383 12.4416C73.9418 12.1862 73.7771 11.9618 73.5625 11.7932C73.3329 11.6117 73.0665 11.4828 72.7817 11.4153C72.497 11.3477 72.2009 11.3434 71.9143 11.4024C69.8601 11.8543 66.9779 12.4593 64.6107 12.9695C63.3184 13.2084 62.095 13.7295 61.0279 14.4966C59.9608 15.2636 59.0758 16.2572 58.4377 17.4061C58.1128 18.0037 57.6323 18.5019 57.0463 18.8473C56.4603 19.1926 55.791 19.3718 55.1108 19.3664C54.4265 19.4019 53.745 19.2598 53.1321 18.9532C52.5192 18.6466 51.996 18.1861 51.6139 17.6172C51.4759 17.3764 51.3058 17.1342 51.2031 16.9247C50.8045 16.3113 50.5794 15.6015 50.5515 14.8705C50.4488 13.3331 50.3124 10.4332 50.2081 8.47841C50.1489 7.06068 50.4434 5.65038 51.065 4.37484C51.1716 4.18102 51.2633 3.9799 51.3395 3.77222C51.5323 3.38201 51.5833 2.9368 51.4831 2.51323C51.3829 2.08966 51.1378 1.71409 50.7906 1.45163C50.7906 1.41958 50.7569 1.39216 50.7232 1.36176C49.6167 0.484958 48.2481 0.00586434 46.8363 5.34043e-05C45.4245 -0.00575753 44.0518 0.462802 42.9381 1.33046C42.4854 1.67156 42.1703 2.16375 42.0507 2.71785C41.931 3.27194 42.0149 3.85085 42.2866 4.34836C42.2959 4.35506 42.3032 4.36333 42.3091 4.37324C42.3149 4.38314 42.319 4.39392 42.3203 4.40533C42.9638 5.57042 43.3058 6.87783 43.3153 8.2088C43.349 9.83654 43.349 12.1581 43.349 13.8787C43.3361 14.6317 43.1503 15.3716 42.8057 16.0412C42.4612 16.7109 41.9673 17.2925 41.3622 17.7407C40.258 18.5463 38.9272 18.9825 37.5603 18.9877C36.1935 18.9929 34.8599 18.5669 33.7496 17.7696C33.6437 17.7096 33.5747 17.6193 33.472 17.5602C33.0734 17.2693 32.7444 16.8938 32.5075 16.4609C32.2706 16.028 32.1316 15.5476 32.1015 15.055C32.0325 13.3057 31.8944 10.4413 31.8287 8.48162C31.7752 7.10472 32.0945 5.73931 32.753 4.5289C32.8221 4.40812 32.891 4.31741 32.9601 4.19991C33.2049 3.7561 33.284 3.24024 33.1831 2.74352C33.0823 2.2468 32.8081 1.80174 32.4096 1.48854C31.3471 0.633433 30.033 0.151932 28.6695 0.118811C27.3061 0.085691 25.9696 0.503078 24.8669 1.30559C24.8669 1.33517 24.8332 1.33533 24.7963 1.36737C24.42 1.62721 24.1482 2.01158 24.0291 2.45305C23.9101 2.89452 23.9517 3.3641 24.1463 3.77784C24.318 4.20018 24.5571 4.65301 24.7305 5.07535C25.1458 5.9634 25.3668 6.93001 25.3788 7.9103V13.2191C25.3702 14.7301 24.8781 16.1983 23.9746 17.4093C23.5095 17.99 22.9142 18.4534 22.2373 18.7622C21.5605 19.071 20.8206 19.2168 20.0772 19.1875C19.3339 19.1582 18.6076 18.9549 17.9572 18.5937C17.3068 18.2325 16.751 17.7231 16.3331 17.1076C15.6405 16.0011 14.7243 15.052 13.6434 14.32C12.5626 13.5881 11.3404 13.0896 10.0558 12.8572C7.79293 12.4036 5.05044 11.8601 3.06034 11.4385C2.77215 11.3928 2.47797 11.4062 2.19533 11.4787C1.91269 11.5511 1.6476 11.681 1.41698 11.8598C1.20033 12.0254 1.03633 12.2503 0.945162 12.5074C0.853992 12.7644 0.839576 13.0422 0.903436 13.3074C1.0045 13.7905 1.10887 14.3628 1.24527 14.9676C2.58378 21.0603 7.69406 25.9741 14.4836 27.6634C14.8237 27.7546 15.1335 27.8451 15.477 27.9355C24.5302 30.1975 30.2215 38.0076 28.8156 46.1825C27.7531 52.4823 26.5511 59.3291 25.9349 63.0694C25.7846 63.9736 25.8489 64.9003 26.1227 65.7751C26.3964 66.6499 26.8719 67.4481 27.5108 68.1053L27.5092 68.1302Z" fill="#52379D"/>
  <path fill-rule="evenodd" clip-rule="evenodd" d="M52.3192 57.1858C52.3192 57.1858 45.8042 45.2123 50.1936 43.2518C51.3105 42.8229 52.5325 42.7493 53.6929 43.0407C55.8531 43.4927 58.2522 41.6831 59.0057 39.9346C58.7329 40.9769 58.2312 41.946 57.5373 42.7703C56.8434 43.5947 55.975 44.2542 54.9944 44.7009C51.7061 46.1463 60.176 50.7011 52.3192 57.1858Z" fill="#52379D"/>
  <path fill-rule="evenodd" clip-rule="evenodd" d="M22.3728 57.1831C22.3728 57.1831 28.8879 45.2105 24.4993 43.2499C23.3826 42.8211 22.1607 42.7476 21.0006 43.0396C18.8404 43.4915 16.4403 41.6822 15.686 39.9328C15.9592 40.9752 16.4609 41.9436 17.1549 42.7679C17.8489 43.5923 18.7177 44.2517 19.6983 44.6985C22.9899 46.1447 14.52 50.6993 22.3728 57.1831Z" fill="#52379D"/>
  <path d="M54.4782 40.4298C51.8146 41.0589 49.2265 40.161 48.6977 38.4267C48.1689 36.6925 49.8987 34.773 52.5627 34.1455C55.2268 33.518 57.8151 34.4134 58.3449 36.1482C58.8747 37.883 57.1419 39.8007 54.4782 40.4298Z" fill="#52379D"/>
  <path d="M22.1578 34.1401C24.8215 34.7692 26.5536 36.68 26.0237 38.4182C25.4939 40.1564 22.9054 41.0525 20.2424 40.4244C17.5793 39.7963 15.8475 37.8814 16.3749 36.1459C16.9023 34.4105 19.4931 33.515 22.1578 34.1401Z" fill="#52379D"/>
  <path fill-rule="evenodd" clip-rule="evenodd" d="M49.0071 38.836C49.0071 38.836 47.0774 36.3962 52.0405 34.0863C53.2571 33.522 54.6006 33.2875 55.9364 33.4065C58.2586 33.7398 60.6069 33.8539 62.9504 33.7473C60.5916 34.5159 58.1522 35.0108 55.6803 35.2224C54.5709 35.3011 53.4863 35.5889 52.4837 36.0704C51.1311 36.7183 49.9425 37.6637 49.0071 38.836V38.836Z" fill="#52379D"/>
  <path fill-rule="evenodd" clip-rule="evenodd" d="M25.7242 38.842C25.7242 38.842 27.6589 36.4026 22.691 34.0915C21.4745 33.5272 20.1309 33.2928 18.7951 33.4117C16.4729 33.7453 14.1245 33.8597 11.7809 33.7533C14.1397 34.5219 16.5791 35.0168 19.051 35.2284C20.1604 35.3071 21.245 35.5949 22.2476 36.0764C23.6002 36.7243 24.7888 37.6697 25.7242 38.842Z" fill="#52379D"/>
  <path fill-rule="evenodd" clip-rule="evenodd" d="M41.0706 67.6143C41.6998 66.7302 42.2291 65.779 42.649 64.7785C43.0002 63.8296 43.2644 62.8512 43.4386 61.8545C42.8188 62.6645 42.1316 63.4207 41.3844 64.1149C40.6481 64.7727 39.8433 65.349 38.9836 65.8345C38.8534 65.9475 38.7495 66.0878 38.6794 66.2453C38.6093 66.4029 38.5751 66.5736 38.5783 66.746C38.5815 66.9184 38.622 67.0879 38.6979 67.2427C38.7738 67.3975 38.8829 67.5342 39.0173 67.6423C39.3056 67.8855 39.672 68.0166 40.0492 68.0115C40.4263 68.0063 40.789 67.8651 41.0706 67.6143Z" fill="white"/>
  <path fill-rule="evenodd" clip-rule="evenodd" d="M35.8719 65.7138C34.9838 65.3692 34.1697 64.858 33.4734 64.2077C32.7621 63.4925 32.1298 62.7027 31.5877 61.852C31.6848 63.0903 31.9858 64.3041 32.4784 65.4443C32.8703 66.3011 33.4168 67.0782 34.0905 67.7368C34.4036 67.9497 34.782 68.0449 35.1586 68.0055C35.5352 67.966 35.8857 67.7946 36.148 67.5215C36.2633 67.3907 36.3485 67.2362 36.3976 67.0689C36.4467 66.9016 36.4585 66.7256 36.4321 66.5532C36.4058 66.3808 36.342 66.2163 36.2452 66.0713C36.1484 65.9263 36.021 65.8043 35.8719 65.7138Z" fill="white"/>
</svg>
