<svg width="171" height="127" viewBox="0 0 171 127" fill="none" xmlns="http://www.w3.org/2000/svg">
<path d="M146.706 79.5852C135.714 76.9219 122.453 49.1568 138.195 36.825C153.938 24.4931 152.206 56.8298 161.582 62.9012C170.958 68.9727 182.345 69.9809 180.953 75.0536C179.561 80.1264 157.698 82.2484 146.706 79.5852Z" fill="#9974FF" fill-opacity="0.2"/>
<path opacity="0.299" d="M145.678 81.9905C134.686 79.3272 121.425 51.5621 137.167 39.2303C152.909 26.8984 151.178 59.235 160.554 65.3065C169.93 71.378 181.317 72.3861 179.925 77.4589C178.532 82.5316 156.67 84.6536 145.678 81.9905Z" fill="#9974FF" fill-opacity="0.2"/>
<path opacity="0.304" d="M28.4986 108.177C48.0228 126.884 71.7909 88.962 131.943 112.163C192.094 135.364 169.263 150.028 200.614 156.412C231.965 162.796 285.094 111.445 259.662 102.239C234.231 93.0334 224.022 122.326 163.871 99.1255C103.719 75.9245 113.52 45.3409 74.9148 47.3583C36.3092 49.3756 8.97502 89.4704 28.4986 108.177Z" fill="#9974FF" fill-opacity="0.2"/>
<path d="M29.5859 92.46C45.3633 113.666 75.7986 79.4642 130.777 110.749C185.756 142.034 160.546 153.367 190.257 164.028C219.967 174.689 281.817 131.281 258.461 118.651C235.106 106.02 219.627 133.57 164.649 102.285C109.671 71.0008 124.986 42.1183 86.5732 38.7586C48.16 35.3989 13.8089 71.2544 29.5859 92.46Z" fill="#9974FF" fill-opacity="0.2"/>
</svg>
