<svg width="84" height="91" viewBox="0 0 84 91" fill="none" xmlns="http://www.w3.org/2000/svg">
<path d="M93.6493 76.8318C102.499 55.1429 61.7351 41.0608 65.1253 19.0047C68.5154 -3.05131 66.0057 -16.5789 49.0833 -19.18C32.161 -21.781 15.7338 -6.26459 12.3041 16.0488C8.87441 38.3622 18.1053 58.6915 35.3646 70.0737C60.3955 86.583 84.2298 95.8827 93.6493 76.8318Z" fill="#9974FF" fill-opacity="0.2"/>
<path opacity="0.301" d="M90.7313 75.7215C99.5809 54.0326 58.8172 39.9504 62.2073 17.8944C65.5974 -4.16166 63.0877 -17.6893 46.1654 -20.2903C29.243 -22.8914 12.8158 -7.37495 9.38613 14.9385C5.95644 37.2519 15.1873 57.5811 32.4466 68.9633C57.4775 85.4727 81.3118 94.7723 90.7313 75.7215Z" fill="#9974FF" fill-opacity="0.2"/>
</svg>
