<svg width="78" height="24" viewBox="0 0 78 24" fill="none" xmlns="http://www.w3.org/2000/svg">
<path fill-rule="evenodd" clip-rule="evenodd" d="M67.5285 18.1363C67.8013 18.4134 68.1273 18.6327 68.4867 18.7811C68.8462 18.9295 69.2318 19.0038 69.6207 18.9997C70.0086 19.0052 70.3936 18.9316 70.752 18.7831C71.1105 18.6346 71.4348 18.4145 71.7052 18.1363V18.1363C71.8461 17.9948 71.9507 17.8213 72.01 17.6306C72.0694 17.44 72.0818 17.2379 72.0462 17.0414C71.9043 16.2654 71.6409 14.8572 71.4058 13.5431C71.0858 11.8221 72.3456 10.177 74.2805 9.78248C75.7467 9.48839 76.8633 8.44977 77.1194 7.15422C77.1477 7.00419 77.1763 6.86648 77.1976 6.74748C77.2079 6.69179 77.2028 6.63447 77.1828 6.58149C77.1628 6.52851 77.1286 6.48194 77.0841 6.44696C77.0365 6.40929 76.9812 6.38256 76.9221 6.36854C76.863 6.35452 76.8016 6.35362 76.7421 6.36588C76.3159 6.45965 75.7179 6.58517 75.2267 6.69104C74.9585 6.74059 74.7047 6.84871 74.4833 7.00788C74.2619 7.16704 74.0783 7.3732 73.9459 7.61158V7.61158C73.8784 7.73557 73.7787 7.83895 73.6572 7.9106C73.5356 7.98225 73.3967 8.01943 73.2556 8.01832C73.1136 8.02568 72.9722 7.99619 72.845 7.93258C72.7178 7.86897 72.6093 7.77341 72.53 7.65537C72.5014 7.60541 72.4661 7.55516 72.4448 7.51168C72.3621 7.38441 72.3153 7.23713 72.3096 7.08546C72.2882 6.76648 72.26 6.16477 72.2383 5.75918C72.226 5.46501 72.2871 5.17239 72.4161 4.90773C72.4382 4.86752 72.4573 4.82579 72.4731 4.7827C72.5131 4.70173 72.5236 4.60935 72.5029 4.52147C72.4821 4.43358 72.4312 4.35566 72.3592 4.3012C72.3592 4.29455 72.3522 4.28886 72.3452 4.28255C72.1156 4.10062 71.8316 4.00122 71.5387 4.00001C71.2458 3.99881 70.9609 4.09603 70.7299 4.27606V4.27606C70.6359 4.34683 70.5706 4.44895 70.5457 4.56392C70.5209 4.67889 70.5383 4.79901 70.5947 4.90224C70.5966 4.90363 70.5981 4.90534 70.5993 4.9074C70.6005 4.90945 70.6014 4.91169 70.6017 4.91406C70.7352 5.1558 70.8062 5.42707 70.8081 5.70324C70.8151 6.04097 70.8151 6.52267 70.8151 6.87968C70.8124 7.03591 70.7739 7.18943 70.7024 7.32838C70.6309 7.46732 70.5284 7.588 70.4029 7.68101V7.68101C70.1738 7.84816 69.8976 7.93867 69.614 7.93974C69.3304 7.94081 69.0537 7.85242 68.8234 7.687C68.8014 7.67456 68.7871 7.65582 68.7658 7.64355C68.683 7.58318 68.6148 7.50528 68.5656 7.41545C68.5165 7.32563 68.4876 7.22596 68.4814 7.12376C68.4671 6.76078 68.4384 6.16646 68.4248 5.75984C68.4137 5.47415 68.4799 5.19084 68.6166 4.9397C68.6309 4.91464 68.6452 4.89582 68.6595 4.87144C68.7103 4.77935 68.7267 4.67232 68.7058 4.56925C68.6849 4.46619 68.628 4.37384 68.5453 4.30886C68.3249 4.13143 68.0522 4.03152 67.7693 4.02465C67.4864 4.01778 67.2091 4.10438 66.9803 4.2709C66.9803 4.27703 66.9733 4.27707 66.9656 4.28372C66.8876 4.33763 66.8312 4.41738 66.8065 4.50898C66.7818 4.60058 66.7904 4.69801 66.8308 4.78386C66.8664 4.87149 66.916 4.96545 66.952 5.05308C67.0381 5.23734 67.084 5.4379 67.0865 5.6413V6.74282C67.0847 7.05633 66.9826 7.36096 66.7951 7.61225V7.61225C66.6986 7.73273 66.5751 7.82888 66.4347 7.89295C66.2942 7.95703 66.1407 7.98728 65.9865 7.9812C65.8322 7.97511 65.6816 7.93293 65.5466 7.85799C65.4117 7.78305 65.2963 7.67736 65.2096 7.54964V7.54964C65.0659 7.32006 64.8758 7.12312 64.6515 6.97125C64.4273 6.81938 64.1737 6.71595 63.9071 6.66773C63.4376 6.57362 62.8686 6.46083 62.4557 6.37337C62.3959 6.36389 62.3348 6.36665 62.2762 6.3817C62.2175 6.39674 62.1625 6.42369 62.1147 6.46078C62.0697 6.49515 62.0357 6.54181 62.0168 6.59514C61.9979 6.64847 61.9949 6.70612 62.0081 6.76113C62.0291 6.86138 62.0508 6.98013 62.0791 7.10561C62.3568 8.36978 63.4171 9.38934 64.8259 9.73986C64.8964 9.75879 64.9607 9.77755 65.032 9.7963C66.9104 10.2657 68.0913 11.8862 67.7996 13.5824C67.5792 14.8895 67.3297 16.3101 67.2019 17.0862C67.1707 17.2738 67.184 17.4661 67.2408 17.6476C67.2976 17.8291 67.3963 17.9948 67.5289 18.1311L67.5285 18.1363Z" fill="white"/>
<path fill-rule="evenodd" clip-rule="evenodd" d="M72.6792 15.8646C72.6792 15.8646 71.3274 13.3802 72.2382 12.9734C72.4699 12.8845 72.7235 12.8692 72.9643 12.9297C73.4125 13.0234 73.9103 12.648 74.0666 12.2852C74.01 12.5014 73.9059 12.7025 73.7619 12.8735C73.618 13.0446 73.4378 13.1814 73.2343 13.2741C72.552 13.574 74.3094 14.5191 72.6792 15.8646Z" fill="white"/>
<path fill-rule="evenodd" clip-rule="evenodd" d="M66.4647 15.8652C66.4647 15.8652 67.8165 13.381 66.906 12.9743C66.6743 12.8853 66.4207 12.87 66.18 12.9306C65.7318 13.0244 65.2338 12.649 65.0773 12.286C65.134 12.5023 65.2381 12.7032 65.3821 12.8742C65.5261 13.0453 65.7063 13.1821 65.9098 13.2748C66.5928 13.5749 64.8354 14.5199 66.4647 15.8652Z" fill="white"/>
<path d="M73.1216 12.3885C72.569 12.5191 72.0319 12.3328 71.9222 11.9729C71.8125 11.6131 72.1714 11.2148 72.7242 11.0846C73.277 10.9544 73.814 11.1402 73.9239 11.5002C74.0338 11.8601 73.6743 12.258 73.1216 12.3885Z" fill="white"/>
<path d="M66.4192 11.0835C66.9719 11.2141 67.3313 11.6105 67.2213 11.9712C67.1114 12.3318 66.5743 12.5178 66.0218 12.3875C65.4692 12.2571 65.1099 11.8598 65.2193 11.4997C65.3287 11.1396 65.8663 10.9538 66.4192 11.0835Z" fill="white"/>
<path fill-rule="evenodd" clip-rule="evenodd" d="M71.9889 12.0596C71.9889 12.0596 71.5885 11.5534 72.6183 11.0741C72.8707 10.957 73.1495 10.9084 73.4267 10.9331C73.9085 11.0022 74.3957 11.0259 74.882 11.0038C74.3926 11.1633 73.8864 11.2659 73.3735 11.3098C73.1433 11.3262 72.9183 11.3859 72.7102 11.4858C72.4296 11.6202 72.183 11.8164 71.9889 12.0596V12.0596Z" fill="white"/>
<path fill-rule="evenodd" clip-rule="evenodd" d="M67.1572 12.0585C67.1572 12.0585 67.5586 11.5524 66.5278 11.0729C66.2754 10.9558 65.9966 10.9071 65.7195 10.9318C65.2376 11.001 64.7504 11.0248 64.2641 11.0027C64.7535 11.1622 65.2597 11.2649 65.7726 11.3088C66.0028 11.3251 66.2278 11.3848 66.4358 11.4847C66.7165 11.6191 66.9631 11.8153 67.1572 12.0585V12.0585Z" fill="white"/>
<path fill-rule="evenodd" clip-rule="evenodd" d="M70.3419 18.03C70.4724 17.8466 70.5822 17.6493 70.6694 17.4417C70.7422 17.2448 70.7971 17.0418 70.8332 16.835C70.7046 17.003 70.562 17.1599 70.407 17.304C70.2542 17.4404 70.0872 17.56 69.9088 17.6608C69.8818 17.6842 69.8603 17.7133 69.8457 17.746C69.8312 17.7787 69.8241 17.8141 69.8247 17.8499C69.8254 17.8857 69.8338 17.9208 69.8496 17.953C69.8653 17.9851 69.888 18.0134 69.9158 18.0359C69.9757 18.0863 70.0517 18.1135 70.1299 18.1125C70.2082 18.1114 70.2834 18.0821 70.3419 18.03V18.03Z" fill="#455A64"/>
<path fill-rule="evenodd" clip-rule="evenodd" d="M69.2632 17.636C69.079 17.5645 68.9101 17.4584 68.7656 17.3235C68.618 17.1751 68.4868 17.0112 68.3743 16.8347C68.3945 17.0916 68.4569 17.3435 68.5591 17.5801C68.6404 17.7578 68.7538 17.9191 68.8936 18.0557C68.9586 18.0999 69.0371 18.1197 69.1152 18.1115C69.1934 18.1033 69.2661 18.0677 69.3205 18.0111C69.3445 17.9839 69.3621 17.9519 69.3723 17.9172C69.3825 17.8824 69.385 17.8459 69.3795 17.8101C69.374 17.7744 69.3608 17.7403 69.3407 17.7102C69.3206 17.6801 69.2942 17.6548 69.2632 17.636V17.636Z" fill="#455A64"/>
<path d="M14.0394 6.752C14.2528 6.752 14.4501 6.832 14.6314 6.992C14.8128 7.14133 14.9034 7.34933 14.9034 7.616C14.9034 7.69067 14.8874 7.78133 14.8554 7.888L11.5754 17.488C11.5221 17.648 11.4261 17.7707 11.2874 17.856C11.1488 17.9413 11.0048 17.9893 10.8554 18C10.7061 18 10.5568 17.9573 10.4074 17.872C10.2581 17.7867 10.1461 17.6587 10.0714 17.488L7.54344 11.568L7.68744 11.632L5.19144 17.488C5.1061 17.6587 4.98877 17.7867 4.83944 17.872C4.70077 17.9573 4.55144 18 4.39144 18C4.25277 17.9893 4.1141 17.9413 3.97544 17.856C3.83677 17.7707 3.74077 17.648 3.68744 17.488L0.407438 7.888C0.375438 7.78133 0.359438 7.69067 0.359438 7.616C0.359438 7.34933 0.455438 7.14133 0.647438 6.992C0.839438 6.832 1.03677 6.752 1.23944 6.752C1.4101 6.752 1.56477 6.8 1.70344 6.896C1.85277 6.98133 1.9541 7.10933 2.00744 7.28L4.77544 15.536H4.48744L6.91944 9.584C6.9941 9.424 7.09544 9.296 7.22344 9.2C7.3621 9.104 7.51677 9.06133 7.68744 9.072C7.8581 9.06133 8.00744 9.104 8.13544 9.2C8.2741 9.296 8.37544 9.424 8.43944 9.584L10.7434 15.36L10.5034 15.488L13.2554 7.28C13.3088 7.10933 13.4101 6.98133 13.5594 6.896C13.7088 6.8 13.8688 6.752 14.0394 6.752ZM22.9176 9.456C23.1522 9.456 23.3442 9.536 23.4936 9.696C23.6429 9.84533 23.7176 10.0373 23.7176 10.272V17.184C23.7176 17.4187 23.6429 17.616 23.4936 17.776C23.3442 17.9253 23.1522 18 22.9176 18C22.6936 18 22.5016 17.9253 22.3416 17.776C22.1922 17.616 22.1176 17.4187 22.1176 17.184V16.032L22.4536 16.08C22.4536 16.272 22.3736 16.4853 22.2136 16.72C22.0642 16.9547 21.8562 17.184 21.5896 17.408C21.3229 17.6213 21.0082 17.8027 20.6456 17.952C20.2829 18.0907 19.8936 18.16 19.4776 18.16C18.7416 18.16 18.0802 17.9733 17.4936 17.6C16.9069 17.216 16.4429 16.6933 16.1016 16.032C15.7602 15.3707 15.5896 14.6187 15.5896 13.776C15.5896 12.912 15.7602 12.1547 16.1016 11.504C16.4429 10.8427 16.9016 10.3253 17.4776 9.952C18.0642 9.57867 18.7149 9.392 19.4296 9.392C19.8882 9.392 20.3096 9.46667 20.6936 9.616C21.0882 9.76533 21.4296 9.95733 21.7176 10.192C22.0056 10.4267 22.2242 10.6773 22.3736 10.944C22.5336 11.2 22.6136 11.4453 22.6136 11.68L22.1176 11.728V10.272C22.1176 10.048 22.1922 9.856 22.3416 9.696C22.5016 9.536 22.6936 9.456 22.9176 9.456ZM19.6536 16.688C20.1549 16.688 20.5976 16.56 20.9816 16.304C21.3656 16.048 21.6642 15.7013 21.8776 15.264C22.0909 14.816 22.1976 14.32 22.1976 13.776C22.1976 13.2213 22.0909 12.7253 21.8776 12.288C21.6642 11.8507 21.3656 11.504 20.9816 11.248C20.5976 10.992 20.1549 10.864 19.6536 10.864C19.1629 10.864 18.7256 10.992 18.3416 11.248C17.9682 11.504 17.6696 11.8507 17.4456 12.288C17.2322 12.7253 17.1256 13.2213 17.1256 13.776C17.1256 14.32 17.2322 14.816 17.4456 15.264C17.6696 15.7013 17.9682 16.048 18.3416 16.304C18.7256 16.56 19.1629 16.688 19.6536 16.688ZM27.2631 17.184C27.2631 17.4187 27.1884 17.616 27.0391 17.776C26.8897 17.9253 26.6977 18 26.4631 18C26.2391 18 26.0471 17.9253 25.8871 17.776C25.7377 17.616 25.6631 17.4187 25.6631 17.184V10.336C25.6631 10.1013 25.7377 9.90933 25.8871 9.76C26.0471 9.6 26.2391 9.52 26.4631 9.52C26.6977 9.52 26.8897 9.6 27.0391 9.76C27.1884 9.90933 27.2631 10.1013 27.2631 10.336V17.184ZM26.4471 8.464C26.1377 8.464 25.9137 8.41067 25.7751 8.304C25.6364 8.18667 25.5671 7.99467 25.5671 7.728V7.472C25.5671 7.20533 25.6417 7.01867 25.7911 6.912C25.9404 6.80533 26.1644 6.752 26.4631 6.752C26.7831 6.752 27.0124 6.81067 27.1511 6.928C27.2897 7.03467 27.3591 7.216 27.3591 7.472V7.728C27.3591 8.00533 27.2844 8.19733 27.1351 8.304C26.9964 8.41067 26.7671 8.464 26.4471 8.464ZM35.4873 9.584C35.7113 9.584 35.898 9.664 36.0473 9.824C36.2073 9.97333 36.2873 10.1653 36.2873 10.4V14.608C36.2873 15.7173 35.978 16.5867 35.3593 17.216C34.7406 17.8347 33.866 18.144 32.7353 18.144C31.6153 18.144 30.746 17.8347 30.1273 17.216C29.5193 16.5867 29.2153 15.7173 29.2153 14.608V10.4C29.2153 10.1653 29.29 9.97333 29.4393 9.824C29.5886 9.664 29.7806 9.584 30.0153 9.584C30.2393 9.584 30.426 9.664 30.5753 9.824C30.7353 9.97333 30.8153 10.1653 30.8153 10.4V14.608C30.8153 15.3013 30.9753 15.8187 31.2953 16.16C31.626 16.5013 32.106 16.672 32.7353 16.672C33.3753 16.672 33.8606 16.5013 34.1913 16.16C34.522 15.8187 34.6873 15.3013 34.6873 14.608V10.4C34.6873 10.1653 34.762 9.97333 34.9113 9.824C35.0606 9.664 35.2526 9.584 35.4873 9.584ZM39.1122 18C38.8775 18 38.6855 17.9253 38.5362 17.776C38.3869 17.616 38.3122 17.4187 38.3122 17.184V10.4C38.3122 10.1653 38.3869 9.97333 38.5362 9.824C38.6855 9.664 38.8775 9.584 39.1122 9.584C39.3362 9.584 39.5229 9.664 39.6722 9.824C39.8322 9.97333 39.9122 10.1653 39.9122 10.4V12.192L39.7522 11.504C39.8375 11.2053 39.9655 10.928 40.1362 10.672C40.3175 10.416 40.5309 10.192 40.7762 10C41.0215 9.808 41.2935 9.65867 41.5922 9.552C41.9015 9.44533 42.2215 9.392 42.5522 9.392C42.8295 9.392 43.0695 9.46667 43.2722 9.616C43.4749 9.76533 43.5762 9.952 43.5762 10.176C43.5762 10.464 43.5015 10.6773 43.3522 10.816C43.2029 10.944 43.0375 11.008 42.8562 11.008C42.6962 11.008 42.5415 10.976 42.3922 10.912C42.2429 10.8373 42.0669 10.8 41.8642 10.8C41.6402 10.8 41.4109 10.8587 41.1762 10.976C40.9415 11.0933 40.7282 11.2693 40.5362 11.504C40.3442 11.728 40.1895 11.9947 40.0722 12.304C39.9655 12.6133 39.9122 12.96 39.9122 13.344V17.184C39.9122 17.4187 39.8322 17.616 39.6722 17.776C39.5229 17.9253 39.3362 18 39.1122 18ZM51.0717 9.584C51.2957 9.584 51.4824 9.664 51.6317 9.824C51.7917 9.97333 51.8717 10.1653 51.8717 10.4V14.608C51.8717 15.7173 51.5624 16.5867 50.9437 17.216C50.325 17.8347 49.4504 18.144 48.3197 18.144C47.1997 18.144 46.3304 17.8347 45.7117 17.216C45.1037 16.5867 44.7997 15.7173 44.7997 14.608V10.4C44.7997 10.1653 44.8744 9.97333 45.0237 9.824C45.173 9.664 45.365 9.584 45.5997 9.584C45.8237 9.584 46.0104 9.664 46.1597 9.824C46.3197 9.97333 46.3997 10.1653 46.3997 10.4V14.608C46.3997 15.3013 46.5597 15.8187 46.8797 16.16C47.2104 16.5013 47.6904 16.672 48.3197 16.672C48.9597 16.672 49.445 16.5013 49.7757 16.16C50.1064 15.8187 50.2717 15.3013 50.2717 14.608V10.4C50.2717 10.1653 50.3464 9.97333 50.4957 9.824C50.645 9.664 50.837 9.584 51.0717 9.584Z" fill="white"/>
</svg>
