<svg xmlns="http://www.w3.org/2000/svg" width="201" height="149" viewBox="0 0 201 149" fill="none">
  <path d="M200.5 130.953H0.5V131.053H200.5V130.953Z" fill="#EBEBEB"/>
  <path d="M169.524 133.676H159.136V133.776H169.524V133.676Z" fill="#EBEBEB"/>
  <path d="M126.764 134.398H123.288V134.498H126.764V134.398Z" fill="#EBEBEB"/>
  <path d="M180.46 137.387H172.784V137.487H180.46V137.387Z" fill="#EBEBEB"/>
  <path d="M27.9844 134.344H21.4844V134.444H27.9844V134.344Z" fill="#EBEBEB"/>
  <path d="M44.856 134.344H30.124V134.444H44.856V134.344Z" fill="#EBEBEB"/>
  <path d="M118.636 136.035H81.1641V136.135H118.636V136.035Z" fill="#EBEBEB"/>
  <path d="M95.3002 113.112H18.0642C17.4591 113.111 16.8792 112.87 16.4517 112.442C16.0243 112.014 15.7842 111.433 15.7842 110.828V2.25619C15.7894 1.6546 16.0319 1.07938 16.4588 0.655475C16.8857 0.231571 17.4626 -0.00678194 18.0642 -0.0078125H95.3002C95.9059 -0.0078125 96.4869 0.232823 96.9152 0.661156C97.3435 1.08949 97.5842 1.67043 97.5842 2.27619V110.828C97.5842 111.434 97.3435 112.015 96.9152 112.443C96.4869 112.872 95.9059 113.112 95.3002 113.112ZM18.0642 0.0721878C17.4856 0.0732474 16.9312 0.303814 16.5224 0.713278C16.1137 1.12274 15.8842 1.67765 15.8842 2.25619V110.828C15.8842 111.407 16.1137 111.962 16.5224 112.371C16.9312 112.781 17.4856 113.011 18.0642 113.012H95.3002C95.8791 113.011 96.434 112.781 96.8433 112.371C97.2527 111.962 97.4831 111.407 97.4842 110.828V2.25619C97.4831 1.67728 97.2527 1.12238 96.8433 0.713034C96.434 0.303684 95.8791 0.0732452 95.3002 0.0721878H18.0642Z" fill="#EBEBEB"/>
  <path d="M181.824 113.112H104.584C103.978 113.111 103.398 112.87 102.97 112.442C102.542 112.014 102.301 111.434 102.3 110.828V2.25619C102.306 1.65423 102.549 1.07902 102.977 0.655225C103.404 0.231431 103.982 -0.00679318 104.584 -0.0078125H181.824C182.425 -0.0057307 183.001 0.233087 183.427 0.656879C183.853 1.08067 184.095 1.65529 184.1 2.25619V110.828C184.1 111.433 183.86 112.012 183.434 112.44C183.007 112.868 182.428 113.11 181.824 113.112ZM104.584 0.0721878C104.005 0.0732452 103.45 0.303684 103.041 0.713034C102.631 1.12238 102.401 1.67728 102.4 2.25619V110.828C102.401 111.407 102.631 111.962 103.041 112.371C103.45 112.781 104.005 113.011 104.584 113.012H181.824C182.403 113.011 182.958 112.781 183.367 112.371C183.776 111.962 184.007 111.407 184.008 110.828V2.25619C184.007 1.67728 183.776 1.12238 183.367 0.713034C182.958 0.303684 182.403 0.0732452 181.824 0.0721878H104.584Z" fill="#EBEBEB"/>
  <path d="M85.648 101.242H66.936V130.95H85.648V101.242Z" fill="#F0F0F0"/>
  <path d="M26.54 130.953H66.936V101.245H26.54L26.54 130.953Z" fill="#F5F5F5"/>
  <path d="M26.3437 125.383H46.2197V114.207H26.3437V125.383Z" fill="#FAFAFA"/>
  <g style="mix-blend-mode:multiply" opacity="0.7">
    <path d="M85.6482 103.926H26.3442V105.362H85.6482V103.926Z" fill="#E6E6E6"/>
  </g>
  <path d="M86.68 100.375H66.936V104.527H86.68V100.375Z" fill="#F0F0F0"/>
  <path d="M25.508 104.527H66.936V100.375H25.508V104.527Z" fill="#F5F5F5"/>
  <path d="M29.9521 100.297H43.1001V79.4209H29.9521V100.297Z" fill="#F5F5F5"/>
  <path d="M71.4881 79.4258H43.1001V100.302H71.4881V79.4258Z" fill="#F0F0F0"/>
  <path d="M71.6238 88.5352H57.6558V96.3872H71.6238V88.5352Z" fill="#F5F5F5"/>
  <g style="mix-blend-mode:multiply" opacity="0.7">
    <path d="M29.948 82.3125H71.624V81.3045H29.948V82.3125Z" fill="#E6E6E6"/>
  </g>
  <path d="M29.2241 81.7305H43.1001V78.8145H29.2241V81.7305Z" fill="#F5F5F5"/>
  <path d="M72.2121 78.8164H43.1001V81.7324H72.2121V78.8164Z" fill="#F0F0F0"/>
  <path d="M19.416 67.6602L88.748 67.6602V13.9242L19.416 13.9242V67.6602Z" fill="#E6E6E6"/>
  <path d="M17.9717 67.6602L87.3037 67.6602V13.9242L17.9717 13.9242V67.6602Z" fill="#F5F5F5"/>
  <path d="M14.628 70.7734L88.748 70.7734V67.6614L14.628 67.6614V70.7734Z" fill="#E6E6E6"/>
  <path d="M13.0042 70.7734L83.9282 70.7734V67.6614L13.0042 67.6614V70.7734Z" fill="#F5F5F5"/>
  <path d="M84.7158 64.8706V16.7266L20.5678 16.7266V64.8706H84.7158Z" fill="#FAFAFA"/>
  <path d="M44.4001 64.8706L62.3641 16.7266H44.0441L26.0801 64.8706H44.4001Z" fill="white"/>
  <path d="M57.6398 64.8706L75.6038 16.7266H65.5118L47.5518 64.8706H57.6398Z" fill="white"/>
  <path d="M54.084 64.8706V16.7266H51.196V64.8706H54.084Z" fill="#F5F5F5"/>
  <path d="M21.6602 64.8706L21.6602 16.7266H20.5682L20.5682 64.8706H21.6602Z" fill="#E6E6E6"/>
  <path d="M55.1758 64.8706V16.7266H54.0838V64.8706H55.1758Z" fill="#E6E6E6"/>
  <path d="M114.928 130.953H166.26L166.26 5.14913H114.928L114.928 130.953Z" fill="#F0F0F0"/>
  <path d="M114.928 130.953H163.828L163.828 5.14913H114.928L114.928 130.953Z" fill="#F5F5F5"/>
  <path d="M161.252 128.1V8.00391L117.504 8.00391V128.1H161.252Z" fill="#F0F0F0"/>
  <path d="M126.932 62.1016H123.492C122.434 62.1016 121.576 62.9594 121.576 64.0176V64.2176C121.576 65.2757 122.434 66.1336 123.492 66.1336H126.932C127.99 66.1336 128.848 65.2757 128.848 64.2176V64.0176C128.848 62.9594 127.99 62.1016 126.932 62.1016Z" fill="white"/>
  <path d="M118.176 128.1L118.176 8.00391H117.508L117.508 128.1H118.176Z" fill="#F0F0F0"/>
  <path d="M100.5 149.009C143.333 149.009 178.056 146.982 178.056 144.481C178.056 141.98 143.333 139.953 100.5 139.953C57.6669 139.953 22.9438 141.98 22.9438 144.481C22.9438 146.982 57.6669 149.009 100.5 149.009Z" fill="#F5F5F5"/>
  <path d="M67.82 39.418C67.936 39.874 67.82 40.254 67.596 40.27C67.372 40.286 67.06 39.934 66.944 39.47C66.828 39.006 66.924 38.638 67.168 38.618C67.412 38.598 67.7 38.966 67.82 39.418Z" fill="white"/>
  <path d="M68.1557 42.7757C68.3858 42.7216 68.4851 42.3064 68.3774 41.8483C68.2697 41.3903 67.9959 41.0628 67.7658 41.1169C67.5357 41.171 67.4364 41.5862 67.5441 42.0442C67.6518 42.5023 67.9256 42.8298 68.1557 42.7757Z" fill="white"/>
  <path d="M75.5881 120.125H36.1841V143.337H75.5881V120.125Z" fill="#8B58CD"/>
  <path opacity="0.7" d="M75.5881 120.125H36.1841V143.337H75.5881V120.125Z" fill="white"/>
  <path opacity="0.3" d="M46.3161 120.125H36.1841V143.337H46.3161V120.125Z" fill="#8B58CD"/>
  <path opacity="0.7" d="M65.1442 120.125H56.7642V124.377H65.1442V120.125Z" fill="white"/>
  <path opacity="0.7" d="M42.876 120.125H39.624V124.377H42.876V120.125Z" fill="white"/>
  <path opacity="0.3" d="M73.38 136.5H68.748V141.132H73.38V136.5Z" fill="#8B58CD"/>
  <path opacity="0.3" d="M67.384 136.5H62.752V141.132H67.384V136.5Z" fill="#8B58CD"/>
  <path d="M39.1724 120.125H65.9404V104.353H39.1724V120.125Z" fill="#8B58CD"/>
  <path opacity="0.7" d="M39.1724 120.125H65.9404V104.353H39.1724V120.125Z" fill="white"/>
  <path opacity="0.3" d="M59.0564 104.352H39.1724V120.124H59.0564V104.352Z" fill="#8B58CD"/>
  <path opacity="0.7" d="M46.268 107.238H51.96V104.35H46.268V107.238Z" fill="white"/>
  <path opacity="0.7" d="M61.396 107.238H63.604V104.35H61.396V107.238Z" fill="white"/>
  <path opacity="0.3" d="M40.6684 118.625H43.8164V115.477H40.6684V118.625Z" fill="#8B58CD"/>
  <path opacity="0.3" d="M44.7441 118.625H47.8921V115.477H44.7441V118.625Z" fill="#8B58CD"/>
  <path d="M85.6041 141.594H112.432V125.79H85.6041V141.594Z" fill="#8B58CD"/>
  <path opacity="0.7" d="M85.6041 141.594H112.432V125.79H85.6041V141.594Z" fill="white"/>
  <path opacity="0.3" d="M105.536 125.793H85.6084V141.597H105.536V125.793Z" fill="#8B58CD"/>
  <path opacity="0.7" d="M85.6079 135.953H87.1079V131.453H85.6079V135.953Z" fill="white"/>
  <path opacity="0.7" d="M103.636 135.961H107.432V131.461H103.636V135.961Z" fill="white"/>
  <path opacity="0.3" d="M108.744 139.953H110.008V136.797H108.744V139.953Z" fill="#8B58CD"/>
  <path opacity="0.3" d="M110.38 139.953H111.644V136.797H110.38V139.953Z" fill="#8B58CD"/>
  <path d="M96.8004 133.707L90.3564 135.139L92.8204 142.099L98.2044 140.911L96.8004 133.707Z" fill="#FFB573"/>
  <path opacity="0.2" d="M96.8 133.707L90.3521 135.139L91.732 139.035L97.588 137.739L96.8 133.707Z" fill="black"/>
  <path d="M81.5886 106.724C78.8806 97.4245 72.1286 87.7205 75.8526 78.8645L94.4726 78.8125C94.4726 78.8125 95.9726 99.0445 96.4366 107.645C96.9206 116.589 97.8966 136.372 97.8966 136.372L90.5486 137.972C90.5486 137.972 83.4326 123.188 81.5886 106.724Z" fill="#263238"/>
  <path opacity="0.2" d="M75.1084 88.104C76.0164 93.048 78.5004 98.104 80.3684 103.108C82.6164 93.66 82.3404 82.552 75.1084 88.104Z" fill="black"/>
  <path d="M102.672 140.281C102.672 140.281 100.956 141.053 98.856 139.833C98.7293 139.777 98.5917 139.75 98.4533 139.754C98.3149 139.758 98.1792 139.793 98.056 139.857C96.976 140.305 94.092 141.401 92.228 141.169C92.1871 141.162 92.1452 141.166 92.1061 141.18C92.067 141.193 92.0318 141.216 92.0037 141.247C91.9757 141.277 91.9555 141.314 91.9451 141.354C91.9347 141.394 91.9343 141.436 91.944 141.477C92.2096 142.461 92.3903 143.466 92.484 144.481L94.192 144.117L94.412 143.513L95.312 143.885C98.1337 143.451 100.903 142.727 103.576 141.725C103.824 140.633 102.672 140.281 102.672 140.281Z" fill="#8B58CD"/>
  <path d="M69.5126 134.93L63.3686 134.99L63.1006 142.234L68.2326 142.194L69.5126 134.93Z" fill="#FFB573"/>
  <path opacity="0.2" d="M69.5123 134.934L63.3643 134.99L63.2163 139.05L68.7963 139.002L69.5123 134.934Z" fill="black"/>
  <path d="M62.8322 106.724C62.3362 97.4245 61.6602 83.5245 64.7762 79.2405L83.9082 78.8125C83.9082 78.8125 78.5882 99.1885 76.6042 107.748C74.5402 116.668 69.4802 137.748 69.4802 137.748H62.8402C62.8402 137.748 60.3322 117.336 62.8322 106.724Z" fill="#263238"/>
  <path d="M91.7721 48.4118L92.0641 49.1078L92.4081 49.9078C92.6481 50.4318 92.8881 50.9638 93.1481 51.4758C93.65 52.4881 94.2068 53.4722 94.8161 54.4238C95.1121 54.8798 95.4201 55.3238 95.7401 55.7278C96.0395 56.1283 96.3614 56.5116 96.7041 56.8758C97.2913 57.5015 97.9648 58.0402 98.7041 58.4758L97.3081 58.1678C97.9991 58.2743 98.6969 58.3305 99.3961 58.3358C100.157 58.3464 100.917 58.3063 101.672 58.2158C102.472 58.1318 103.272 57.9958 104.072 57.8158C104.472 57.7318 104.872 57.6438 105.296 57.5398L105.908 57.3918L106.208 57.3158C106.291 57.2888 106.377 57.2714 106.464 57.2638L107.916 57.5238C108.279 57.5857 108.619 57.7468 108.896 57.9893C109.174 58.2318 109.379 58.5463 109.489 58.8981C109.599 59.2498 109.61 59.6252 109.52 59.9826C109.43 60.3401 109.243 60.6658 108.98 60.9238L108.648 61.2518L108.352 61.5358C108.152 61.7198 107.952 61.8998 107.744 62.0718C107.344 62.4118 106.908 62.7398 106.464 63.0438C105.571 63.6555 104.627 64.1907 103.644 64.6438C102.622 65.1083 101.561 65.4791 100.472 65.7518C99.3301 66.037 98.1607 66.198 96.9841 66.2318C96.6406 66.2435 96.2982 66.1878 95.9761 66.0678L95.5761 65.9238C94.6964 65.591 93.8489 65.1786 93.0441 64.6918C92.2895 64.2246 91.5726 63.699 90.9001 63.1198C90.2634 62.5706 89.6584 61.9857 89.0881 61.3678C88.5321 60.7598 88.0361 60.1318 87.5561 59.4958C87.0761 58.8598 86.6441 58.2118 86.2401 57.5518C85.8361 56.8918 85.4401 56.2318 85.1001 55.5518C84.7601 54.8718 84.4201 54.1918 84.1241 53.4918C83.9761 53.1398 83.8281 52.7878 83.6921 52.4278L83.4881 51.8718L83.3881 51.5878L83.2761 51.2398C82.918 50.1428 82.9975 48.9499 83.4979 47.91C83.9983 46.8702 84.881 46.0638 85.9617 45.6592C87.0425 45.2545 88.2377 45.283 89.298 45.7385C90.3583 46.194 91.2016 47.0414 91.6521 48.1038L91.7721 48.4118Z" fill="#FFB573"/>
  <path d="M105.964 61.5181L105.072 59.0901C105.1 56.3701 108.588 57.0141 108.588 57.0141L111.192 56.4341C111.514 56.3909 111.84 56.4628 112.114 56.637C112.388 56.8112 112.591 57.0765 112.688 57.3861L113.324 59.0781C113.475 59.4184 113.488 59.8041 113.36 60.1536C113.231 60.503 112.972 60.7887 112.636 60.9501L110.34 61.7501C109.905 61.9179 109.435 61.9742 108.972 61.9141L105.964 61.5181Z" fill="#FFB573"/>
  <path d="M86.4122 41.332C90.2482 42.932 93.6122 49.888 93.6122 49.888C93.4362 51.568 89.5722 56.26 86.1642 57.464C86.1642 57.464 83.5082 56.36 81.8362 52.732C79.7002 48.036 82.3442 39.636 86.4122 41.332Z" fill="#8B58CD"/>
  <path d="M84.2525 40.8349C78.5706 40.2949 72.8463 40.3861 67.1845 41.1069C66.4091 41.2214 65.6653 41.493 64.9985 41.905C64.3317 42.3169 63.756 42.8607 63.3067 43.5029C62.8573 44.1451 62.5438 44.8722 62.3852 45.6398C62.2267 46.4074 62.2264 47.1992 62.3845 47.9669C65.0405 61.3309 62.2565 76.3229 63.9845 79.3109C63.9845 79.3109 83.7165 79.5709 94.7485 78.8109C97.7725 64.3029 91.8285 55.4229 88.8405 44.0909C88.3245 42.1549 86.2445 41.0429 84.2525 40.8349Z" fill="#8B58CD"/>
  <path d="M68.8723 51.8669C68.2883 52.9029 67.6403 53.9989 67.0203 55.0669L65.1763 58.2669C64.8763 58.7949 64.5803 59.3229 64.3003 59.8429C64.0203 60.3629 63.7363 60.8789 63.5003 61.3789C63.2643 61.8789 63.0243 62.3749 62.8363 62.7949C62.7443 63.0029 62.6643 63.1949 62.6123 63.3309L62.5763 63.4229V63.4589C62.5523 63.5109 62.5763 63.4069 62.5403 63.3549L62.5203 62.9549C62.5477 63.8476 62.6602 64.7356 62.8563 65.6069C63.0643 66.6069 63.3203 67.6589 63.6203 68.7109C63.9203 69.7629 64.2283 70.8469 64.5523 71.9349C64.8763 73.0229 65.2203 74.1309 65.5123 75.2069L65.5403 75.3029C65.6734 75.7976 65.6352 76.3228 65.4318 76.793C65.2283 77.2631 64.8717 77.6506 64.42 77.8922C63.9682 78.1339 63.448 78.2155 62.944 78.1237C62.44 78.0319 61.9819 77.7722 61.6443 77.3869C60.8411 76.4528 60.088 75.4768 59.3883 74.4629C59.0443 73.9589 58.6963 73.4549 58.3683 72.9309C58.0403 72.4069 57.7243 71.8829 57.4123 71.3309C56.7823 70.2215 56.2134 69.0784 55.7083 67.9069C55.1299 66.5849 54.7148 65.1973 54.4723 63.7749C54.4663 63.695 54.4663 63.6148 54.4723 63.5349V63.3629C54.4669 63.0075 54.4843 62.6521 54.5243 62.2989C54.5243 62.1549 54.5603 61.9909 54.5803 61.8589L54.6483 61.4829C54.7403 60.9829 54.8483 60.5669 54.9563 60.1629C55.1763 59.3629 55.4363 58.6669 55.6923 57.9829C55.9483 57.2989 56.2203 56.6549 56.4923 56.0189C56.7643 55.3829 57.0683 54.7669 57.3603 54.1549C57.9443 52.9269 58.5603 51.7549 59.2283 50.5829C59.8963 49.4109 60.5443 48.2989 61.3123 47.1469C61.9941 46.2912 62.9652 45.7142 64.0428 45.5248C65.1204 45.3353 66.2301 45.5464 67.1629 46.1183C68.0957 46.6901 68.7872 47.5833 69.1072 48.6296C69.4272 49.6759 69.3536 50.8031 68.9003 51.7989L68.8723 51.8669Z" fill="#FFB573"/>
  <path d="M65.1325 41.8789C61.3365 43.5829 58.1685 50.4749 58.1685 50.4749C58.5405 52.8749 63.9125 58.0109 66.7205 58.9789C66.7205 58.9789 69.0645 56.9149 70.1565 52.1069C71.4085 46.5829 67.1845 42.3189 65.1325 41.8789Z" fill="#8B58CD"/>
  <path d="M81.5643 41.8216C81.1917 41.099 80.5854 40.5238 79.8443 40.1896C79.5653 39.4711 79.5441 38.678 79.7843 37.9456L71.3843 35.2656C72.0643 38.0656 72.5843 40.2416 71.5603 41.5936C73.2123 42.6016 76.2443 44.3936 79.5603 44.3216C82.8763 44.2496 82.1003 42.9856 81.5643 41.8216Z" fill="#FFB573"/>
  <path opacity="0.2" d="M79.7002 38.204L73.3882 37.832C75.3642 39.94 78.3562 40.736 79.7202 39.876C79.5727 39.3293 79.5658 38.7541 79.7002 38.204Z" fill="black"/>
  <path d="M79.7361 44.3155L78.3721 43.1875L76.5361 44.1075C76.5361 44.1075 77.7001 45.1875 79.7361 44.3155Z" fill="#8B58CD"/>
  <path opacity="0.3" d="M79.7361 44.3155L78.3721 43.1875L76.5361 44.1075C76.5361 44.1075 77.7001 45.1875 79.7361 44.3155Z" fill="black"/>
  <path d="M81.4922 28.2329C81.6002 29.9289 80.5082 31.3809 79.0522 31.4729C77.5962 31.5649 76.3322 30.2729 76.2242 28.5649C76.1162 26.8569 77.2082 25.4169 78.6642 25.3249C80.1202 25.2329 81.3842 26.5369 81.4922 28.2329Z" fill="#263238"/>
  <path d="M82.6801 34.2954C82.7881 35.9914 81.6961 37.4434 80.2401 37.5354C78.7841 37.6274 77.5201 36.3354 77.4121 34.6274C77.3041 32.9194 78.4001 31.4794 79.8521 31.3874C81.3041 31.2954 82.5721 32.5954 82.6801 34.2954Z" fill="#263238"/>
  <path d="M69.9843 30.7233C70.6963 34.4113 71.2683 36.9033 73.7803 38.2673C78.7763 40.9833 81.2843 38.7193 81.7803 34.9273C82.2163 31.5113 80.9803 26.0553 76.8763 24.9513C72.8323 23.8633 69.2683 27.0353 69.9843 30.7233Z" fill="#FFB573"/>
  <path d="M79.7322 33.5873C84.0362 32.6953 83.4362 36.8913 82.4002 38.3873C81.4882 39.7193 79.5122 40.8713 76.0802 39.4433C72.5122 37.9633 73.4642 35.4113 72.3242 33.8713C71.9242 33.3113 72.8202 31.0153 73.4042 32.2193C74.6642 34.8273 77.9482 32.8953 79.7322 33.5873Z" fill="#263238"/>
  <path d="M71.6002 33.9337C73.6002 35.1337 73.8962 33.1057 73.4042 32.2377C74.2042 31.3057 74.8882 28.1377 72.6682 27.8377C73.7362 28.1217 77.1282 27.8137 76.5722 25.7777C77.8602 26.9377 81.7362 27.6297 81.4922 25.5697C81.1402 22.5577 76.5362 19.9697 73.4042 22.5577C69.6282 20.5217 65.2242 24.7377 67.4682 26.6697C64.5882 27.2777 65.2242 31.5577 66.8762 32.1017C65.6002 34.3257 70.6762 37.2337 71.6002 33.9337Z" fill="#263238"/>
  <path opacity="0.2" d="M75.8921 30.7549C75.4279 30.5944 74.9192 30.6232 74.4761 30.8349C74.9488 30.9014 75.4299 30.8742 75.8921 30.7549Z" fill="black"/>
  <path opacity="0.2" d="M75.8881 31.0974C75.6672 31.0701 75.443 31.0918 75.2315 31.1609C75.0199 31.2301 74.8262 31.3449 74.6641 31.4974C75.0959 31.4529 75.5133 31.3166 75.8881 31.0974Z" fill="black"/>
  <path opacity="0.2" d="M79.3484 27.183C78.1649 27.0855 76.9746 27.111 75.7964 27.259C77.7764 27.291 79.3484 27.183 79.3484 27.183Z" fill="black"/>
  <path opacity="0.2" d="M79.8643 27.5547C79.8643 27.5547 77.1483 27.6347 75.8643 28.1187C77.2081 28.0148 78.5441 27.8264 79.8643 27.5547Z" fill="black"/>
  <path d="M68.9007 34.8909C69.2116 35.2836 69.5972 35.6109 70.0351 35.854C70.4731 36.097 70.9549 36.2509 71.4527 36.3069C72.7887 36.4469 73.0887 35.3629 72.6527 34.1709C72.2527 33.0989 70.9167 31.7029 69.6607 32.0949C68.4047 32.4869 68.1487 33.9109 68.9007 34.8909Z" fill="#FFB573"/>
  <path d="M77.0564 30.8056C77.0884 31.1296 77.2884 31.3736 77.5044 31.3496C77.7204 31.3256 77.8604 31.0416 77.8284 30.7176C77.7964 30.3936 77.5924 30.1456 77.3764 30.1696C77.1604 30.1936 77.0204 30.4776 77.0564 30.8056Z" fill="#263238"/>
  <path d="M80.4363 30.536C80.4683 30.86 80.6683 31.108 80.8843 31.08C81.1003 31.052 81.2403 30.772 81.2083 30.448C81.1763 30.124 80.9723 29.876 80.7563 29.9C80.5403 29.924 80.4003 30.208 80.4363 30.536Z" fill="#263238"/>
  <path d="M79.3486 30.875L79.7486 33.603C80.0733 33.622 80.3988 33.5882 80.7126 33.503C80.775 33.4827 80.8307 33.4458 80.8736 33.3962C80.9166 33.3466 80.9451 33.2863 80.9563 33.2216C80.9674 33.157 80.9606 33.0905 80.9367 33.0294C80.9128 32.9683 80.8727 32.9149 80.8206 32.875C80.0006 32.271 79.3486 30.875 79.3486 30.875Z" fill="#ED893E"/>
  <path d="M75.3005 29.9461C75.268 29.9442 75.2365 29.9346 75.2085 29.9181C75.1874 29.904 75.1693 29.8859 75.1552 29.8647C75.1411 29.8436 75.1314 29.8199 75.1266 29.7949C75.1217 29.77 75.1219 29.7444 75.127 29.7195C75.1322 29.6947 75.1422 29.6711 75.1565 29.6501C75.3194 29.39 75.5419 29.1725 75.8055 29.0153C76.0691 28.8581 76.3662 28.7658 76.6725 28.7461C76.7255 28.7461 76.7764 28.7672 76.8139 28.8047C76.8514 28.8422 76.8725 28.8931 76.8725 28.9461C76.8725 28.9991 76.8514 29.05 76.8139 29.0875C76.7764 29.125 76.7255 29.1461 76.6725 29.1461C76.4287 29.1641 76.1928 29.2399 75.9841 29.3672C75.7754 29.4945 75.6001 29.6696 75.4725 29.8781C75.4516 29.9027 75.425 29.9218 75.395 29.9337C75.365 29.9455 75.3325 29.9498 75.3005 29.9461Z" fill="#263238"/>
  <path d="M81.6723 29.5892C81.6412 29.5915 81.61 29.5861 81.5814 29.5735C81.5529 29.561 81.5278 29.5417 81.5083 29.5172C81.3618 29.3252 81.1721 29.1704 80.9546 29.0655C80.737 28.9605 80.4978 28.9084 80.2563 28.9132C80.2313 28.916 80.206 28.9137 80.1819 28.9065C80.1578 28.8993 80.1353 28.8873 80.1159 28.8712C80.0965 28.8552 80.0806 28.8354 80.069 28.8131C80.0573 28.7908 80.0503 28.7663 80.0483 28.7412C80.0448 28.6907 80.0606 28.6407 80.0925 28.6013C80.1245 28.562 80.1701 28.5362 80.2203 28.5292C80.5272 28.5156 80.8328 28.5761 81.1113 28.7056C81.3898 28.8351 81.633 29.0298 81.8203 29.2732C81.8516 29.3138 81.8657 29.3649 81.8597 29.4157C81.8537 29.4666 81.8281 29.513 81.7883 29.5452C81.7548 29.5709 81.7145 29.5862 81.6723 29.5892Z" fill="#263238"/>
  <path d="M71.9641 39.7891C71.9641 39.7891 74.8401 42.9891 78.3641 43.1731C76.3081 44.1451 74.8241 46.2331 74.8241 46.2331C74.8241 46.2331 71.0761 45.3171 70.2441 40.6331C70.8001 39.9811 71.9641 39.7891 71.9641 39.7891Z" fill="#EBEBEB"/>
  <path d="M79.7363 44.3137L81.2843 42.9297L83.2523 43.5137C83.2523 43.5137 81.7643 45.1857 79.7363 44.3137Z" fill="#8B58CD"/>
  <path opacity="0.3" d="M79.7363 44.3137L81.2843 42.9297L83.2523 43.5137C83.2523 43.5137 81.7643 45.1857 79.7363 44.3137Z" fill="black"/>
  <path d="M79.8442 40.1932C79.8442 40.1932 81.2162 41.7932 81.2842 42.9332C82.9162 43.5652 84.4242 45.6372 84.4242 45.6372C84.4242 45.6372 84.0242 42.3572 81.4402 40.4932C80.9503 40.2357 80.3943 40.1311 79.8442 40.1932Z" fill="#EBEBEB"/>
  <path d="M62.2324 144.479H63.5684L63.9284 143.935L64.6284 144.483H72.6884C72.7387 143.849 72.62 143.213 72.3444 142.639C72.3444 142.639 69.9444 142.419 69.0084 141.219C68.9754 141.173 68.9295 141.136 68.8762 141.115C68.823 141.094 68.7647 141.088 68.7084 141.099C67.9084 141.267 64.7084 141.871 62.9644 141.239C62.9211 141.221 62.8739 141.214 62.827 141.218C62.7801 141.222 62.7349 141.238 62.6954 141.263C62.6559 141.289 62.6234 141.324 62.6005 141.365C62.5777 141.406 62.5653 141.452 62.5644 141.499C62.5292 142.5 62.4182 143.496 62.2324 144.479Z" fill="#8B58CD"/>
  <path d="M105.332 58.0849C106.272 56.0849 108.268 56.0329 109.804 55.5169C110.064 55.4289 110.528 55.9969 110.232 56.3969C110.072 56.6579 109.86 56.884 109.611 57.062C109.362 57.2399 109.079 57.3661 108.78 57.4329C108.76 58.1249 108.016 59.9929 106.056 59.9489C105.595 59.4367 105.338 58.7738 105.332 58.0849Z" fill="#FFB573"/>
  <path d="M80.3763 34.8312C80.3763 34.8312 79.2603 34.5752 76.1123 34.5352C76.4243 35.2032 77.2323 35.7032 78.8443 35.7352C80.1403 35.7952 80.3763 34.8312 80.3763 34.8312Z" fill="white"/>
  <path d="M64.6645 74.3516L62.2885 75.3716C60.3325 77.2596 63.1965 79.3516 63.1965 79.3516L64.1685 80.9156C64.3577 81.1795 64.6344 81.3677 64.9493 81.4468C65.2642 81.5259 65.597 81.4907 65.8885 81.3476L67.5525 80.6476C67.9041 80.5237 68.1936 80.2677 68.3594 79.9338C68.5252 79.5999 68.5543 79.2145 68.4405 78.8596L67.8285 77.3796C67.6499 76.9476 67.3667 76.5669 67.0045 76.2716L64.6645 74.3516Z" fill="#FFB573"/>
  <path d="M142.34 37.8211C139.904 33.8971 140.868 31.5851 143.54 31.1211L154.224 35.1411C158.024 39.7291 150.624 39.4611 154.728 43.1171C158.832 46.7731 146.984 51.4211 141.16 46.6451C135.336 41.8691 144.772 41.7451 142.34 37.8211Z" fill="#263238"/>
  <path d="M158.676 141.288L162.032 140.544C161.564 137.344 161.392 133.624 161 131.648L157.124 132.188L158.676 141.288Z" fill="#FFC3BD"/>
  <path d="M134.024 141.832L137.184 141.804C137.476 138.604 138.604 134.788 138.712 132.772L134.808 132.676L134.024 141.832Z" fill="#FFC3BD"/>
  <path d="M156.392 144.494C159.064 143.93 158.864 143.93 160.352 143.558C161.628 143.242 161.972 143.334 163 143.094C163.86 142.89 163.652 142.074 163.184 141.178C162.98 140.778 162.704 140.334 162.412 139.742C162.373 139.659 162.307 139.592 162.225 139.552C162.143 139.512 162.049 139.501 161.96 139.522L158.44 140.27C158.371 140.284 158.306 140.317 158.253 140.365C158.201 140.413 158.162 140.474 158.14 140.542C157.915 141.129 157.56 141.658 157.101 142.089C156.643 142.52 156.093 142.842 155.492 143.03C154.1 143.53 155.328 144.722 156.392 144.494Z" fill="#263238"/>
  <path d="M129.896 144.489C131.848 144.489 133.14 144.313 134.656 144.261C135.956 144.217 136.132 144.489 137.456 144.489C138.324 144.489 138.568 143.513 138.348 142.777C138.135 142.219 137.953 141.649 137.804 141.069C137.787 140.986 137.741 140.912 137.675 140.859C137.608 140.806 137.525 140.779 137.44 140.781H133.808C133.74 140.784 133.673 140.801 133.612 140.832C133.551 140.863 133.498 140.907 133.456 140.961C133.01 141.566 132.432 142.06 131.766 142.407C131.1 142.753 130.363 142.943 129.612 142.961C128.132 143.077 128.824 144.489 129.896 144.489Z" fill="#263238"/>
  <path d="M136.572 71.3086C136.572 71.3086 135.132 90.6246 135.704 102.909C135.092 114.425 134.212 137.669 134.212 137.669C134.276 138.257 137.376 138.025 137.916 137.669C137.916 137.669 144.596 121.589 142.904 102.909C150.244 83.4246 149.424 71.3086 149.424 71.3086H136.572Z" fill="#8B58CD"/>
  <path opacity="0.2" d="M143.852 79.0625C144.996 79.2505 148.064 81.4305 148.464 82.8065C147.659 87.4751 146.531 92.0821 145.088 96.5945C143.24 91.4585 142.936 84.0465 143.852 79.0625Z" fill="black"/>
  <path d="M140.428 71.3086C140.428 71.3086 145.74 93.1126 148.288 103.817C150.96 115.061 156.44 129.857 157.564 137.253C158.264 137.485 160.472 137.041 161.62 136.393C161.62 136.393 162.588 115.141 156.128 104.317C157.588 77.6806 151.328 71.3086 151.328 71.3086H140.428Z" fill="#8B58CD"/>
  <path d="M156.932 135.799C157.028 136.305 157.088 136.817 157.112 137.331C157.112 137.374 157.122 137.417 157.139 137.456C157.157 137.496 157.182 137.531 157.214 137.561C157.246 137.59 157.284 137.612 157.325 137.626C157.365 137.641 157.409 137.646 157.452 137.643C158.988 137.567 161.052 136.763 161.72 136.495C161.781 136.471 161.833 136.428 161.868 136.373C161.903 136.317 161.92 136.252 161.916 136.187L161.84 134.735C161.837 134.687 161.824 134.641 161.801 134.6C161.779 134.558 161.747 134.521 161.709 134.493C161.671 134.465 161.627 134.445 161.581 134.436C161.534 134.427 161.486 134.428 161.44 134.439L157.168 135.435C157.09 135.454 157.021 135.502 156.978 135.57C156.934 135.638 156.917 135.72 156.932 135.799Z" fill="#263238"/>
  <path opacity="0.1" d="M156.932 135.799C157.028 136.305 157.088 136.817 157.112 137.331C157.112 137.374 157.122 137.417 157.139 137.456C157.157 137.496 157.182 137.531 157.214 137.561C157.246 137.59 157.284 137.612 157.325 137.626C157.365 137.641 157.409 137.646 157.452 137.643C158.988 137.567 161.052 136.763 161.72 136.495C161.781 136.471 161.833 136.428 161.868 136.373C161.903 136.317 161.92 136.252 161.916 136.187L161.84 134.735C161.837 134.687 161.824 134.641 161.801 134.6C161.779 134.558 161.747 134.521 161.709 134.493C161.671 134.465 161.627 134.445 161.581 134.436C161.534 134.427 161.486 134.428 161.44 134.439L157.168 135.435C157.09 135.454 157.021 135.502 156.978 135.57C156.934 135.638 156.917 135.72 156.932 135.799Z" fill="white"/>
  <path d="M133.864 136.032C133.836 136.432 133.776 137.148 133.716 137.672C133.707 137.755 133.731 137.838 133.783 137.904C133.834 137.97 133.909 138.013 133.992 138.024C135.359 138.144 136.735 138.136 138.1 138C138.167 137.993 138.229 137.966 138.279 137.923C138.329 137.879 138.365 137.821 138.38 137.756L138.72 136.324C138.732 136.278 138.734 136.229 138.725 136.183C138.716 136.136 138.696 136.091 138.668 136.053C138.639 136.015 138.603 135.983 138.561 135.961C138.518 135.939 138.472 135.926 138.424 135.924L134.216 135.756C134.133 135.747 134.05 135.77 133.984 135.822C133.918 135.874 133.875 135.949 133.864 136.032Z" fill="#263238"/>
  <path opacity="0.1" d="M133.864 136.032C133.836 136.432 133.776 137.148 133.716 137.672C133.707 137.755 133.731 137.838 133.783 137.904C133.834 137.97 133.909 138.013 133.992 138.024C135.359 138.144 136.735 138.136 138.1 138C138.167 137.993 138.229 137.966 138.279 137.923C138.329 137.879 138.365 137.821 138.38 137.756L138.72 136.324C138.732 136.278 138.734 136.229 138.725 136.183C138.716 136.136 138.696 136.091 138.668 136.053C138.639 136.015 138.603 135.983 138.561 135.961C138.518 135.939 138.472 135.926 138.424 135.924L134.216 135.756C134.133 135.747 134.05 135.77 133.984 135.822C133.918 135.874 133.875 135.949 133.864 136.032Z" fill="white"/>
  <path d="M140.9 54.1014L140.636 54.5414L140.388 54.9414C140.224 55.1974 140.052 55.4374 139.884 55.6774C139.544 56.1614 139.18 56.6214 138.812 57.0734C138.069 57.977 137.267 58.8308 136.412 59.6294C136.012 60.0294 135.544 60.4294 135.104 60.8014C134.664 61.1734 134.192 61.5414 133.708 61.8774C132.752 62.5739 131.746 63.2009 130.7 63.7534L130.556 63.8294C130.19 64.0301 129.771 64.1112 129.356 64.0614C128.724 63.9853 128.106 63.8253 127.516 63.5854C126.966 63.3577 126.443 63.0693 125.956 62.7254C125.504 62.4083 125.083 62.048 124.7 61.6494C124.334 61.2749 123.995 60.8738 123.688 60.4494C123.11 59.6593 122.614 58.8122 122.208 57.9214C122.008 57.4894 121.832 57.0494 121.672 56.6094C121.515 56.1541 121.381 55.6908 121.272 55.2214C121.2 54.9274 121.233 54.6175 121.365 54.3452C121.497 54.0728 121.72 53.855 121.995 53.7294C122.271 53.6038 122.581 53.5782 122.874 53.6571C123.166 53.7359 123.421 53.9143 123.596 54.1614L123.672 54.2694C123.872 54.5614 124.12 54.9174 124.352 55.2374C124.584 55.5574 124.836 55.8774 125.084 56.1854C125.562 56.7816 126.087 57.3393 126.652 57.8534C127.137 58.3125 127.687 58.6979 128.284 58.9974C128.735 59.2283 129.234 59.349 129.74 59.3494L128.38 59.6574C129.181 59.1222 129.953 58.544 130.692 57.9254C131.438 57.2987 132.148 56.631 132.82 55.9254C133.496 55.2214 134.152 54.4894 134.76 53.7254C135.068 53.3254 135.356 52.9574 135.648 52.5694L136.048 51.9854L136.244 51.7014L136.408 51.4574L136.512 51.3014C136.883 50.718 137.471 50.3059 138.147 50.1559C138.822 50.0058 139.529 50.1301 140.112 50.5014C140.696 50.8727 141.108 51.4606 141.258 52.1358C141.408 52.8109 141.283 53.518 140.912 54.1014H140.9Z" fill="#FFC3BD"/>
  <path d="M140.26 48.8688C137.492 48.7928 134.808 51.3728 133.112 54.2888C133.512 56.1528 137.7 59.2328 137.7 59.2328C137.7 59.2328 143.904 53.2488 140.26 48.8688Z" fill="#263238"/>
  <path d="M135.736 53.9503C135.655 56.1998 135.688 58.4521 135.836 60.6983C135.948 63.6263 136.148 66.5063 136.572 71.3103H151.32C151.02 67.1583 151.504 62.4223 154.152 53.0783C154.309 52.5896 154.354 52.072 154.284 51.5636C154.215 51.0552 154.032 50.5688 153.75 50.1401C153.468 49.7113 153.094 49.351 152.655 49.0856C152.216 48.8202 151.723 48.6564 151.212 48.6063C150.628 48.5463 150.012 48.4983 149.372 48.4663C147.143 48.3081 144.905 48.3081 142.676 48.4663C141.948 48.5343 141.196 48.6263 140.472 48.7263C139.2 48.9138 138.032 49.5371 137.168 50.4899C136.305 51.4427 135.798 52.6658 135.736 53.9503Z" fill="#263238"/>
  <path d="M148.9 40.9219C148.316 43.0779 147.6 47.0259 149 48.4619C149 48.4619 146.96 48.1579 142.628 50.8379C141.372 49.0379 142.304 48.4619 142.304 48.4619C144.748 47.8899 144.82 46.1059 144.528 44.4339L148.9 40.9219Z" fill="#FFC3BD"/>
  <path d="M143.544 50.3026C144.968 50.5026 145.416 52.6586 145.416 52.6586C145.416 52.6586 148.844 50.2346 149.928 48.5266C149.498 48.2815 149.08 48.0144 148.676 47.7266C148.676 47.7266 144.376 49.4786 143.544 50.3026Z" fill="white"/>
  <path d="M142.184 50.0704C142.184 50.0704 140.952 50.4024 140.508 52.1384C140.18 48.9944 141.648 48.4624 141.648 48.4624C142.04 48.2435 142.498 48.1765 142.936 48.2744C142.622 48.4402 142.375 48.71 142.238 49.0376C142.101 49.3652 142.082 49.7303 142.184 50.0704Z" fill="white"/>
  <path opacity="0.2" d="M147.12 42.3555L144.532 44.4315C144.608 44.8271 144.648 45.2287 144.652 45.6315C145.58 45.4955 146.916 44.4875 147.084 43.5275C147.167 43.1422 147.179 42.7451 147.12 42.3555Z" fill="black"/>
  <path d="M150.744 36.6094C150.088 40.0854 149.884 41.5694 147.9 43.2374C144.916 45.7454 140.812 44.4174 140.42 40.8734C140.068 37.6734 141.196 32.5294 144.78 31.3774C145.542 31.1055 146.363 31.0421 147.157 31.1939C147.952 31.3456 148.692 31.7069 149.3 32.2404C149.908 32.7739 150.363 33.4602 150.617 34.2284C150.87 34.9965 150.914 35.8185 150.744 36.6094Z" fill="#FFC3BD"/>
  <path d="M150.832 38.4307C148.74 39.2587 147.372 35.9267 147.992 33.6307C144.36 35.3227 138.392 32.8667 139.3 30.4547C140.644 31.4667 141.448 31.1347 141.448 31.1347C141.448 31.1347 152.696 23.9347 151.824 30.2987C158.1 32.7987 154.572 37.2267 150.832 38.4307Z" fill="#263238"/>
  <path d="M142.84 28.282C142.248 28.682 142.648 30.238 145.724 28.834L146.872 28.546C144.348 30.742 142.048 32.19 140.832 31.286C139.616 30.382 140.612 27.878 142.84 28.282Z" fill="#263238"/>
  <path d="M145.232 37.1974C145.188 37.4934 145.004 37.7214 144.832 37.7054C144.66 37.6894 144.524 37.4414 144.564 37.1494C144.604 36.8574 144.796 36.6254 144.984 36.6414C145.172 36.6574 145.276 36.8894 145.232 37.1974Z" fill="#263238"/>
  <path d="M141.7 36.9709C141.656 37.2669 141.468 37.4909 141.28 37.4789C141.092 37.4669 140.976 37.2149 141.016 36.9189C141.056 36.6229 141.244 36.3989 141.436 36.4149C141.628 36.4309 141.72 36.6749 141.7 36.9709Z" fill="#263238"/>
  <path d="M141.497 36.4357L140.833 36.1797C140.833 36.1797 141.109 36.7597 141.497 36.4357Z" fill="#263238"/>
  <path d="M142.6 37.3867C142.246 38.0438 141.809 38.6528 141.3 39.1987C141.435 39.3174 141.595 39.4037 141.769 39.4508C141.942 39.498 142.124 39.5048 142.3 39.4707L142.6 37.3867Z" fill="#ED847E"/>
  <path d="M143.804 40.7919C143.641 40.8061 143.476 40.8061 143.312 40.7919C143.301 40.7916 143.29 40.7888 143.28 40.7838C143.271 40.7787 143.262 40.7716 143.255 40.7628C143.248 40.754 143.243 40.7438 143.241 40.733C143.238 40.7221 143.238 40.7108 143.24 40.6999C143.243 40.677 143.255 40.656 143.273 40.6411C143.291 40.6263 143.313 40.6187 143.336 40.6199C143.707 40.648 144.078 40.5928 144.424 40.4586C144.77 40.3243 145.082 40.1143 145.336 39.8439C145.353 39.8288 145.374 39.8203 145.396 39.8203C145.419 39.8203 145.44 39.8288 145.456 39.8439C145.472 39.8602 145.48 39.8817 145.48 39.9039C145.48 39.9262 145.472 39.9476 145.456 39.9639C145.027 40.4347 144.439 40.7297 143.804 40.7919Z" fill="#263238"/>
  <path d="M151.452 39.1991C151.303 39.5033 151.091 39.7725 150.831 39.989C150.57 40.2055 150.267 40.3643 149.94 40.4551C149.14 40.6511 148.8 39.7151 149.092 38.7951C149.356 37.9671 150.096 36.8671 150.88 37.0871C151.664 37.3071 151.88 38.3991 151.452 39.1991Z" fill="#FFC3BD"/>
  <path d="M146.256 35.1461C146.231 35.1477 146.205 35.1443 146.181 35.1361C146.157 35.1279 146.135 35.1149 146.116 35.0981C145.943 34.9353 145.736 34.8123 145.51 34.7377C145.284 34.6631 145.045 34.6386 144.808 34.6661C144.785 34.672 144.76 34.6732 144.736 34.6696C144.712 34.666 144.689 34.6576 144.668 34.6449C144.647 34.6323 144.629 34.6156 144.614 34.5959C144.6 34.5762 144.59 34.5538 144.584 34.5301C144.582 34.48 144.599 34.431 144.632 34.393C144.664 34.3551 144.71 34.3311 144.76 34.3261C145.059 34.2869 145.363 34.3138 145.651 34.4051C145.938 34.4963 146.202 34.6496 146.424 34.8541C146.44 34.871 146.453 34.8913 146.46 34.9135C146.467 34.9358 146.47 34.9593 146.467 34.9826C146.465 35.0059 146.457 35.0283 146.445 35.0482C146.432 35.0682 146.416 35.0852 146.396 35.0981C146.356 35.1297 146.307 35.1467 146.256 35.1461Z" fill="#263238"/>
  <path d="M150.004 79.0721C153.232 77.2521 156.312 74.3441 159.308 70.8161C155.884 65.9881 152.416 61.7041 148.824 58.9961C145.688 62.2801 142.58 65.1161 139.516 67.2481C142.98 70.1521 146.5 74.4561 150.004 79.0721Z" fill="white"/>
  <path d="M140.824 35.1413C140.803 35.1455 140.782 35.1452 140.761 35.1404C140.74 35.1355 140.721 35.1263 140.704 35.1133C140.669 35.0837 140.647 35.0417 140.642 34.9961C140.638 34.9506 140.651 34.9051 140.68 34.8693C140.844 34.6428 141.057 34.4569 141.304 34.3258C141.551 34.1948 141.825 34.122 142.104 34.1133C142.126 34.1142 142.149 34.1198 142.169 34.1298C142.189 34.1398 142.207 34.1539 142.221 34.1713C142.235 34.1886 142.246 34.2088 142.252 34.2306C142.258 34.2523 142.259 34.275 142.256 34.2973C142.25 34.3429 142.228 34.3847 142.193 34.415C142.158 34.4452 142.114 34.4617 142.068 34.4613C141.846 34.4706 141.63 34.5307 141.435 34.6368C141.24 34.7429 141.072 34.8922 140.944 35.0733C140.93 35.0929 140.912 35.1091 140.892 35.1209C140.871 35.1326 140.848 35.1396 140.824 35.1413Z" fill="#263238"/>
  <path d="M151.83 79.1156L160.232 71.5842C160.515 71.3306 160.539 70.8956 160.285 70.6127L150.255 59.4219C150.001 59.139 149.567 59.1152 149.284 59.3688L140.881 66.9002C140.598 67.1538 140.574 67.5888 140.828 67.8717L150.858 79.0625C151.112 79.3454 151.547 79.3692 151.83 79.1156Z" fill="#8B58CD"/>
  <path opacity="0.4" d="M151.83 79.1156L160.232 71.5842C160.515 71.3306 160.539 70.8956 160.285 70.6127L150.255 59.4219C150.001 59.139 149.567 59.1152 149.284 59.3688L140.881 66.9002C140.598 67.1538 140.574 67.5888 140.828 67.8717L150.858 79.0625C151.112 79.3454 151.547 79.3692 151.83 79.1156Z" fill="white"/>
  <path d="M145.048 36.6465L144.384 36.3945C144.384 36.3945 144.66 36.9705 145.048 36.6465Z" fill="#263238"/>
  <path d="M145.56 73.9343L145.872 72.8783C145.929 72.6843 146.031 72.5066 146.17 72.3598C146.309 72.2131 146.481 72.1015 146.672 72.0343L148.5 71.4063C148.861 71.2831 149.245 71.2475 149.622 71.3024C149.999 71.3574 150.358 71.5013 150.668 71.7223L151.068 72.0023C150.668 73.7863 148.92 75.4223 148.92 75.4223L148.476 75.9423C148.387 76.0517 148.278 76.1425 148.154 76.2094C148.03 76.2763 147.894 76.318 147.754 76.3321C147.614 76.3463 147.472 76.3325 147.337 76.2917C147.202 76.2509 147.077 76.1838 146.968 76.0943L145.924 75.2223C145.745 75.0658 145.616 74.8608 145.551 74.6322C145.487 74.4036 145.49 74.1612 145.56 73.9343Z" fill="#FFC3BD"/>
  <path d="M120.636 51.4389L121.72 51.6069C121.922 51.6383 122.113 51.7175 122.278 51.8378C122.443 51.9582 122.577 52.1163 122.668 52.2989L123.532 54.0309C123.703 54.3712 123.79 54.7475 123.785 55.1283C123.78 55.5091 123.684 55.8831 123.504 56.2189L123.28 56.6429C121.46 56.4829 119.608 54.9669 119.608 54.9669L119.032 54.5949C118.912 54.5212 118.808 54.4245 118.725 54.3104C118.642 54.1963 118.583 54.067 118.55 53.9299C118.518 53.7928 118.512 53.6506 118.535 53.5114C118.557 53.3723 118.606 53.2389 118.68 53.1189L119.404 51.9709C119.537 51.773 119.723 51.6175 119.942 51.5232C120.16 51.4288 120.402 51.3995 120.636 51.4389Z" fill="#FFC3BD"/>
  <path d="M117.632 57.7657C117.617 57.7654 117.602 57.7616 117.588 57.7547C117.574 57.7478 117.562 57.7379 117.552 57.7257C117.379 57.4597 117.31 57.1396 117.356 56.8257C117.393 56.6684 117.46 56.52 117.555 56.3894C117.65 56.2588 117.77 56.1487 117.908 56.0657C117.919 56.059 117.93 56.0545 117.942 56.0523C117.954 56.0501 117.966 56.0503 117.978 56.0529C117.99 56.0555 118.001 56.0605 118.011 56.0675C118.021 56.0745 118.03 56.0834 118.036 56.0937C118.043 56.1037 118.048 56.1149 118.051 56.1267C118.053 56.1386 118.053 56.1508 118.051 56.1627C118.049 56.1745 118.044 56.1859 118.038 56.196C118.031 56.2061 118.022 56.2149 118.012 56.2217C117.895 56.2905 117.793 56.3823 117.712 56.4916C117.631 56.6009 117.572 56.7254 117.54 56.8577C117.503 57.123 117.563 57.3927 117.708 57.6177C117.718 57.6318 117.723 57.6482 117.724 57.665C117.725 57.6819 117.721 57.6986 117.713 57.7136C117.706 57.7287 117.694 57.7414 117.68 57.7505C117.666 57.7596 117.649 57.7649 117.632 57.7657Z" fill="#E0E0E0"/>
  <path d="M119.7 52.796L121.164 54.396C121.21 54.4418 121.235 54.5036 121.235 54.568C121.235 54.6325 121.21 54.6943 121.164 54.74L119.196 56.536C119.167 56.5625 119.132 56.5814 119.093 56.5912C119.055 56.6009 119.015 56.6012 118.976 56.592L117.7 56.284C117.653 56.2723 117.611 56.2464 117.579 56.21C117.547 56.1736 117.526 56.1283 117.52 56.08L117.3 54.796C117.295 54.7566 117.3 54.7166 117.313 54.6791C117.326 54.6416 117.348 54.6077 117.376 54.58L119.344 52.788C119.368 52.7642 119.396 52.7454 119.427 52.7328C119.458 52.7203 119.491 52.7142 119.524 52.7149C119.557 52.7157 119.59 52.7232 119.621 52.7372C119.651 52.7512 119.678 52.7712 119.7 52.796ZM117.776 56.028C117.804 56.0583 117.838 56.0827 117.875 56.0999C117.912 56.1172 117.953 56.1269 117.994 56.1286C118.035 56.1303 118.076 56.1238 118.114 56.1097C118.153 56.0955 118.188 56.0739 118.218 56.046C118.249 56.0182 118.273 55.9847 118.29 55.9474C118.307 55.9101 118.317 55.8698 118.319 55.8288C118.321 55.7877 118.314 55.7468 118.3 55.7082C118.286 55.6696 118.264 55.6343 118.236 55.604C118.208 55.5748 118.173 55.5515 118.136 55.5357C118.098 55.5198 118.057 55.5116 118.016 55.5116C117.975 55.5116 117.935 55.5198 117.897 55.5357C117.859 55.5515 117.825 55.5748 117.796 55.604C117.765 55.6303 117.739 55.6625 117.72 55.6988C117.701 55.7351 117.689 55.7749 117.685 55.8157C117.681 55.8566 117.686 55.8978 117.698 55.937C117.71 55.9762 117.73 56.0125 117.756 56.044L117.776 56.028Z" fill="#263238"/>
  <path d="M117.668 57.5038C117.875 57.5469 118.061 57.6618 118.192 57.8282C118.323 57.9945 118.391 58.2017 118.384 58.4133C118.378 58.6249 118.296 58.8274 118.155 58.9851C118.014 59.1428 117.822 59.2458 117.612 59.2758L117.16 61.3758L116.956 61.5078L116.8 61.2638V60.8318L116.912 60.4958L116.868 60.2758L116.932 59.9758V59.6918V59.5038L116.98 59.1438C116.824 59.0464 116.701 58.903 116.63 58.7333C116.558 58.5635 116.541 58.3757 116.58 58.1958C116.605 58.0784 116.653 57.9672 116.722 57.8686C116.79 57.77 116.878 57.6861 116.979 57.6217C117.08 57.5573 117.193 57.5137 117.312 57.4934C117.43 57.4732 117.551 57.4767 117.668 57.5038ZM117.5 58.3038C117.578 58.3145 117.657 58.2955 117.722 58.2504C117.786 58.2054 117.831 58.1377 117.848 58.0609C117.864 57.9841 117.851 57.9038 117.812 57.8361C117.772 57.7684 117.708 57.7183 117.632 57.6958C117.551 57.6791 117.467 57.6949 117.397 57.7397C117.328 57.7846 117.278 57.855 117.26 57.9358C117.249 58.0133 117.268 58.0921 117.312 58.1566C117.357 58.2211 117.424 58.2665 117.5 58.2838V58.3038Z" fill="#8B58CD"/>
  <path d="M117.632 57.772C117.616 57.7723 117.599 57.768 117.585 57.7595C117.571 57.751 117.56 57.7387 117.552 57.724C117.545 57.7138 117.54 57.7021 117.538 57.6898C117.536 57.6775 117.536 57.6649 117.539 57.6528C117.542 57.6407 117.548 57.6294 117.556 57.6196C117.563 57.6098 117.573 57.6018 117.584 57.596C117.806 57.4499 117.971 57.2305 118.048 56.976C118.073 56.842 118.072 56.7043 118.043 56.571C118.014 56.4377 117.959 56.3116 117.88 56.2C117.874 56.1896 117.869 56.1779 117.867 56.1658C117.866 56.1536 117.866 56.1412 117.869 56.1293C117.872 56.1174 117.877 56.1061 117.885 56.0963C117.892 56.0865 117.901 56.0782 117.912 56.072C117.933 56.0596 117.958 56.0556 117.982 56.0608C118.005 56.066 118.026 56.08 118.04 56.1C118.132 56.2329 118.196 56.3828 118.228 56.5409C118.26 56.699 118.26 56.8619 118.228 57.02C118.143 57.3248 117.948 57.5872 117.68 57.756C117.666 57.7667 117.649 57.7723 117.632 57.772Z" fill="#E0E0E0"/>
  <path d="M155.572 52.3964C155.704 52.6844 155.792 52.8884 155.892 53.1284C155.992 53.3684 156.076 53.5884 156.164 53.8164C156.34 54.2764 156.492 54.7404 156.64 55.2004C156.931 56.1314 157.174 57.0766 157.368 58.0324C157.569 58.9976 157.71 59.9741 157.792 60.9564C157.88 61.9539 157.901 62.9561 157.856 63.9564V64.1284C157.851 64.2377 157.835 64.3463 157.808 64.4524C157.65 65.0486 157.415 65.6214 157.108 66.1564C156.855 66.597 156.577 67.023 156.276 67.4324C155.722 68.1806 155.12 68.8915 154.472 69.5604C153.84 70.2084 153.192 70.8204 152.524 71.4044C151.856 71.9884 151.176 72.5364 150.432 73.0644C150.181 73.2393 149.876 73.3207 149.571 73.2945C149.266 73.2684 148.979 73.1363 148.761 72.9211C148.544 72.706 148.408 72.4214 148.377 72.1166C148.347 71.8119 148.425 71.5061 148.596 71.2524V71.2244L150.016 69.1684C150.484 68.4804 150.948 67.8004 151.38 67.1164C151.812 66.4324 152.224 65.7484 152.58 65.0964C152.743 64.7903 152.889 64.4751 153.016 64.1524C153.109 63.9311 153.17 63.6983 153.2 63.4604L153.148 63.9564C153.08 63.1564 152.996 62.3764 152.852 61.5764C152.708 60.7764 152.54 59.9764 152.332 59.1764C152.124 58.3764 151.892 57.5764 151.632 56.8004C151.504 56.4004 151.364 56.0004 151.232 55.6324L151.02 55.0604L150.824 54.5444L150.772 54.4084C150.549 53.7808 150.574 53.0914 150.843 52.4817C151.112 51.8721 151.603 51.3884 152.218 51.13C152.832 50.8715 153.521 50.8579 154.145 51.0919C154.769 51.326 155.28 51.7899 155.572 52.3884V52.3964Z" fill="#FFC3BD"/>
  <path d="M151.348 48.6211C153.748 48.9891 154.712 49.7211 156.672 54.5451C155.784 56.3451 151.616 58.0651 151.616 58.0651C151.616 58.0651 148.288 52.8651 151.348 48.6211Z" fill="#263238"/>
</svg>
